SplineFontDB: 3.0
FontName: ETBembo-SemiBoldOSF
FullName: ETBembo SemiBoldOSF
FamilyName: ETBembo
Weight: Demi
Copyright: ETBembo designed for Eward Tufte / Graphics Press (c) 2002 Dmitry Krasny / Deka Design
Version: 001.001
ItalicAngle: 0
UnderlinePosition: -329
UnderlineWidth: 102
Ascent: 1638
Descent: 410
InvalidEm: 0
sfntRevision: 0x00010041
LayerCount: 2
Layer: 0 1 "Back" 1
Layer: 1 1 "Fore" 0
XUID: [1021 354 -364515948 7757539]
StyleMap: 0x0020
FSType: 4
OS2Version: 2
OS2_WeightWidthSlopeOnly: 0
OS2_UseTypoMetrics: 0
CreationTime: 1394506248
ModificationTime: 1523419947
PfmFamily: 17
TTFWeight: 600
TTFWidth: 5
LineGap: 0
VLineGap: 0
Panose: 2 0 7 3 0 0 0 0 0 0
OS2TypoAscent: 1638
OS2TypoAOffset: 0
OS2TypoDescent: -410
OS2TypoDOffset: 0
OS2TypoLinegap: 0
OS2WinAscent: 1901
OS2WinAOffset: 0
OS2WinDescent: 632
OS2WinDOffset: 0
HheadAscent: 1901
HheadAOffset: 0
HheadDescent: -632
HheadDOffset: 0
OS2SubXSize: 1331
OS2SubYSize: 1434
OS2SubXOff: 0
OS2SubYOff: 287
OS2SupXSize: 1331
OS2SupYSize: 1434
OS2SupXOff: 0
OS2SupYOff: 983
OS2StrikeYSize: 100
OS2StrikeYPos: 528
OS2Vendor: 'PfEd'
OS2CodePages: 00000001.00000000
OS2UnicodeRanges: 800000af.4000004a.00000000.00000000
Lookup: 4 0 1 "'liga' Standard Ligatures in Latin lookup 0" { "'liga' Standard Ligatures in Latin lookup 0-1"  } ['liga' ('DFLT' <'dflt' > 'latn' <'dflt' > ) ]
MarkAttachClasses: 1
DEI: 91125
TtTable: prep
PUSHW_1
 511
SCANCTRL
PUSHB_1
 1
SCANTYPE
SVTCA[y-axis]
MPPEM
PUSHB_1
 8
LT
IF
PUSHB_2
 1
 1
INSTCTRL
EIF
PUSHB_2
 70
 6
CALL
IF
POP
PUSHB_1
 16
EIF
MPPEM
PUSHB_1
 20
GT
IF
POP
PUSHB_1
 128
EIF
SCVTCI
PUSHB_1
 6
CALL
NOT
IF
SVTCA[y-axis]
PUSHB_1
 3
DUP
RCVT
PUSHB_1
 3
CALL
WCVTP
PUSHB_1
 4
DUP
RCVT
PUSHB_3
 3
 103
 2
CALL
PUSHB_1
 3
CALL
WCVTP
PUSHB_1
 5
DUP
RCVT
PUSHB_3
 4
 113
 2
CALL
PUSHB_1
 3
CALL
WCVTP
PUSHB_1
 6
DUP
RCVT
PUSHB_3
 5
 131
 2
CALL
PUSHB_1
 3
CALL
WCVTP
PUSHB_1
 7
DUP
RCVT
PUSHB_3
 6
 142
 2
CALL
PUSHB_1
 3
CALL
WCVTP
PUSHB_1
 8
DUP
RCVT
PUSHB_3
 7
 79
 2
CALL
PUSHB_1
 3
CALL

StartChar: .notdef
Encoding: 65536 -1 0
Width: 748
Flags: W
LayerCount: 2
Fore
SplineSet
68 0 m 1,0,-1
 68 1365 l 1,1,-1
 612 1365 l 1,2,-1
 612 0 l 1,3,-1
 68 0 l 1,0,-1
136 68 m 1,4,-1
 544 68 l 1,5,-1
 544 1297 l 1,6,-1
 136 1297 l 1,7,-1
 136 68 l 1,4,-1
EndSplineSet
Validated: 1
EndChar

StartChar: exclam
Encoding: 33 33 4
Width: 557
GlyphClass: 2
Flags: W
LayerCount: 2
Fore
SplineSet
164 88 m 128,-1,1
 164 139 164 139 197.5 172 c 128,-1,2
 231 205 231 205 280.5 205 c 128,-1,3
 330 205 330 205 364.5 172 c 128,-1,4
 399 139 399 139 399 88 c 128,-1,5
 399 37 399 37 364.5 3 c 128,-1,6
 330 -31 330 -31 280.5 -31 c 128,-1,7
 231 -31 231 -31 197.5 3 c 128,-1,0
 164 37 164 37 164 88 c 128,-1,1
174 1315 m 2,8,9
 170 1364 170 1364 182.5 1388.5 c 128,-1,10
 195 1413 195 1413 242 1413 c 2,11,-1
 315 1413 l 2,12,13
 370 1413 370 1413 381.5 1394.5 c 128,-1,14
 393 1376 393 1376 387 1315 c 2,15,-1
 317 377 l 1,16,17
 309 357 309 357 283.5 353.5 c 128,-1,18
 258 350 258 350 244 377 c 1,19,-1
 174 1315 l 2,8,9
EndSplineSet
Validated: 33
EndChar

StartChar: quotedbl
Encoding: 34 34 5
Width: 870
GlyphClass: 2
Flags: W
LayerCount: 2
Fore
SplineSet
135 1235 m 0,0,1
 135 1380 135 1380 252 1380 c 0,2,3
 309 1380 309 1380 343 1343.5 c 128,-1,4
 377 1307 377 1307 377 1245 c 0,5,6
 377 1212 377 1212 369 1155 c 0,7,8
 365 1118 365 1118 352 1065 c 2,9,-1
 295 758 l 1,10,11
 279 738 279 738 252 739 c 0,12,13
 213 743 213 743 207 784 c 2,14,-1
 158 1067 l 2,15,16
 135 1188 135 1188 135 1235 c 0,0,1
496 1223 m 0,17,18
 496 1381 496 1381 621 1380 c 0,19,20
 676 1380 676 1380 709.5 1343.5 c 128,-1,21
 743 1307 743 1307 743 1245 c 0,22,23
 744 1176 744 1176 721 1063 c 2,24,-1
 664 760 l 1,25,26
 652 727 652 727 616 733 c 128,-1,27
 580 739 580 739 575 760 c 2,28,-1
 522 1061 l 2,29,30
 495 1200 495 1200 496 1223 c 0,17,18
EndSplineSet
Validated: 33
EndChar

StartChar: numbersign
Encoding: 35 35 6
Width: 1431
GlyphClass: 2
Flags: W
LayerCount: 2
Fore
SplineSet
74 410 m 0,0,1
 74 418 74 418 84 475 c 1,2,3
 84 518 84 518 139 518 c 2,4,-1
 301 518 l 2,5,6
 319 518 319 518 325.5 522 c 128,-1,7
 332 526 332 526 336 545 c 2,8,-1
 399 856 l 2,9,10
 403 874 403 874 387 874 c 2,11,-1
 176 874 l 2,12,13
 143 874 143 874 128 883.5 c 128,-1,14
 113 893 113 893 115 918 c 0,15,16
 113 926 113 926 127 993 c 1,17,18
 127 1026 127 1026 180 1028 c 0,19,20
 344 1032 344 1032 416 1028 c 0,21,22
 426 1028 426 1028 430 1029 c 128,-1,23
 434 1030 434 1030 436 1034 c 128,-1,24
 438 1038 438 1038 440 1049 c 2,25,-1
 514 1407 l 2,26,27
 522 1440 522 1440 534.5 1448 c 128,-1,28
 547 1456 547 1456 575 1452 c 0,29,30
 583 1452 583 1452 612 1448 c 0,31,32
 651 1444 651 1444 659.5 1435.5 c 128,-1,33
 668 1427 668 1427 659 1391 c 2,34,-1
 592 1047 l 2,35,36
 586 1029 586 1029 604 1028 c 0,37,38
 647 1032 647 1032 786.5 1029 c 128,-1,39
 926 1026 926 1026 969 1028 c 0,40,41
 983 1030 983 1030 987 1035 c 128,-1,42
 991 1040 991 1040 995 1055 c 0,43,44
 1048 1317 1048 1317 1063 1380 c 0,45,46
 1063 1382 1063 1382 1065 1393.5 c 128,-1,47
 1067 1405 1067 1405 1068 1407 c 128,-1,48
 1069 1409 1069 1409 1071 1417 c 128,-1,49
 1073 1425 1073 1425 1076 1428.5 c 128,-1,50
 1079 1432 1079 1432 1083 1437 c 128,-1,51
 1087 1442 1087 1442 1092.5 1444 c 128,-1,52
 1098 1446 1098 1446 1105 1448 c 128,-1,53
 1112 1450 1112 1450 1120 1450 c 2,54,-1
 1169 1454 l 2,55,56
 1214 1458 1214 1458 1217 1409 c 0,57,58
 1217 1376 1217 1376 1163 1133 c 0,59,60
 1153 1088 1153 1088 1145 1047 c 0,61,62
 1141 1029 1141 1029 1157 1028 c 0,63,64
 1186 1026 1186 1026 1237 1026 c 128,-1,65
 1288 1026 1288 1026 1317 1026 c 0,66,67
 1340 1024 1340 1024 1348 1017 c 128,-1,68
 1356 1010 1356 1010 1354 987 c 0,69,70
 1348 954 1348 954 1337 903 c 0,71,72
 1333 878 1333 878 1280 874 c 1,73,-1
 1137 874 l 2,74,75
 1110 876 1110 876 1104 848 c 0,76,77
 1102 840 1102 840 1098 823 c 2,78,-1
 1040 541 l 2,79,80
 1036 518 1036 518 1059 518 c 0,81,82
 1182 514 1182 514 1260 518 c 0,83,84
 1262 518 1262 518 1273 518 c 128,-1,85
 1284 518 1284 518 1286 518 c 128,-1,86
 1288 518 1288 518 1298.5 517 c 128,-1,87
 1309 516 1309 516 1310 514 c 128,-1,88
 1311 512 1311 512 1319 509 c 128,-1,89
 1327 506 1327 506 1325 501 c 128,-1,90
 1323 496 1323 496 1328 488.5 c 128,-1,91
 1333 481 1333 481 1327 471 c 2,92,-1
 1315 412 l 2,93,94
 1311 389 1311 389 1299.5 379 c 128,-1,95
 1288 369 1288 369 1280 368 c 128,-1,96
 1272 367 1272 367 1247 365 c 0,97,98
 1145 361 1145 361 1049 365 c 0,99,100
 1033 365 1033 365 1023.5 365 c 128,-1,101
 1014 365 1014 365 1009 360.5 c 128,-1,102
 1004 356 1004 356 1002.5 353 c 128,-1,103
 1001 350 1001 350 1000 339 c 128,-1,104
 999 328 999 328 997 322 c 2,105,-1
 932 -4 l 2,106,107
 928 -24 928 -24 923 -33.5 c 128,-1,108
 918 -43 918 -43 906.5 -51 c 128,-1,109
 895 -59 895 -59 874 -59 c 2,110,-1
 815 -59 l 2,111,112
 774 -59 774 -59 778 2 c 0,113,114
 780 22 780 22 840 295 c 0,115,116
 842 311 842 311 846 326 c 0,117,118
 848 340 848 340 849 346 c 128,-1,119
 850 352 850 352 848 357 c 128,-1,120
 846 362 846 362 842 363.5 c 128,-1,121
 838 365 838 365 827 365 c 0,122,123
 639 373 639 373 492 365 c 0,124,125
 488 365 488 365 478.5 365 c 128,-1,126
 469 365 469 365 466 363.5 c 128,-1,127
 463 362 463 362 458 361 c 128,-1,128
 453 360 453 360 453 358 c 128,-1,129
 453 356 453 356 449.5 352 c 128,-1,130
 446 348 446 348 445 343 c 128,-1,131
 444 338 444 338 442 328 c 2,132,-1
 375 -2 l 2,133,134
 373 -16 373 -16 366.5 -26.5 c 128,-1,135
 360 -37 360 -37 357 -43 c 128,-1,136
 354 -49 354 -49 342 -52 c 128,-1,137
 330 -55 330 -55 327 -56 c 128,-1,138
 324 -57 324 -57 306.5 -57 c 128,-1,139
 289 -57 289 -57 285 -57 c 0,140,141
 222 -61 222 -61 221 -16 c 0,142,143
 221 -8 221 -8 224 0 c 128,-1,144
 227 8 227 8 227 14 c 2,145,-1
 293 338 l 2,146,147
 299 365 299 365 266 365 c 2,148,-1
 127 365 l 2,149,150
 107 365 107 365 97.5 367 c 128,-1,151
 88 369 88 369 81 378 c 128,-1,152
 74 387 74 387 74 410 c 0,0,1
483 541 m 2,153,154
 481 525 481 525 494 520 c 1,155,156
 623 526 623 526 848 520 c 0,157,158
 885 518 885 518 891 547 c 2,159,-1
 952 840 l 2,160,161
 956 854 956 854 955 861 c 128,-1,162
 954 868 954 868 950 871 c 128,-1,163
 946 874 946 874 936 874 c 0,164,165
 741 878 741 878 588 874 c 0,166,167
 584 874 584 874 580 874 c 0,168,169
 568 874 568 874 563.5 873 c 128,-1,170
 559 872 559 872 555 866 c 128,-1,171
 551 860 551 860 549 846 c 2,172,-1
 483 541 l 2,153,154
EndSplineSet
Validated: 33
EndChar

StartChar: dollar
Encoding: 36 36 7
Width: 980
GlyphClass: 2
Flags: W
LayerCount: 2
Fore
SplineSet
74 217 m 0,0,1
 74 254 74 254 100.5 281.5 c 128,-1,2
 127 309 127 309 162 309 c 0,3,4
 199 309 199 309 221.5 285.5 c 128,-1,5
 244 262 244 262 262.5 208 c 128,-1,6
 281 154 281 154 283 147 c 0,7,8
 299 118 299 118 317 102 c 0,9,10
 323 98 323 98 326.5 107.5 c 128,-1,11
 330 117 330 117 330 129 c 2,12,-1
 330 606 l 1,13,14
 326 612 326 612 319 618 c 0,15,16
 258 663 258 663 237.5 681.5 c 128,-1,17
 217 700 217 700 177 741 c 128,-1,18
 137 782 137 782 123 826 c 128,-1,19
 109 870 109 870 109 926 c 0,20,21
 109 1018 109 1018 164 1090.5 c 128,-1,22
 219 1163 219 1163 313 1200 c 0,23,24
 329 1206 329 1206 330 1233 c 2,25,-1
 330 1325 l 1,26,27
 334 1343 334 1343 381 1348 c 1,28,29
 404 1344 404 1344 414 1321 c 1,30,-1
 414 1237 l 2,31,32
 416 1235 416 1235 418 1231 c 256,33,34
 420 1227 420 1227 422 1227 c 0,35,36
 463 1231 463 1231 506 1227 c 0,37,38
 524 1227 524 1227 524 1237 c 2,39,-1
 524 1319 l 2,40,41
 526 1335 526 1335 557 1346 c 1,42,-1
 584 1346 l 2,43,44
 594 1346 594 1346 603 1336.5 c 128,-1,45
 612 1327 612 1327 612 1313 c 2,46,-1
 610 1235 l 2,47,48
 610 1206 610 1206 631 1200 c 0,49,50
 725 1169 725 1169 782.5 1120 c 128,-1,51
 840 1071 840 1071 840 1014 c 0,52,53
 840 977 840 977 816.5 952.5 c 128,-1,54
 793 928 793 928 758 928 c 0,55,56
 735 928 735 928 714.5 940 c 128,-1,57
 694 952 694 952 685 962.5 c 128,-1,58
 676 973 676 973 656.5 1002.5 c 128,-1,59
 637 1032 637 1032 633 1036 c 0,60,61
 610 1067 610 1067 610 1036 c 2,62,-1
 610 700 l 2,63,64
 610 673 610 673 616 668 c 0,65,66
 700 617 700 617 749.5 577 c 128,-1,67
 799 537 799 537 844 465 c 128,-1,68
 889 393 889 393 889 309 c 0,69,70
 889 194 889 194 817 107 c 128,-1,71
 745 20 745 20 621 -20 c 0,72,73
 611 -22 611 -22 610 -45 c 0,74,75
 610 -133 610 -133 612 -190 c 0,76,77
 612 -219 612 -219 580 -219 c 2,78,-1
 549 -219 l 1,79,80
 518 -213 518 -213 522 -182 c 2,81,-1
 524 -47 l 2,82,83
 524 -43 524 -43 518 -37 c 1,84,85
 481 -43 481 -43 434 -37 c 0,86,87
 416 -37 416 -37 416 -45 c 0,88,89
 416 -57 416 -57 416 -106.5 c 128,-1,90
 416 -156 416 -156 420 -182 c 0,91,92
 422 -209 422 -209 399 -219 c 1,93,-1
 346 -219 l 1,94,95
 323 -211 323 -211 330 -184 c 1,96,-1
 330 -158 l 1,97,-1
 330 -27 l 1,98,-1
 324 -16 l 1,99,100
 191 27 191 27 137 84 c 0,101,102
 74 152 74 152 74 217 c 0,0,1
260 997.5 m 128,-1,104
 260 932 260 932 313 881 c 0,105,106
 319 875 319 875 324.5 879 c 128,-1,107
 330 883 330 883 330 895 c 2,108,-1
 330 1087 l 1,109,110
 326 1103 326 1103 319 1106 c 1,111,103
 260 1063 260 1063 260 997.5 c 128,-1,104
414 520 m 2,112,-1
 416 78 l 2,113,114
 416 51 416 51 434 49 c 0,115,116
 475 41 475 41 512 45 c 0,117,118
 524 47 524 47 524 74 c 2,119,-1
 524 469 l 2,120,121
 524 496 524 496 512 496 c 1,122,123
 469 527 469 527 428 549 c 1,124,125
 416 541 416 541 414 520 c 2,112,-1
414 827 m 2,126,127
 414 809 414 809 428 793 c 0,128,129
 442 781 442 781 454.5 772.5 c 128,-1,130
 467 764 467 764 481.5 754.5 c 128,-1,131
 496 745 496 745 508 737 c 0,132,133
 514 735 514 735 519 743.5 c 128,-1,134
 524 752 524 752 524 762 c 2,135,-1
 524 1100 l 1,136,-1
 524 1098 l 2,137,138
 524 1131 524 1131 512 1133 c 0,139,140
 467 1147 467 1147 432 1141 c 0,141,142
 420 1141 420 1141 417 1139 c 128,-1,143
 414 1137 414 1137 414 1122 c 2,144,-1
 414 827 l 2,126,127
610 100 m 2,145,146
 610 88 610 88 611.5 86 c 128,-1,147
 613 84 613 84 625 88 c 0,148,149
 721 147 721 147 721 262 c 0,150,151
 721 348 721 348 627 418 c 0,152,153
 619 424 619 424 614.5 417 c 128,-1,154
 610 410 610 410 610 397 c 2,155,-1
 610 100 l 2,145,146
EndSplineSet
Validated: 37
EndChar

StartChar: percent
Encoding: 37 37 8
Width: 1425
GlyphClass: 2
Flags: W
LayerCount: 2
Fore
SplineSet
86 932 m 0,0,1
 86 1067 86 1067 173 1154 c 128,-1,2
 260 1241 260 1241 385 1241 c 128,-1,3
 510 1241 510 1241 600 1155 c 128,-1,4
 690 1069 690 1069 688 938 c 0,5,6
 686 805 686 805 599 718 c 128,-1,7
 512 631 512 631 387 631 c 0,8,9
 264 631 264 631 175 718 c 128,-1,10
 86 805 86 805 86 932 c 0,0,1
227 935.5 m 128,-1,12
 227 831 227 831 270 775 c 128,-1,13
 313 719 313 719 387 719 c 0,14,15
 463 719 463 719 506 775 c 128,-1,16
 549 831 549 831 549 938 c 0,17,18
 549 1042 549 1042 504 1097.5 c 128,-1,19
 459 1153 459 1153 381 1153 c 0,20,21
 311 1153 311 1153 269 1096.5 c 128,-1,11
 227 1040 227 1040 227 935.5 c 128,-1,12
254 -82 m 2,22,-1
 1040 1288 l 1,23,24
 1063 1317 1063 1317 1102 1307 c 1,25,-1
 1124 1296 l 2,26,27
 1153 1284 1153 1284 1137 1247 c 1,28,-1
 354 -115 l 1,29,30
 340 -152 340 -152 293 -139 c 0,31,32
 230 -123 230 -123 254 -82 c 2,22,-1
715 215 m 0,33,34
 715 348 715 348 803 435 c 128,-1,35
 891 522 891 522 1014 522 c 0,36,37
 1139 522 1139 522 1229 437 c 128,-1,38
 1319 352 1319 352 1317 221 c 0,39,40
 1315 88 1315 88 1228 1 c 128,-1,41
 1141 -86 1141 -86 1016 -86 c 0,42,43
 895 -86 895 -86 805 0 c 128,-1,44
 715 86 715 86 715 215 c 0,33,34
856 219 m 0,45,46
 856 115 856 115 899 58.5 c 128,-1,47
 942 2 942 2 1016 2 c 0,48,49
 1092 2 1092 2 1135 58.5 c 128,-1,50
 1178 115 1178 115 1178 221 c 0,51,52
 1178 325 1178 325 1133 380.5 c 128,-1,53
 1088 436 1088 436 1010 436 c 0,54,55
 940 436 940 436 898 379 c 128,-1,56
 856 322 856 322 856 219 c 0,45,46
EndSplineSet
Validated: 33
EndChar

StartChar: ampersand
Encoding: 38 38 9
Width: 1562
GlyphClass: 2
Flags: W
LayerCount: 2
Fore
SplineSet
82 332 m 0,0,1
 82 492 82 492 209 602 c 0,2,3
 260 645 260 645 414 721 c 0,4,5
 437 735 437 735 420 748 c 0,6,7
 301 873 301 873 301 999 c 0,8,9
 301 1120 301 1120 388 1193 c 128,-1,10
 475 1266 475 1266 612 1266 c 0,11,12
 737 1266 737 1266 820 1203.5 c 128,-1,13
 903 1141 903 1141 903 1038 c 0,14,15
 903 893 903 893 700 776 c 0,16,17
 686 770 686 770 698 758 c 0,18,19
 743 725 743 725 852 625 c 0,20,21
 934 545 934 545 997 453 c 0,22,23
 1009 437 1009 437 1016 449 c 0,24,25
 1073 521 1073 521 1147 631 c 0,26,27
 1245 785 1245 785 1245 838 c 0,28,29
 1245 848 1245 848 1206 852 c 0,30,31
 1192 854 1192 854 1167.5 857 c 128,-1,32
 1143 860 1143 860 1139 860 c 0,33,34
 1112 874 1112 874 1122 918 c 0,35,36
 1128 938 1128 938 1151 938 c 2,37,-1
 1159 938 l 1,38,39
 1290 932 1290 932 1509 940 c 0,40,41
 1540 944 1540 944 1546 913 c 1,42,-1
 1546 887 l 2,43,44
 1546 860 1546 860 1507 856 c 0,45,46
 1497 854 1497 854 1471.5 852 c 128,-1,47
 1446 850 1446 850 1429.5 848 c 128,-1,48
 1413 846 1413 846 1392.5 838.5 c 128,-1,49
 1372 831 1372 831 1360 819 c 0,50,51
 1335 796 1335 796 1282 702 c 1,52,-1
 1227 592 l 1,53,54
 1164 475 1164 475 1063 362 c 0,55,56
 1059 358 1059 358 1069 344 c 0,57,58
 1085 315 1085 315 1133 233 c 0,59,60
 1188 135 1188 135 1216.5 106.5 c 128,-1,61
 1245 78 1245 78 1282 78 c 0,62,63
 1333 78 1333 78 1442 154 c 1,64,65
 1465 160 1465 160 1484 126 c 128,-1,66
 1503 92 1503 92 1481 80 c 1,67,68
 1334 -39 1334 -39 1206 -39 c 0,69,70
 1171 -39 1171 -39 1143.5 -35 c 128,-1,71
 1116 -31 1116 -31 1091.5 -14.5 c 128,-1,72
 1067 2 1067 2 1053.5 9 c 128,-1,73
 1040 16 1040 16 1018.5 48 c 128,-1,74
 997 80 997 80 991 87 c 128,-1,75
 985 94 985 94 962.5 136 c 128,-1,76
 940 178 940 178 936 184 c 0,77,78
 932 192 932 192 922.5 195.5 c 128,-1,79
 913 199 913 199 909 193 c 0,80,81
 671 -38 671 -38 451 -39 c 0,82,83
 297 -39 297 -39 189.5 68.5 c 128,-1,84
 82 176 82 176 82 332 c 0,0,1
305 356 m 0,85,86
 305 245 305 245 367.5 181 c 128,-1,87
 430 117 430 117 535 117 c 0,88,89
 617 117 617 117 713 162 c 128,-1,90
 809 207 809 207 872 281 c 1,91,92
 878 281 878 281 872 293 c 0,93,94
 809 395 809 395 702 504 c 0,95,96
 610 600 610 600 516 662 c 0,97,98
 508 668 508 668 489 653 c 0,99,100
 305 518 305 518 305 356 c 0,85,86
483 1051 m 0,101,102
 483 936 483 936 602 836 c 0,103,104
 616 822 616 822 633 834 c 0,105,106
 729 904 729 904 729 1024 c 0,107,108
 729 1096 729 1096 693 1137 c 128,-1,109
 657 1178 657 1178 598 1178 c 0,110,111
 545 1178 545 1178 514 1145 c 128,-1,112
 483 1112 483 1112 483 1051 c 0,101,102
EndSplineSet
Validated: 33
EndChar

StartChar: quotesingle
Encoding: 39 39 10
Width: 378
GlyphClass: 2
Flags: W
LayerCount: 2
Fore
SplineSet
78 1225 m 0,0,1
 78 1381 78 1381 188 1380 c 0,2,3
 241 1380 241 1380 273 1343.5 c 128,-1,4
 305 1307 305 1307 305 1245 c 0,5,6
 305 1206 305 1206 295 1151 c 0,7,8
 285 1092 285 1092 265.5 973 c 128,-1,9
 246 854 246 854 236 795 c 0,10,11
 234 775 234 775 222.5 758 c 128,-1,12
 211 741 211 741 188 743 c 0,13,14
 168 745 168 745 160 750.5 c 128,-1,15
 152 756 152 756 149.5 762 c 128,-1,16
 147 768 147 768 145 791 c 2,17,-1
 100 1065 l 2,18,19
 77 1212 77 1212 78 1225 c 0,0,1
EndSplineSet
Validated: 33
EndChar

StartChar: parenleft
Encoding: 40 40 11
Width: 667
GlyphClass: 2
Flags: W
LayerCount: 2
Fore
SplineSet
158 492 m 0,0,1
 158 748 158 748 261.5 995.5 c 128,-1,2
 365 1243 365 1243 541 1442 c 1,3,4
 578 1471 578 1471 613.5 1434 c 128,-1,5
 649 1397 649 1397 627 1360 c 1,6,7
 494 1208 494 1208 395 944 c 0,8,9
 321 741 321 741 322 492 c 0,10,11
 322 295 322 295 362.5 141.5 c 128,-1,12
 403 -12 403 -12 500 -190 c 0,13,14
 561 -299 561 -299 627 -379 c 1,15,16
 647 -424 647 -424 575 -457 c 0,17,18
 550 -471 550 -471 522 -438 c 0,19,20
 354 -248 354 -248 256 -2 c 128,-1,21
 158 244 158 244 158 492 c 0,0,1
EndSplineSet
Validated: 33
EndChar

StartChar: parenright
Encoding: 41 41 12
Width: 647
GlyphClass: 2
Flags: W
LayerCount: 2
Fore
SplineSet
27 -375 m 1,0,1
 162 -219 162 -219 260 41 c 0,2,3
 334 244 334 244 334 496 c 0,4,5
 334 689 334 689 293 843 c 128,-1,6
 252 997 252 997 154 1178 c 0,7,8
 84 1299 84 1299 41 1348 c 0,9,10
 27 1364 27 1364 28 1389.5 c 128,-1,11
 29 1415 29 1415 47 1432 c 0,12,13
 94 1469 94 1469 129 1427 c 0,14,15
 299 1234 299 1234 396.5 991 c 128,-1,16
 494 748 494 748 494 496 c 0,17,18
 494 238 494 238 392.5 -13 c 128,-1,19
 291 -264 291 -264 113 -457 c 1,20,21
 76 -486 76 -486 37 -454 c 128,-1,22
 -2 -422 -2 -422 27 -375 c 1,0,1
EndSplineSet
Validated: 33
EndChar

StartChar: asterisk
Encoding: 42 42 13
Width: 1093
GlyphClass: 2
Flags: W
LayerCount: 2
Fore
SplineSet
158 731 m 0,0,1
 158 702 158 702 182.5 675.5 c 128,-1,2
 207 649 207 649 242 649 c 0,3,4
 273 649 273 649 297.5 662.5 c 128,-1,5
 322 676 322 676 332 687 c 128,-1,6
 342 698 342 698 367 729 c 0,7,8
 433 813 433 813 512 862 c 0,9,10
 516 864 516 864 519 857 c 128,-1,11
 522 850 522 850 522 846 c 0,12,13
 518 746 518 746 496 674 c 0,14,15
 467 594 467 594 467 561 c 0,16,17
 467 520 467 520 491.5 490.5 c 128,-1,18
 516 461 516 461 557 461 c 128,-1,19
 598 461 598 461 622.5 490.5 c 128,-1,20
 647 520 647 520 647 561 c 128,-1,21
 647 602 647 602 639 621 c 0,22,23
 635 639 635 639 621 674 c 0,24,25
 596 740 596 740 594 848 c 0,26,27
 594 860 594 860 608 860 c 1,28,29
 684 813 684 813 750 729 c 0,30,31
 770 700 770 700 783.5 687 c 128,-1,32
 797 674 797 674 820.5 661.5 c 128,-1,33
 844 649 844 649 872 649 c 0,34,35
 909 649 909 649 932.5 674.5 c 128,-1,36
 956 700 956 700 956 731 c 0,37,38
 956 772 956 772 930.5 798.5 c 128,-1,39
 905 825 905 825 878.5 834.5 c 128,-1,40
 852 844 852 844 803 854 c 128,-1,41
 754 864 754 864 737 868 c 0,42,43
 688 882 688 882 635 915 c 0,44,45
 631 917 631 917 633 923.5 c 128,-1,46
 635 930 635 930 639 932 c 0,47,48
 690 957 690 957 739 973 c 0,49,50
 753 977 753 977 802.5 988 c 128,-1,51
 852 999 852 999 878.5 1009.5 c 128,-1,52
 905 1020 905 1020 930.5 1046.5 c 128,-1,53
 956 1073 956 1073 956 1112 c 0,54,55
 956 1139 956 1139 935.5 1167.5 c 128,-1,56
 915 1196 915 1196 864 1196 c 0,57,58
 815 1196 815 1196 752 1118 c 0,59,60
 682 1036 682 1036 610 989 c 0,61,62
 606 987 606 987 599 988 c 128,-1,63
 592 989 592 989 592 995 c 0,64,65
 594 1073 594 1073 618 1159 c 0,66,67
 645 1247 645 1247 645 1284 c 128,-1,68
 645 1321 645 1321 621.5 1350.5 c 128,-1,69
 598 1380 598 1380 557 1380 c 128,-1,70
 516 1380 516 1380 492.5 1350.5 c 128,-1,71
 469 1321 469 1321 469 1284 c 0,72,73
 469 1255 469 1255 498 1159 c 1,74,75
 521 1067 521 1067 524 995 c 0,76,77
 524 979 524 979 510 987 c 0,78,79
 442 1028 442 1028 362 1118 c 0,80,81
 360 1122 360 1122 352 1131.5 c 128,-1,82
 344 1141 344 1141 340 1145 c 128,-1,83
 336 1149 336 1149 327.5 1157 c 128,-1,84
 319 1165 319 1165 314 1169.5 c 128,-1,85
 309 1174 309 1174 301 1180 c 128,-1,86
 293 1186 293 1186 286 1189 c 128,-1,87
 279 1192 279 1192 269.5 1194 c 128,-1,88
 260 1196 260 1196 252 1196 c 0,89,90
 201 1196 201 1196 179.5 1167.5 c 128,-1,91
 158 1139 158 1139 158 1112 c 0,92,93
 158 1061 158 1061 184.5 1038.5 c 128,-1,94
 211 1016 211 1016 266 1001 c 0,95,96
 280 997 280 997 317 989 c 128,-1,97
 354 981 354 981 377 973 c 0,98,99
 451 948 451 948 479 934 c 0,100,101
 493 923 493 923 483 915 c 2,102,-1
 481 913 l 1,103,104
 348 860 348 860 268 840 c 0,105,106
 211 828 211 828 184.5 807 c 128,-1,107
 158 786 158 786 158 731 c 0,0,1
EndSplineSet
Validated: 9
EndChar

StartChar: plus
Encoding: 43 43 14
Width: 1429
GlyphClass: 2
Flags: W
LayerCount: 2
Fore
SplineSet
145 662 m 2,0,-1
 145 723 l 2,1,2
 145 727 145 727 145 733 c 0,3,4
 145 749 145 749 146 755.5 c 128,-1,5
 147 762 147 762 157.5 766 c 128,-1,6
 168 770 168 770 190 770 c 2,7,-1
 621 770 l 2,8,9
 633 770 633 770 636 773 c 128,-1,10
 639 776 639 776 639 786 c 2,11,-1
 639 1206 l 2,12,13
 639 1210 639 1210 639 1220.5 c 128,-1,14
 639 1231 639 1231 639 1236 c 128,-1,15
 639 1241 639 1241 640 1249 c 128,-1,16
 641 1257 641 1257 645 1260.5 c 128,-1,17
 649 1264 649 1264 656.5 1267 c 128,-1,18
 664 1270 664 1270 676 1270 c 2,19,-1
 756 1270 l 2,20,21
 781 1270 781 1270 788 1259.5 c 128,-1,22
 795 1249 795 1249 795 1214 c 2,23,-1
 795 778 l 2,24,25
 797 770 797 770 823 770 c 2,26,-1
 1241 770 l 2,27,28
 1272 770 1272 770 1279 761 c 128,-1,29
 1286 752 1286 752 1286 725 c 2,30,-1
 1286 662 l 2,31,32
 1286 631 1286 631 1273 622.5 c 128,-1,33
 1260 614 1260 614 1227 614 c 2,34,-1
 813 614 l 2,35,36
 795 614 795 614 795 584 c 2,37,-1
 795 154 l 2,38,39
 795 121 795 121 786.5 113.5 c 128,-1,40
 778 106 778 106 743 106 c 0,41,42
 739 106 739 106 713.5 105 c 128,-1,43
 688 104 688 104 680 106 c 0,44,45
 660 106 660 106 650.5 112.5 c 128,-1,46
 641 119 641 119 640 126 c 128,-1,47
 639 133 639 133 639 154 c 2,48,-1
 639 600 l 2,49,50
 639 610 639 610 637 612 c 128,-1,51
 635 614 635 614 623 614 c 2,52,-1
 188 614 l 2,53,54
 159 614 159 614 152 622.5 c 128,-1,55
 145 631 145 631 145 662 c 2,0,-1
EndSplineSet
Validated: 1
EndChar

StartChar: comma
Encoding: 44 44 15
Width: 514
GlyphClass: 2
Flags: W
LayerCount: 2
Fore
SplineSet
143 57 m 0,0,1
 143 104 143 104 177 136 c 128,-1,2
 211 168 211 168 256 168 c 0,3,4
 317 168 317 168 353 122 c 128,-1,5
 389 76 389 76 389 4 c 0,6,7
 389 -82 389 -82 340 -161 c 128,-1,8
 291 -240 291 -240 211 -279 c 0,9,10
 178 -293 178 -293 162 -276 c 0,11,12
 160 -274 160 -274 157 -269 c 128,-1,13
 154 -264 154 -264 150 -262 c 0,14,15
 136 -221 136 -221 160 -213 c 1,16,17
 281 -139 281 -139 281 -53 c 0,18,19
 281 -43 281 -43 278.5 -41 c 128,-1,20
 276 -39 276 -39 266 -43 c 0,21,22
 264 -45 264 -45 262 -45 c 0,23,24
 213 -55 213 -55 178 -24.5 c 128,-1,25
 143 6 143 6 143 57 c 0,0,1
EndSplineSet
Validated: 33
EndChar

StartChar: hyphen
Encoding: 45 45 16
Width: 890
GlyphClass: 2
Flags: W
LayerCount: 2
Fore
SplineSet
90 438 m 1,0,-1
 90 510 l 2,1,2
 90 528 90 528 106.5 538.5 c 128,-1,3
 123 549 123 549 139 549 c 0,4,5
 510 539 510 539 772 549 c 0,6,7
 786 549 786 549 798.5 536.5 c 128,-1,8
 811 524 811 524 811 510 c 2,9,-1
 807 440 l 1,10,11
 799 411 799 411 776 408 c 0,12,13
 465 404 465 404 121 408 c 0,14,15
 101 408 101 408 90 438 c 1,0,-1
EndSplineSet
Validated: 33
EndChar

StartChar: period
Encoding: 46 46 17
Width: 444
GlyphClass: 2
Flags: W
LayerCount: 2
Fore
SplineSet
133 80 m 0,0,1
 133 133 133 133 168 166 c 128,-1,2
 203 199 203 199 258 199 c 0,3,4
 311 199 311 199 344 167 c 128,-1,5
 377 135 377 135 377 82 c 0,6,7
 377 31 377 31 344 -3 c 128,-1,8
 311 -37 311 -37 258 -37 c 128,-1,9
 205 -37 205 -37 169 -4 c 128,-1,10
 133 29 133 29 133 80 c 0,0,1
EndSplineSet
Validated: 1
EndChar

StartChar: slash
Encoding: 47 47 18
Width: 980
GlyphClass: 2
Flags: W
LayerCount: 2
Fore
SplineSet
84 27 m 0,0,1
 752 1332 752 1332 760 1348 c 0,2,3
 780 1389 780 1389 821 1392 c 128,-1,4
 862 1395 862 1395 903 1382 c 0,5,6
 923 1378 923 1378 929.5 1357.5 c 128,-1,7
 936 1337 936 1337 920 1311 c 2,8,-1
 248 2 l 2,9,10
 232 -33 232 -33 219.5 -38 c 128,-1,11
 207 -43 207 -43 164 -43 c 0,12,13
 135 -43 135 -43 121 -41 c 0,14,15
 53 -31 53 -31 84 27 c 0,0,1
EndSplineSet
Validated: 33
EndChar

StartChar: zero
Encoding: 48 48 19
Width: 1001
GlyphClass: 2
Flags: W
LayerCount: 2
Fore
SplineSet
78 440 m 0,0,1
 78 653 78 653 201 792.5 c 128,-1,2
 324 932 324 932 512 932 c 0,3,4
 702 932 702 932 825 794.5 c 128,-1,5
 948 657 948 657 948 446 c 0,6,7
 948 237 948 237 825.5 104 c 128,-1,8
 703 -29 703 -29 510 -29 c 0,9,10
 324 -29 324 -29 201 105.5 c 128,-1,11
 78 240 78 240 78 440 c 0,0,1
246 453 m 0,12,13
 246 281 246 281 316.5 187.5 c 128,-1,14
 387 94 387 94 510 94 c 0,15,16
 637 94 637 94 709.5 186.5 c 128,-1,17
 782 279 782 279 782 451 c 0,18,19
 782 627 782 627 710.5 720 c 128,-1,20
 639 813 639 813 508 813 c 0,21,22
 389 813 389 813 317.5 718 c 128,-1,23
 246 623 246 623 246 453 c 0,12,13
EndSplineSet
Validated: 1
EndChar

StartChar: one
Encoding: 49 49 20
Width: 794
GlyphClass: 2
Flags: W
LayerCount: 2
Fore
SplineSet
121 645 m 0,0,1
 141 659 141 659 205 700 c 0,2,3
 338 790 338 790 416 901 c 0,4,5
 426 909 426 909 473 908 c 128,-1,6
 520 907 520 907 520 887 c 2,7,-1
 520 182 l 2,8,9
 520 119 520 119 532 109 c 0,10,11
 538 103 538 103 561 102 c 1,12,13
 579 96 579 96 645 96 c 0,14,15
 668 96 668 96 680 94 c 0,16,17
 700 90 700 90 700 41 c 128,-1,18
 700 -8 700 -8 676 -8 c 0,19,20
 289 -4 289 -4 190 -8 c 0,21,22
 163 -10 163 -10 159.5 34 c 128,-1,23
 156 78 156 78 178 90 c 0,24,25
 196 100 196 100 221 96 c 1,26,27
 266 96 266 96 274 98 c 0,28,29
 350 100 350 100 350 176 c 2,30,-1
 350 639 l 2,31,32
 350 670 350 670 340 670 c 0,33,34
 338 670 338 670 334 666 c 0,35,36
 307 648 307 648 281.5 633 c 128,-1,37
 256 618 256 618 216 601 c 128,-1,38
 176 584 176 584 160 575 c 0,39,40
 140 563 140 563 123 598 c 128,-1,41
 106 633 106 633 121 645 c 0,0,1
EndSplineSet
Validated: 33
EndChar

StartChar: two
Encoding: 50 50 21
Width: 985
GlyphClass: 2
Flags: W
LayerCount: 2
Fore
SplineSet
68 30.5 m 128,-1,1
 68 55 68 55 78 68 c 1,2,3
 275 205 275 205 436 346 c 0,4,5
 602 496 602 496 602 608 c 0,6,7
 602 690 602 690 553 740.5 c 128,-1,8
 504 791 504 791 424 791 c 0,9,10
 315 791 315 791 201 684 c 0,11,12
 187 674 187 674 156 688 c 128,-1,13
 125 702 125 702 139 735 c 1,14,15
 231 839 231 839 315 885.5 c 128,-1,16
 399 932 399 932 502 932 c 0,17,18
 621 932 621 932 704.5 861.5 c 128,-1,19
 788 791 788 791 788 686 c 0,20,21
 788 610 788 610 749.5 535.5 c 128,-1,22
 711 461 711 461 637 389 c 128,-1,23
 563 317 563 317 509 274 c 128,-1,24
 455 231 455 231 373 174 c 0,25,26
 350 158 350 158 408 160 c 0,27,28
 635 160 635 160 688 162 c 0,29,30
 725 164 725 164 737.5 170 c 128,-1,31
 750 176 750 176 764 203 c 0,32,33
 793 250 793 250 823 330 c 1,34,35
 841 348 841 348 873 340 c 128,-1,36
 905 332 905 332 899 307 c 2,37,-1
 831 29 l 2,38,39
 821 -8 821 -8 766 -8 c 2,40,-1
 750 -8 l 1,41,-1
 86 -8 l 1,42,0
 68 6 68 6 68 30.5 c 128,-1,1
EndSplineSet
Validated: 1
EndChar

StartChar: three
Encoding: 51 51 22
Width: 833
GlyphClass: 2
Flags: W
LayerCount: 2
Fore
SplineSet
111 -244 m 0,0,1
 111 -191 111 -191 156 -168 c 128,-1,2
 201 -145 201 -145 242 -170 c 0,3,4
 248 -174 248 -174 259 -183.5 c 128,-1,5
 270 -193 270 -193 276 -197 c 0,6,7
 352 -256 352 -256 399 -256 c 0,8,9
 450 -256 450 -256 485 -194.5 c 128,-1,10
 520 -133 520 -133 520 -27 c 0,11,12
 520 139 520 139 444 209 c 0,13,14
 383 262 383 262 285 233 c 0,15,16
 256 225 256 225 248 262 c 128,-1,17
 240 299 240 299 256 309 c 0,18,19
 498 459 498 459 498 641 c 0,20,21
 498 711 498 711 465 746.5 c 128,-1,22
 432 782 432 782 377 782 c 0,23,24
 338 782 338 782 305 767 c 128,-1,25
 272 752 272 752 254 731.5 c 128,-1,26
 236 711 236 711 216.5 692.5 c 128,-1,27
 197 674 197 674 185.5 669 c 128,-1,28
 174 664 174 664 154 676 c 1,29,30
 131 699 131 699 139 723 c 0,31,32
 245 938 245 938 434 938 c 0,33,34
 536 938 536 938 606 863 c 128,-1,35
 676 788 676 788 676 682 c 0,36,37
 676 647 676 647 669 617.5 c 128,-1,38
 662 588 662 588 655.5 569.5 c 128,-1,39
 649 551 649 551 627.5 524.5 c 128,-1,40
 606 498 606 498 598 488.5 c 128,-1,41
 590 479 590 479 557 448.5 c 128,-1,42
 524 418 524 418 514 410 c 0,43,44
 502 395 502 395 518 391 c 0,45,46
 559 377 559 377 582 358 c 0,47,48
 707 252 707 252 707 104 c 0,49,50
 707 -86 707 -86 588 -227.5 c 128,-1,51
 469 -369 469 -369 305 -369 c 0,52,53
 217 -369 217 -369 164 -337 c 128,-1,54
 111 -305 111 -305 111 -244 c 0,0,1
EndSplineSet
Validated: 33
EndChar

StartChar: four
Encoding: 52 52 23
Width: 1001
GlyphClass: 2
Flags: W
LayerCount: 2
Fore
SplineSet
55.5 23.5 m 128,-1,1
 51 51 51 51 61 66 c 2,2,-1
 618 915 l 2,3,4
 622 923 622 923 637 930 c 0,5,6
 662 940 662 940 684 936 c 0,7,8
 700 930 700 930 700 920 c 2,9,-1
 700 160 l 2,10,11
 702 144 702 144 719 135 c 1,12,-1
 899 137 l 2,13,14
 905 135 905 135 910 135 c 128,-1,15
 915 135 915 135 918.5 134 c 128,-1,16
 922 133 922 133 925 131 c 128,-1,17
 928 129 928 129 930 124 c 128,-1,18
 932 119 932 119 934 108.5 c 128,-1,19
 936 98 936 98 936 29 c 0,20,21
 936 -16 936 -16 891 -8 c 1,22,-1
 717 -6 l 2,23,24
 715 -6 715 -6 707.5 -12 c 128,-1,25
 700 -18 700 -18 700 -20 c 0,26,27
 706 -151 706 -151 700 -315 c 0,28,29
 700 -317 700 -317 701 -326.5 c 128,-1,30
 702 -336 702 -336 701 -341 c 128,-1,31
 700 -346 700 -346 698 -352 c 128,-1,32
 696 -358 696 -358 689 -361.5 c 128,-1,33
 682 -365 682 -365 672 -365 c 2,34,-1
 557 -365 l 2,35,36
 539 -367 539 -367 525.5 -356.5 c 128,-1,37
 512 -346 512 -346 512 -336 c 0,38,39
 512 -313 512 -313 513 -192.5 c 128,-1,40
 514 -72 514 -72 514 -23 c 0,41,42
 514 -19 514 -19 505 -12.5 c 128,-1,43
 496 -6 496 -6 485 -6 c 2,44,-1
 76 -6 l 2,45,0
 60 -4 60 -4 55.5 23.5 c 128,-1,1
227 147 m 2,46,47
 225 143 225 143 234.5 139 c 128,-1,48
 244 135 244 135 250 135 c 0,49,50
 273 131 273 131 380 133 c 128,-1,51
 487 135 487 135 496 135 c 0,52,53
 502 135 502 135 509 145.5 c 128,-1,54
 516 156 516 156 516 168 c 0,55,56
 514 279 514 279 522 567 c 0,57,58
 522 603 522 603 508 580 c 2,59,-1
 227 147 l 2,46,47
EndSplineSet
Validated: 33
EndChar

StartChar: five
Encoding: 53 53 24
Width: 894
GlyphClass: 2
Flags: W
LayerCount: 2
Fore
SplineSet
88 -268 m 0,0,1
 88 -231 88 -231 111.5 -205.5 c 128,-1,2
 135 -180 135 -180 170 -180 c 0,3,4
 195 -180 195 -180 225 -193 c 0,5,6
 334 -232 334 -232 367 -231 c 0,7,8
 445 -231 445 -231 505 -156.5 c 128,-1,9
 565 -82 565 -82 565 23 c 0,10,11
 565 99 565 99 529.5 170.5 c 128,-1,12
 494 242 494 242 428 304.5 c 128,-1,13
 362 367 362 367 304 410 c 128,-1,14
 246 453 246 453 168 502 c 0,15,16
 135 522 135 522 164 559 c 0,17,18
 316 772 316 772 446 913 c 0,19,20
 462 931 462 931 483 930 c 2,21,-1
 709 903 l 2,22,23
 738 899 738 899 749 890 c 128,-1,24
 760 881 760 881 752 856 c 0,25,26
 748 838 748 838 722 799 c 128,-1,27
 696 760 696 760 684 748 c 0,28,29
 668 732 668 732 641 731 c 1,30,-1
 455 756 l 2,31,32
 437 756 437 756 430 745 c 2,33,-1
 352 647 l 2,34,35
 334 627 334 627 336 621 c 0,36,37
 340 619 340 619 352 610 c 0,38,39
 446 549 446 549 539 461 c 0,40,41
 734 277 734 277 733 86 c 0,42,43
 733 -125 733 -125 518 -266 c 0,44,45
 373 -362 373 -362 203 -362 c 0,46,47
 154 -362 154 -362 121 -337.5 c 128,-1,48
 88 -313 88 -313 88 -268 c 0,0,1
EndSplineSet
Validated: 33
EndChar

StartChar: six
Encoding: 54 54 25
Width: 1030
GlyphClass: 2
Flags: W
LayerCount: 2
Fore
SplineSet
92 453 m 0,0,1
 92 609 92 609 158.5 744 c 128,-1,2
 225 879 225 879 337 977 c 128,-1,3
 449 1075 449 1075 574.5 1143.5 c 128,-1,4
 700 1212 700 1212 842 1257 c 0,5,6
 881 1269 881 1269 905.5 1250 c 128,-1,7
 930 1231 930 1231 901 1190 c 1,8,9
 735 1114 735 1114 625.5 1034 c 128,-1,10
 516 954 516 954 426 831 c 0,11,12
 414 815 414 815 442 813 c 0,13,14
 458 813 458 813 467 815 c 0,15,16
 485 817 485 817 522 817 c 0,17,18
 700 817 700 817 814 702.5 c 128,-1,19
 928 588 928 588 928 408 c 0,20,21
 928 222 928 222 811 96.5 c 128,-1,22
 694 -29 694 -29 522 -29 c 0,23,24
 338 -29 338 -29 215 108.5 c 128,-1,25
 92 246 92 246 92 453 c 0,0,1
293 408 m 0,26,27
 293 238 293 238 353.5 144.5 c 128,-1,28
 414 51 414 51 516 51 c 0,29,30
 596 51 596 51 651 106 c 0,31,32
 731 186 731 186 731 375 c 0,33,34
 731 551 731 551 669 645 c 128,-1,35
 607 739 607 739 496 739 c 0,36,37
 435 739 435 739 356 702 c 1,38,39
 293 542 293 542 293 408 c 0,26,27
EndSplineSet
Validated: 1
EndChar

StartChar: seven
Encoding: 55 55 26
Width: 1001
GlyphClass: 2
Flags: W
LayerCount: 2
Fore
SplineSet
86 557 m 2,0,-1
 127 862 l 1,1,2
 143 905 143 905 199 905 c 0,3,4
 523 917 523 917 842 905 c 0,5,6
 889 905 889 905 897 891 c 1,7,-1
 897 844 l 1,8,9
 592 39 592 39 412 -332 c 0,10,11
 398 -369 398 -369 373 -367 c 2,12,-1
 295 -356 l 2,13,14
 279 -354 279 -354 266.5 -341 c 128,-1,15
 254 -328 254 -328 264 -307 c 2,16,-1
 719 715 l 2,17,18
 721 721 721 721 713 729 c 128,-1,19
 705 737 705 737 698 735 c 0,20,21
 628 735 628 735 480 734 c 128,-1,22
 332 733 332 733 281 731 c 0,23,24
 254 731 254 731 241.5 728 c 128,-1,25
 229 725 229 725 215 704.5 c 128,-1,26
 201 684 201 684 188 639 c 2,27,-1
 164 537 l 1,28,29
 158 531 158 531 138.5 526.5 c 128,-1,30
 119 522 119 522 101.5 529.5 c 128,-1,31
 84 537 84 537 86 557 c 2,0,-1
EndSplineSet
Validated: 33
EndChar

StartChar: eight
Encoding: 56 56 27
Width: 950
GlyphClass: 2
Flags: W
LayerCount: 2
Fore
SplineSet
131 291 m 0,0,1
 131 393 131 393 186.5 462.5 c 128,-1,2
 242 532 242 532 342 598 c 0,3,4
 371 614 371 614 352 629 c 0,5,6
 176 770 176 770 176 956 c 0,7,8
 176 1089 176 1089 267 1173 c 128,-1,9
 358 1257 358 1257 502 1257 c 0,10,11
 637 1257 637 1257 726 1177.5 c 128,-1,12
 815 1098 815 1098 815 971 c 0,13,14
 815 883 815 883 773 815.5 c 128,-1,15
 731 748 731 748 637 684 c 0,16,17
 623 674 623 674 639 657 c 0,18,19
 758 557 758 557 808 479 c 128,-1,20
 858 401 858 401 858 305 c 0,21,22
 858 162 858 162 750.5 66.5 c 128,-1,23
 643 -29 643 -29 489 -29 c 0,24,25
 339 -29 339 -29 235 61.5 c 128,-1,26
 131 152 131 152 131 291 c 0,0,1
297 295 m 0,27,28
 297 195 297 195 355.5 127 c 128,-1,29
 414 59 414 59 504 59 c 0,30,31
 582 59 582 59 633 110.5 c 128,-1,32
 684 162 684 162 684 240 c 0,33,34
 684 324 684 324 636 389.5 c 128,-1,35
 588 455 588 455 461 547 c 0,36,37
 438 565 438 565 422 557 c 0,38,39
 297 469 297 469 297 295 c 0,27,28
324 1024 m 0,40,41
 324 889 324 889 545 729 c 0,42,43
 553 723 553 723 575 735 c 0,44,45
 612 760 612 760 625 784 c 0,46,47
 670 852 670 852 670 950 c 0,48,49
 670 1056 670 1056 621 1117 c 128,-1,50
 572 1178 572 1178 492 1178 c 0,51,52
 416 1178 416 1178 370 1135 c 128,-1,53
 324 1092 324 1092 324 1024 c 0,40,41
EndSplineSet
Validated: 1
EndChar

StartChar: nine
Encoding: 57 57 28
Width: 1001
GlyphClass: 2
Flags: W
LayerCount: 2
Fore
SplineSet
72 508 m 0,0,1
 72 692 72 692 188.5 813 c 128,-1,2
 305 934 305 934 479 934 c 0,3,4
 665 934 665 934 786 791.5 c 128,-1,5
 907 649 907 649 907 438 c 0,6,7
 907 268 907 268 845.5 129 c 128,-1,8
 784 -10 784 -10 673.5 -104.5 c 128,-1,9
 563 -199 563 -199 433 -260 c 128,-1,10
 303 -321 303 -321 143 -360 c 0,11,12
 116 -366 116 -366 99 -348 c 128,-1,13
 82 -330 82 -330 84 -306.5 c 128,-1,14
 86 -283 86 -283 106 -274 c 0,15,16
 473 -139 473 -139 602 68 c 0,17,18
 620 97 620 97 612 106 c 0,19,20
 610 106 610 106 608 106 c 0,21,22
 520 86 520 86 471 86 c 0,23,24
 303 86 303 86 187.5 210 c 128,-1,25
 72 334 72 334 72 508 c 0,0,1
268 528 m 0,26,27
 268 352 268 352 331.5 258 c 128,-1,28
 395 164 395 164 504 164 c 0,29,30
 574 164 574 164 643 199 c 0,31,32
 668 211 668 211 676 244 c 0,33,34
 709 357 709 357 709 502 c 0,35,36
 709 672 709 672 648 763 c 128,-1,37
 587 854 587 854 487 854 c 0,38,39
 403 854 403 854 351 799.5 c 128,-1,40
 299 745 299 745 283.5 678.5 c 128,-1,41
 268 612 268 612 268 528 c 0,26,27
EndSplineSet
Validated: 1
EndChar

StartChar: colon
Encoding: 58 58 29
Width: 526
GlyphClass: 2
Flags: W
LayerCount: 2
Fore
SplineSet
156 92 m 0,0,1
 156 141 156 141 186.5 172 c 128,-1,2
 217 203 217 203 264 203 c 128,-1,3
 311 203 311 203 342 172 c 128,-1,4
 373 141 373 141 373 92 c 128,-1,5
 373 43 373 43 342 11.5 c 128,-1,6
 311 -20 311 -20 264 -20 c 0,7,8
 219 -20 219 -20 187.5 12.5 c 128,-1,9
 156 45 156 45 156 92 c 0,0,1
156 708.5 m 128,-1,11
 156 758 156 758 186.5 789.5 c 128,-1,12
 217 821 217 821 264 821 c 128,-1,13
 311 821 311 821 342 789.5 c 128,-1,14
 373 758 373 758 373 708.5 c 128,-1,15
 373 659 373 659 342 628.5 c 128,-1,16
 311 598 311 598 264 598 c 128,-1,17
 217 598 217 598 186.5 628.5 c 128,-1,10
 156 659 156 659 156 708.5 c 128,-1,11
EndSplineSet
Validated: 1
EndChar

StartChar: semicolon
Encoding: 59 59 30
Width: 471
GlyphClass: 2
Flags: W
LayerCount: 2
Fore
SplineSet
129 78 m 0,0,1
 129 127 129 127 163 160 c 128,-1,2
 197 193 197 193 246 193 c 0,3,4
 309 193 309 193 350 142.5 c 128,-1,5
 391 92 391 92 391 16 c 0,6,7
 391 -80 391 -80 330.5 -167 c 128,-1,8
 270 -254 270 -254 174 -295 c 0,9,10
 147 -303 147 -303 134 -267 c 128,-1,11
 121 -231 121 -231 145 -219 c 0,12,13
 274 -137 274 -137 274 -43 c 0,14,15
 274 -27 274 -27 272 -27 c 0,16,17
 264 -27 264 -27 248.5 -30 c 128,-1,18
 233 -33 233 -33 225 -33 c 0,19,20
 184 -33 184 -33 156.5 0 c 128,-1,21
 129 33 129 33 129 78 c 0,0,1
131 704.5 m 128,-1,23
 131 754 131 754 163 785.5 c 128,-1,24
 195 817 195 817 242 817 c 128,-1,25
 289 817 289 817 321.5 785.5 c 128,-1,26
 354 754 354 754 354 704.5 c 128,-1,27
 354 655 354 655 321.5 623.5 c 128,-1,28
 289 592 289 592 242 592 c 128,-1,29
 195 592 195 592 163 623.5 c 128,-1,22
 131 655 131 655 131 704.5 c 128,-1,23
EndSplineSet
Validated: 1
EndChar

StartChar: less
Encoding: 60 60 31
Width: 1429
GlyphClass: 2
Flags: W
LayerCount: 2
Fore
SplineSet
143 670 m 1,0,1
 137 690 137 690 143 723 c 1,2,3
 143 758 143 758 174 770 c 0,4,5
 833 1061 833 1061 1223 1217 c 0,6,7
 1264 1231 1264 1231 1277 1210.5 c 128,-1,8
 1290 1190 1290 1190 1290 1143 c 2,9,-1
 1290 1112 l 2,10,11
 1290 1077 1290 1077 1239 1055 c 0,12,13
 573 774 573 774 410 709 c 0,14,15
 398 705 398 705 394.5 696.5 c 128,-1,16
 391 688 391 688 406 680 c 0,17,18
 949 449 949 449 1255 328 c 0,19,20
 1290 314 1290 314 1290 270 c 2,21,-1
 1290 227 l 2,22,23
 1290 147 1290 147 1212 174 c 0,24,25
 854 307 854 307 172 621 c 0,26,27
 143 633 143 633 143 670 c 1,0,1
EndSplineSet
Validated: 33
EndChar

StartChar: equal
Encoding: 61 61 32
Width: 1429
GlyphClass: 2
Flags: W
LayerCount: 2
Fore
SplineSet
139 434 m 2,0,-1
 139 498 l 2,1,2
 139 523 139 523 150.5 534 c 128,-1,3
 162 545 162 545 177.5 544 c 128,-1,4
 193 543 193 543 207 543 c 0,5,6
 463 539 463 539 1243 539 c 0,7,8
 1263 539 1263 539 1278.5 528.5 c 128,-1,9
 1294 518 1294 518 1292 492 c 2,10,-1
 1290 434 l 2,11,12
 1288 403 1288 403 1277 392 c 128,-1,13
 1266 381 1266 381 1227 381 c 2,14,-1
 205 381 l 2,15,16
 182 381 182 381 170 384 c 128,-1,17
 158 387 158 387 148.5 399.5 c 128,-1,18
 139 412 139 412 139 434 c 2,0,-1
145 977 m 1,19,20
 153 1010 153 1010 199 1010 c 0,21,22
 232 1010 232 1010 661 1011 c 128,-1,23
 1090 1012 1090 1012 1237 1016 c 0,24,25
 1270 1018 1270 1018 1280 998.5 c 128,-1,26
 1290 979 1290 979 1290 942 c 0,27,28
 1290 938 1290 938 1291 922.5 c 128,-1,29
 1292 907 1292 907 1292 899 c 0,30,31
 1292 881 1292 881 1289 871.5 c 128,-1,32
 1286 862 1286 862 1274 858 c 128,-1,33
 1262 854 1262 854 1258 854 c 128,-1,34
 1254 854 1254 854 1229 854 c 2,35,-1
 199 854 l 2,36,37
 170 852 170 852 161 864.5 c 128,-1,38
 152 877 152 877 147 901 c 1,39,-1
 145 977 l 1,19,20
EndSplineSet
Validated: 1
EndChar

StartChar: greater
Encoding: 62 62 33
Width: 1429
GlyphClass: 2
Flags: W
LayerCount: 2
Fore
SplineSet
141 270 m 0,0,1
 141 313 141 313 176 328 c 0,2,3
 637 512 637 512 1026 680 c 0,4,5
 1036 684 1036 684 1035 694.5 c 128,-1,6
 1034 705 1034 705 1022 709 c 0,7,8
 737 832 737 832 193 1055 c 0,9,10
 189 1057 189 1057 180.5 1060 c 128,-1,11
 172 1063 172 1063 170 1064 c 128,-1,12
 168 1065 168 1065 162 1068 c 128,-1,13
 156 1071 156 1071 155 1073 c 128,-1,14
 154 1075 154 1075 150.5 1079 c 128,-1,15
 147 1083 147 1083 146 1088.5 c 128,-1,16
 145 1094 145 1094 144 1101 c 128,-1,17
 143 1108 143 1108 143 1116 c 2,18,-1
 143 1151 l 2,19,20
 143 1196 143 1196 159.5 1213.5 c 128,-1,21
 176 1231 176 1231 209 1217 c 0,22,23
 752 992 752 992 1247 774 c 0,24,25
 1288 758 1288 758 1288 723 c 1,26,27
 1294 690 1294 690 1290 672 c 1,28,29
 1290 649 1290 649 1281 637.5 c 128,-1,30
 1272 626 1272 626 1241 612 c 0,31,32
 999 501 999 501 219 174 c 0,33,34
 143 141 143 141 143 227 c 0,35,36
 143 235 143 235 142 249.5 c 128,-1,37
 141 264 141 264 141 270 c 0,0,1
EndSplineSet
Validated: 33
EndChar

StartChar: question
Encoding: 63 63 34
Width: 741
GlyphClass: 2
Flags: W
LayerCount: 2
Fore
SplineSet
86 1249 m 0,0,1
 86 1312 86 1312 141.5 1342 c 128,-1,2
 197 1372 197 1372 287 1372 c 0,3,4
 453 1372 453 1372 559.5 1260.5 c 128,-1,5
 666 1149 666 1149 666 973 c 0,6,7
 666 770 666 770 514 664 c 0,8,9
 451 621 451 621 371 590 c 0,10,11
 326 574 326 574 310.5 557.5 c 128,-1,12
 295 541 295 541 295 516 c 0,13,14
 295 469 295 469 377 369 c 0,15,16
 383 361 383 361 376 347.5 c 128,-1,17
 369 334 369 334 360 330 c 0,18,19
 344 326 344 326 321.5 332 c 128,-1,20
 299 338 299 338 289 350 c 0,21,22
 183 483 183 483 182 584 c 0,23,24
 182 662 182 662 221 707 c 128,-1,25
 260 752 260 752 350 786 c 0,26,27
 477 835 477 835 521 881.5 c 128,-1,28
 565 928 565 928 565 1003.5 c 128,-1,29
 565 1079 565 1079 517 1121 c 128,-1,30
 469 1163 469 1163 379 1163 c 0,31,32
 350 1163 350 1163 300 1156 c 128,-1,33
 250 1149 250 1149 225 1149 c 0,34,35
 86 1149 86 1149 86 1249 c 0,0,1
193 88 m 128,-1,37
 193 141 193 141 229.5 175 c 128,-1,38
 266 209 266 209 319 209 c 0,39,40
 374 209 374 209 410 175 c 128,-1,41
 446 141 446 141 446 88 c 128,-1,42
 446 35 446 35 409.5 0 c 128,-1,43
 373 -35 373 -35 319.5 -35 c 128,-1,44
 266 -35 266 -35 229.5 0 c 128,-1,36
 193 35 193 35 193 88 c 128,-1,37
EndSplineSet
Validated: 1
EndChar

StartChar: at
Encoding: 64 64 35
Width: 1966
GlyphClass: 2
Flags: W
LayerCount: 2
Fore
SplineSet
233 565 m 0,0,1
 233 925 233 925 478 1176 c 128,-1,2
 723 1427 723 1427 1069 1427 c 0,3,4
 1352 1427 1352 1427 1533 1265.5 c 128,-1,5
 1714 1104 1714 1104 1714 838 c 0,6,7
 1714 582 1714 582 1562.5 385 c 128,-1,8
 1411 188 1411 188 1208 188 c 0,9,10
 1056 188 1056 188 1057 332 c 0,11,12
 1057 371 1057 371 1053 369 c 0,13,14
 1049 369 1049 369 1042 362 c 0,15,16
 890 188 890 188 758 188 c 0,17,18
 682 188 682 188 631 253.5 c 128,-1,19
 580 319 580 319 580 412 c 0,20,21
 580 531 580 531 633 662 c 128,-1,22
 686 793 686 793 782 891 c 0,23,24
 921 1036 921 1036 1055 1036 c 0,25,26
 1141 1036 1141 1036 1188 977 c 0,27,28
 1200 963 1200 963 1202 969 c 0,29,30
 1220 1012 1220 1012 1231.5 1021 c 128,-1,31
 1243 1030 1243 1030 1282 1034 c 1,32,-1
 1364 1034 l 2,33,34
 1397 1034 1397 1034 1397 999 c 1,35,36
 1391 981 1391 981 1274 561 c 0,37,38
 1264 522 1264 522 1251.5 483 c 128,-1,39
 1239 444 1239 444 1235 430 c 128,-1,40
 1231 416 1231 416 1228 398.5 c 128,-1,41
 1225 381 1225 381 1223 360 c 0,42,43
 1219 294 1219 294 1266 295 c 0,44,45
 1307 295 1307 295 1361 327.5 c 128,-1,46
 1415 360 1415 360 1458 412 c 0,47,48
 1614 600 1614 600 1614 831 c 0,49,50
 1614 1052 1614 1052 1461.5 1195.5 c 128,-1,51
 1309 1339 1309 1339 1075 1339 c 0,52,53
 778 1339 778 1339 570 1108 c 128,-1,54
 362 877 362 877 362 543 c 0,55,56
 362 256 362 256 552.5 72.5 c 128,-1,57
 743 -111 743 -111 1010 -111 c 0,58,59
 1235 -111 1235 -111 1404 2 c 128,-1,60
 1573 115 1573 115 1669 332 c 0,61,62
 1677 346 1677 346 1680 351 c 128,-1,63
 1683 356 1683 356 1692.5 360.5 c 128,-1,64
 1702 365 1702 365 1718 365 c 0,65,66
 1720 365 1720 365 1728.5 363.5 c 128,-1,67
 1737 362 1737 362 1739 362 c 0,68,69
 1772 356 1772 356 1759 319 c 0,70,71
 1675 73 1675 73 1470.5 -71 c 128,-1,72
 1266 -215 1266 -215 1006 -215 c 0,73,74
 678 -215 678 -215 455.5 7 c 128,-1,75
 233 229 233 229 233 565 c 0,0,1
760 438 m 0,76,77
 760 393 760 393 783.5 364.5 c 128,-1,78
 807 336 807 336 836 336 c 0,79,80
 932 336 932 336 1044 487 c 0,81,82
 1159 639 1159 639 1159 844 c 0,83,84
 1159 893 1159 893 1130.5 922.5 c 128,-1,85
 1102 952 1102 952 1063 952 c 0,86,87
 1000 952 1000 952 940 881 c 0,88,89
 864 791 864 791 812 658.5 c 128,-1,90
 760 526 760 526 760 438 c 0,76,77
EndSplineSet
Validated: 33
EndChar

StartChar: A
Encoding: 65 65 36
Width: 1456
GlyphClass: 2
Flags: W
LayerCount: 2
Fore
SplineSet
29 68 m 0,0,1
 35 93 35 93 57 92 c 0,2,3
 131 92 131 92 153.5 106.5 c 128,-1,4
 176 121 176 121 205 188 c 2,5,-1
 238 270 l 1,6,-1
 614 1296 l 1,7,-1
 602 1346 l 2,8,9
 598 1356 598 1356 610.5 1365 c 128,-1,10
 623 1374 623 1374 643 1376 c 2,11,-1
 709 1376 l 2,12,13
 787 1376 787 1376 805 1350 c 1,14,15
 909 1078 909 1078 994 852.5 c 128,-1,16
 1079 627 1079 627 1123 511 c 128,-1,17
 1167 395 1167 395 1184 352 c 0,18,19
 1221 246 1221 246 1239 195 c 0,20,21
 1264 125 1264 125 1286.5 105.5 c 128,-1,22
 1309 86 1309 86 1372 86 c 2,23,-1
 1386 86 l 2,24,25
 1404 86 1404 86 1412 62 c 0,26,27
 1416 50 1416 50 1415 38 c 0,28,29
 1415 28 1415 28 1412 16 c 0,30,31
 1405 -8 1405 -8 1384 -8 c 0,32,33
 1257 -2 1257 -2 1105 -2 c 0,34,35
 983 -2 983 -2 846 -6 c 0,36,37
 811 -6 811 -6 811 45 c 0,38,39
 811 92 811 92 864 92 c 0,40,41
 884 92 884 92 911 93 c 128,-1,42
 938 94 938 94 948 94 c 0,43,44
 998 96 998 96 1012 118 c 0,45,46
 1019 128 1019 128 1018 143 c 0,47,48
 1018 160 1018 160 1010 182 c 0,49,50
 947 348 947 348 872 551 c 0,51,52
 864 569 864 569 829 569 c 2,53,-1
 524 569 l 2,54,55
 501 571 501 571 483 543 c 1,56,57
 448 443 448 443 356 195 c 0,58,59
 346 164 346 164 346 133 c 128,-1,60
 346 102 346 102 389 94 c 0,61,62
 418 89 418 89 447 89 c 0,63,64
 462 89 462 89 477 90 c 0,65,66
 495 92 495 92 518 90 c 0,67,68
 543 86 543 86 543 39 c 0,69,70
 541 23 541 23 532.5 8.5 c 128,-1,71
 524 -6 524 -6 518 -6 c 0,72,73
 349 -3 349 -3 239.5 -3 c 128,-1,74
 130 -3 130 -3 80 -6 c 2,75,-1
 57 -6 l 1,76,77
 26 0 26 0 26 40 c 0,78,79
 26 52 26 52 29 68 c 0,0,1
549 722 m 2,80,81
 549 716 549 716 563 707 c 1,82,83
 625 709 625 709 682.5 709 c 128,-1,84
 740 709 740 709 793 707 c 0,85,86
 797 707 797 707 801 716 c 0,87,88
 804 722 804 722 804 728 c 0,89,90
 804 731 804 731 803 733 c 0,91,92
 750 872 750 872 692 1067 c 0,93,94
 688 1076 688 1076 684 1076 c 0,95,96
 677 1076 677 1076 668 1049 c 2,97,-1
 549 722 l 2,80,81
EndSplineSet
Validated: 1
EndChar

StartChar: B
Encoding: 66 66 37
Width: 1343
GlyphClass: 2
Flags: W
LayerCount: 2
Fore
SplineSet
43 40 m 0,0,1
 47 84 47 84 66 90 c 1,2,3
 107 94 107 94 119 92 c 0,4,5
 234 92 234 92 262.5 124 c 128,-1,6
 291 156 291 156 291 279 c 2,7,-1
 291 1049 l 2,8,9
 291 1123 291 1123 286 1160.5 c 128,-1,10
 281 1198 281 1198 258.5 1216.5 c 128,-1,11
 236 1235 236 1235 213 1238 c 128,-1,12
 190 1241 190 1241 133 1241 c 2,13,-1
 86 1241 l 2,14,15
 66 1241 66 1241 67 1286 c 128,-1,16
 68 1331 68 1331 86 1333 c 0,17,18
 242 1351 242 1351 678 1352 c 0,19,20
 805 1352 805 1352 861.5 1340.5 c 128,-1,21
 918 1329 918 1329 995 1294 c 0,22,23
 1081 1255 1081 1255 1131.5 1182.5 c 128,-1,24
 1182 1110 1182 1110 1182 1024 c 0,25,26
 1182 948 1182 948 1137 881.5 c 128,-1,27
 1092 815 1092 815 1018 776 c 0,28,29
 985 759 985 759 1022 741 c 0,30,31
 1133 688 1133 688 1196.5 603 c 128,-1,32
 1260 518 1260 518 1260 412 c 0,33,34
 1260 269 1260 269 1166.5 154 c 128,-1,35
 1073 39 1073 39 938 12 c 0,36,37
 832 -9 832 -9 714 -9 c 0,38,39
 690 -9 690 -9 666 -8 c 0,40,41
 508 -5 508 -5 359 -5 c 128,-1,42
 210 -5 210 -5 70 -8 c 1,43,44
 43 -4 43 -4 43 30 c 0,45,46
 43 35 43 35 43 40 c 0,0,1
518 365 m 2,47,48
 518 259 518 259 528 207 c 0,49,50
 538 152 538 152 583.5 126 c 128,-1,51
 629 100 629 100 731 100 c 0,52,53
 856 100 856 100 936 186 c 128,-1,54
 1016 272 1016 272 1016 399 c 0,55,56
 1016 481 1016 481 977 552 c 128,-1,57
 938 623 938 623 868 662 c 0,58,59
 831 685 831 685 787 695 c 0,60,61
 742 705 742 705 718 707 c 0,62,63
 706 708 706 708 684 708 c 0,64,65
 664 708 664 708 632 707 c 0,66,67
 570 705 570 705 553 705 c 0,68,69
 539 703 539 703 528.5 686.5 c 128,-1,70
 518 670 518 670 518 655 c 2,71,-1
 518 365 l 2,47,48
518 827 m 2,72,73
 518 819 518 819 527.5 812 c 128,-1,74
 537 805 537 805 546 802 c 128,-1,75
 555 799 555 799 557 799 c 0,76,77
 573 799 573 799 614 798 c 0,78,79
 634 798 634 798 650 798 c 128,-1,80
 666 798 666 798 676 798 c 0,81,82
 698 799 698 799 731 801 c 128,-1,83
 764 803 764 803 791.5 810 c 128,-1,84
 819 817 819 817 846 827 c 0,85,86
 944 870 944 870 944 1012 c 0,87,88
 944 1138 944 1138 862 1208 c 0,89,90
 802 1258 802 1258 710 1268 c 0,91,92
 670 1272 670 1272 632 1273 c 0,93,94
 585 1273 585 1273 545 1266 c 0,95,96
 518 1258 518 1258 518 1229 c 2,97,-1
 518 827 l 2,72,73
EndSplineSet
Validated: 1
EndChar

StartChar: C
Encoding: 67 67 38
Width: 1560
GlyphClass: 2
Flags: W
LayerCount: 2
Fore
SplineSet
109 649 m 0,0,1
 109 964 109 964 320.5 1163 c 128,-1,2
 532 1362 532 1362 866 1362 c 0,3,4
 1016 1362 1016 1362 1200 1292 c 0,5,6
 1238 1278 1238 1278 1261 1278 c 0,7,8
 1279 1278 1279 1278 1288 1286 c 0,9,10
 1298 1294 1298 1294 1325 1291 c 128,-1,11
 1352 1288 1352 1288 1356 1278 c 0,12,13
 1375 1193 1375 1193 1375 1123 c 0,14,15
 1375 1108 1375 1108 1374 1094 c 2,16,-1
 1374 971 l 1,17,18
 1368 944 1368 944 1336.5 937 c 128,-1,19
 1305 930 1305 930 1292 950 c 1,20,21
 1186 1261 1186 1261 879 1262 c 0,22,23
 639 1262 639 1262 502 1109 c 128,-1,24
 365 956 365 956 365 692 c 0,25,26
 365 422 365 422 517.5 246 c 128,-1,27
 670 70 670 70 907 70 c 0,28,29
 1087 70 1087 70 1229 197 c 0,30,31
 1268 232 1268 232 1287.5 259.5 c 128,-1,32
 1307 287 1307 287 1346 354 c 0,33,34
 1352 368 1352 368 1376 374 c 0,35,36
 1400 378 1400 378 1418 370 c 0,37,38
 1433 363 1433 363 1433 350 c 0,39,40
 1433 347 1433 347 1432 344 c 0,41,42
 1376 166 1376 166 1284 12 c 1,43,44
 1251 20 1251 20 1233 20 c 0,45,46
 1172 20 1172 20 1079 -10 c 0,47,48
 991 -39 991 -39 844 -39 c 0,49,50
 520 -39 520 -39 314.5 155.5 c 128,-1,51
 109 350 109 350 109 649 c 0,0,1
EndSplineSet
Validated: 1
EndChar

StartChar: D
Encoding: 68 68 39
Width: 1583
GlyphClass: 2
Flags: W
LayerCount: 2
Fore
SplineSet
30 1282 m 0,0,1
 34 1323 34 1323 49 1329 c 0,2,3
 51 1331 51 1331 56 1331 c 128,-1,4
 61 1331 61 1331 63 1333 c 0,5,6
 469 1349 469 1349 659 1350 c 0,7,8
 856 1350 856 1350 987 1316 c 128,-1,9
 1118 1282 1118 1282 1229 1204 c 0,10,11
 1479 1024 1479 1024 1479 709 c 0,12,13
 1479 478 1479 478 1337.5 289 c 128,-1,14
 1196 100 1196 100 973 37 c 0,15,16
 819 -6 819 -6 571 -6 c 2,17,-1
 88 -8 l 2,18,19
 41 -8 41 -8 33 18 c 0,20,21
 27 37 27 37 27 52 c 0,22,23
 27 84 27 84 57 94 c 0,24,25
 71 96 71 96 103 98 c 128,-1,26
 135 100 135 100 152.5 103 c 128,-1,27
 170 106 170 106 189.5 121.5 c 128,-1,28
 209 137 209 137 219 164 c 0,29,30
 227 189 227 189 227 281 c 2,31,-1
 227 1049 l 2,32,33
 227 1182 227 1182 206.5 1211.5 c 128,-1,34
 186 1241 186 1241 70 1241 c 2,35,-1
 51 1241 l 2,36,37
 29 1241 29 1241 29 1273 c 0,38,39
 30 1277 30 1277 30 1282 c 0,0,1
453 217 m 2,40,41
 453 145 453 145 479.5 118.5 c 128,-1,42
 506 92 506 92 596 92 c 0,43,44
 893 92 893 92 1063 232.5 c 128,-1,45
 1233 373 1233 373 1233 676 c 0,46,47
 1233 823 1233 823 1180.5 947 c 128,-1,48
 1128 1071 1128 1071 1034 1143 c 0,49,50
 966 1194 966 1194 898.5 1217.5 c 128,-1,51
 831 1241 831 1241 715 1253 c 0,52,53
 650 1259 650 1259 579 1259 c 0,54,55
 536 1259 536 1259 492 1257 c 0,56,57
 478 1255 478 1255 465.5 1243 c 128,-1,58
 453 1231 453 1231 453 1217 c 2,59,-1
 453 217 l 2,40,41
EndSplineSet
Validated: 1
EndChar

StartChar: E
Encoding: 69 69 40
Width: 1267
GlyphClass: 2
Flags: W
LayerCount: 2
Fore
SplineSet
48 47 m 0,0,1
 53 92 53 92 80 96 c 0,2,3
 94 98 94 98 166 98 c 0,4,5
 248 100 248 100 275.5 133 c 128,-1,6
 303 166 303 166 303 281 c 2,7,-1
 303 1047 l 2,8,9
 303 1160 303 1160 277.5 1198.5 c 128,-1,10
 252 1237 252 1237 158 1237 c 0,11,12
 107 1237 107 1237 92 1262 c 0,13,14
 82 1282 82 1282 100 1315 c 0,15,16
 108 1331 108 1331 145 1331 c 0,17,18
 473 1333 473 1333 696.5 1333 c 128,-1,19
 920 1333 920 1333 1040 1331 c 0,20,21
 1085 1331 1085 1331 1090 1300 c 0,22,23
 1098 1234 1098 1234 1101 1181 c 128,-1,24
 1104 1128 1104 1128 1105 1084 c 128,-1,25
 1106 1040 1106 1040 1108 1024 c 0,26,27
 1106 1010 1106 1010 1082.5 1005.5 c 128,-1,28
 1059 1001 1059 1001 1042 1008 c 0,29,30
 1019 1012 1019 1012 1020 1038 c 1,31,32
 1000 1159 1000 1159 968 1186.5 c 128,-1,33
 936 1214 936 1214 817 1217 c 0,34,35
 708 1221 708 1221 638 1221 c 0,36,37
 592 1221 592 1221 563 1219 c 0,38,39
 553 1219 553 1219 539.5 1207.5 c 128,-1,40
 526 1196 526 1196 526 1182 c 2,41,-1
 526 778 l 2,42,43
 526 747 526 747 563 748 c 2,44,-1
 774 748 l 2,45,46
 889 748 889 748 911.5 765 c 128,-1,47
 934 782 934 782 948 887 c 0,48,49
 952 897 952 897 969.5 902 c 128,-1,50
 987 907 987 907 1006.5 899 c 128,-1,51
 1026 891 1026 891 1030 866 c 0,52,53
 1032 819 1032 819 1032 752.5 c 128,-1,54
 1032 686 1032 686 1031 609 c 128,-1,55
 1030 532 1030 532 1030 505.5 c 128,-1,56
 1030 479 1030 479 1009.5 470 c 128,-1,57
 989 461 989 461 968.5 468 c 128,-1,58
 948 475 948 475 946 487 c 0,59,60
 930 587 930 587 906.5 606 c 128,-1,61
 883 625 883 625 768 627 c 2,62,-1
 569 627 l 2,63,64
 546 627 546 627 536 613.5 c 128,-1,65
 526 600 526 600 526 586 c 2,66,-1
 526 268 l 2,67,68
 526 153 526 153 543.5 135 c 128,-1,69
 561 117 561 117 676 117 c 2,70,-1
 821 117 l 2,71,72
 932 117 932 117 966.5 125 c 128,-1,73
 1001 133 1001 133 1026 162 c 0,74,75
 1071 213 1071 213 1098 319 c 0,76,77
 1104 346 1104 346 1126 350 c 0,78,79
 1134 351 1134 351 1141 351 c 0,80,81
 1177 351 1177 351 1186 334 c 0,82,83
 1190 328 1190 328 1190 312.5 c 128,-1,84
 1190 297 1190 297 1187 267.5 c 128,-1,85
 1184 238 1184 238 1180 209 c 128,-1,86
 1176 180 1176 180 1168.5 129 c 128,-1,87
 1161 78 1161 78 1157 35 c 0,88,89
 1153 -4 1153 -4 1067 -4 c 0,90,91
 841 -2 841 -2 639 -2 c 0,92,93
 336 -2 336 -2 86 -6 c 1,94,-1
 76 -4 l 2,95,96
 47 1 47 1 47 36 c 0,97,98
 47 41 47 41 48 47 c 0,0,1
EndSplineSet
Validated: 1
EndChar

StartChar: F
Encoding: 70 70 41
Width: 1112
GlyphClass: 2
Flags: W
LayerCount: 2
Fore
SplineSet
84 37 m 128,-1,1
 84 80 84 80 106 84 c 0,2,3
 190 88 190 88 216 112.5 c 128,-1,4
 242 137 242 137 242 211 c 2,5,-1
 242 1116 l 2,6,7
 242 1192 242 1192 214 1214.5 c 128,-1,8
 186 1237 186 1237 106 1241 c 0,9,10
 92 1243 92 1243 87 1266.5 c 128,-1,11
 82 1290 82 1290 90 1312 c 0,12,13
 97 1332 97 1332 114 1331 c 0,14,15
 116 1331 116 1331 117 1331 c 0,16,17
 333 1333 333 1333 548.5 1333 c 128,-1,18
 764 1333 764 1333 979 1331 c 0,19,20
 995 1331 995 1331 1009.5 1315.5 c 128,-1,21
 1024 1300 1024 1300 1022 1284 c 2,22,-1
 1016 1059 l 1,23,24
 998 1048 998 1048 975 1048 c 0,25,26
 963 1048 963 1048 950 1051 c 0,27,28
 934 1057 934 1057 934 1079 c 0,29,30
 928 1165 928 1165 891 1188.5 c 128,-1,31
 854 1212 854 1212 725 1212 c 2,32,-1
 494 1212 l 2,33,34
 471 1212 471 1212 463 1180 c 1,35,-1
 461 797 l 2,36,37
 461 791 461 791 473 781.5 c 128,-1,38
 485 772 485 772 492 772 c 0,39,40
 522 770 522 770 581.5 770 c 128,-1,41
 641 770 641 770 731 772 c 0,42,43
 840 772 840 772 866.5 786.5 c 128,-1,44
 893 801 893 801 899 868 c 0,45,46
 901 895 901 895 939 898 c 128,-1,47
 977 901 977 901 979 877 c 2,48,-1
 979 512 l 1,49,50
 975 494 975 494 940 491.5 c 128,-1,51
 905 489 905 489 901 514 c 0,52,53
 892 608 892 608 864 630 c 0,54,55
 838 651 838 651 741 651 c 0,56,57
 732 651 732 651 723 651 c 0,58,59
 667 649 667 649 612 649 c 128,-1,60
 557 649 557 649 502 651 c 0,61,62
 486 649 486 649 474.5 636 c 128,-1,63
 463 623 463 623 463 610 c 2,64,-1
 463 211 l 2,65,66
 463 135 463 135 489.5 111.5 c 128,-1,67
 516 88 516 88 600 88 c 2,68,-1
 623 88 l 1,69,70
 646 84 646 84 645 37 c 0,71,72
 645 20 645 20 637 6 c 0,73,74
 630 -6 630 -6 621 -6 c 0,75,76
 620 -6 620 -6 618 -6 c 0,77,78
 451 -4 451 -4 325.5 -4 c 128,-1,79
 200 -4 200 -4 115 -6 c 0,80,0
 84 -6 84 -6 84 37 c 128,-1,1
EndSplineSet
Validated: 1
EndChar

StartChar: G
Encoding: 71 71 42
Width: 1562
GlyphClass: 2
Flags: W
LayerCount: 2
Fore
SplineSet
113 643 m 0,0,1
 113 795 113 795 176.5 934 c 128,-1,2
 240 1073 240 1073 350 1176 c 0,3,4
 456 1276 456 1276 572 1321 c 128,-1,5
 688 1366 688 1366 848 1366 c 0,6,7
 979 1366 979 1366 1184 1305 c 0,8,9
 1219 1295 1219 1295 1243 1294 c 0,10,11
 1261 1294 1261 1294 1276 1309 c 0,12,13
 1282 1319 1282 1319 1304.5 1319 c 128,-1,14
 1327 1319 1327 1319 1331 1309 c 0,15,16
 1339 1295 1339 1295 1341 1162 c 0,17,18
 1342 1117 1342 1117 1342 1079 c 0,19,20
 1342 1002 1342 1002 1339 950 c 0,21,22
 1337 919 1337 919 1297 919.5 c 128,-1,23
 1257 920 1257 920 1253 944 c 0,24,25
 1187 1272 1187 1272 879 1272 c 0,26,27
 633 1272 633 1272 495.5 1107 c 128,-1,28
 358 942 358 942 358 653 c 0,29,30
 358 387 358 387 494.5 223 c 128,-1,31
 631 59 631 59 856 59 c 0,32,33
 973 59 973 59 1112 121 c 0,34,35
 1130 129 1130 129 1130 178 c 2,36,-1
 1130 383 l 2,37,38
 1130 457 1130 457 1101.5 479.5 c 128,-1,39
 1073 502 1073 502 985 506 c 2,40,-1
 907 508 l 2,41,42
 893 508 893 508 882.5 529.5 c 128,-1,43
 872 551 872 551 878.5 574.5 c 128,-1,44
 885 598 885 598 907 600 c 0,45,46
 1008 597 1008 597 1147 597 c 128,-1,47
 1286 597 1286 597 1464 600 c 0,48,49
 1484 600 1484 600 1492 584 c 0,50,51
 1496 574 1496 574 1496 564 c 0,52,53
 1496 559 1496 559 1495 553 c 0,54,55
 1493 539 1493 539 1482.5 525.5 c 128,-1,56
 1472 512 1472 512 1464 512 c 0,57,58
 1396 508 1396 508 1373 482.5 c 128,-1,59
 1350 457 1350 457 1348 383 c 0,60,61
 1346 328 1346 328 1346 271 c 128,-1,62
 1346 214 1346 214 1348 154 c 0,63,64
 1348 101 1348 101 1323 90 c 0,65,66
 1219 35 1219 35 1068.5 -2 c 128,-1,67
 918 -39 918 -39 791 -39 c 0,68,69
 494 -39 494 -39 303.5 154.5 c 128,-1,70
 113 348 113 348 113 643 c 0,0,1
EndSplineSet
Validated: 1
EndChar

StartChar: H
Encoding: 72 72 43
Width: 1613
GlyphClass: 2
Flags: W
LayerCount: 2
Fore
SplineSet
53 14 m 0,0,1
 48 32 48 32 48 46 c 0,2,3
 48 63 48 63 55 76 c 0,4,5
 59 86 59 86 68.5 90 c 128,-1,6
 78 94 78 94 84 95 c 128,-1,7
 90 96 90 96 105.5 95 c 128,-1,8
 121 94 121 94 125 94 c 0,9,10
 193 98 193 98 215.5 120.5 c 128,-1,11
 238 143 238 143 238 211 c 2,12,-1
 238 1116 l 2,13,14
 238 1188 238 1188 214 1213.5 c 128,-1,15
 190 1239 190 1239 125 1243 c 0,16,17
 102 1245 102 1245 96 1260 c 0,18,19
 90 1280 90 1280 95 1306.5 c 128,-1,20
 100 1333 100 1333 115 1331 c 0,21,22
 244 1325 244 1325 365 1325 c 128,-1,23
 486 1325 486 1325 600 1331 c 0,24,25
 612 1331 612 1331 629 1321 c 1,26,27
 643 1305 643 1305 635 1266 c 0,28,29
 631 1250 631 1250 600 1245 c 1,30,31
 516 1245 516 1245 486.5 1215.5 c 128,-1,32
 457 1186 457 1186 457 1116 c 2,33,-1
 457 768 l 2,34,35
 457 729 457 729 492 729 c 2,36,-1
 791 727 l 2,37,38
 891 726 891 726 960 726 c 0,39,40
 1097 726 1097 726 1106 729 c 0,41,42
 1118 729 1118 729 1136.5 741.5 c 128,-1,43
 1155 754 1155 754 1155 772 c 0,44,45
 1156 776 1156 776 1156 852 c 0,46,47
 1156 890 1156 890 1156 945 c 0,48,49
 1155 1112 1155 1112 1155 1116 c 0,50,51
 1155 1186 1155 1186 1119 1212.5 c 128,-1,52
 1083 1239 1083 1239 1012 1243 c 2,53,-1
 969 1245 l 2,54,55
 951 1247 951 1247 944.5 1270.5 c 128,-1,56
 938 1294 938 1294 946 1313 c 0,57,58
 958 1337 958 1337 990 1337 c 0,59,60
 991 1337 991 1337 993 1337 c 0,61,62
 1014 1338 1014 1338 1044 1338 c 0,63,64
 1120 1338 1120 1338 1253.5 1334 c 128,-1,65
 1387 1330 1387 1330 1455 1330 c 0,66,67
 1482 1330 1482 1330 1499 1331 c 0,68,69
 1501 1331 1501 1331 1502 1331 c 0,70,71
 1534 1331 1534 1331 1541 1290 c 0,72,73
 1548 1247 1548 1247 1516 1241 c 0,74,75
 1510 1239 1510 1239 1497 1239 c 0,76,77
 1438 1233 1438 1233 1407 1209.5 c 128,-1,78
 1376 1186 1376 1186 1374 1116 c 2,79,-1
 1374 211 l 2,80,81
 1374 148 1374 148 1406 122 c 128,-1,82
 1438 96 1438 96 1518 96 c 0,83,84
 1561 96 1561 96 1573 74 c 0,85,86
 1577 65 1577 65 1577 53 c 0,87,88
 1577 40 1577 40 1572 24 c 0,89,90
 1563 -6 1563 -6 1538 -6 c 2,91,-1
 965 -6 l 2,92,93
 934 -6 934 -6 928 20 c 0,94,95
 920 43 920 43 929 68.5 c 128,-1,96
 938 94 938 94 963 94 c 2,97,-1
 1012 94 l 2,98,99
 1092 94 1092 94 1123.5 117.5 c 128,-1,100
 1155 141 1155 141 1155 211 c 2,101,-1
 1155 586 l 2,102,103
 1153 596 1153 596 1136.5 604 c 128,-1,104
 1120 612 1120 612 1108 612 c 0,105,106
 1020 612 1020 612 917.5 612 c 128,-1,107
 815 612 815 612 687 612 c 128,-1,108
 559 612 559 612 487 612 c 0,109,110
 485 612 485 612 478 608 c 128,-1,111
 471 604 471 604 464 595 c 128,-1,112
 457 586 457 586 457 573 c 2,113,-1
 457 211 l 2,114,115
 457 137 457 137 482.5 114.5 c 128,-1,116
 508 92 508 92 590 92 c 2,117,-1
 608 92 l 2,118,119
 628 94 628 94 639.5 71.5 c 128,-1,120
 651 49 651 49 644 23.5 c 128,-1,121
 637 -2 637 -2 610 -6 c 1,122,-1
 96 -6 l 2,123,124
 61 -6 61 -6 53 14 c 0,0,1
EndSplineSet
Validated: 1
EndChar

StartChar: I
Encoding: 73 73 44
Width: 743
GlyphClass: 2
Flags: W
LayerCount: 2
Fore
SplineSet
106 35 m 0,0,1
 106 70 106 70 111 76 c 0,2,3
 119 86 119 86 156 90 c 0,4,5
 222 98 222 98 241 120.5 c 128,-1,6
 260 143 260 143 262 211 c 2,7,-1
 264 281 l 1,8,-1
 264 1047 l 1,9,-1
 262 1116 l 2,10,11
 260 1192 260 1192 242.5 1213.5 c 128,-1,12
 225 1235 225 1235 152 1243 c 0,13,14
 136 1243 136 1243 127 1247 c 0,15,16
 113 1257 113 1257 112 1281 c 128,-1,17
 111 1305 111 1305 119 1317 c 0,18,19
 129 1333 129 1333 156 1333 c 0,20,21
 329 1331 329 1331 441.5 1331 c 128,-1,22
 554 1331 554 1331 606 1333 c 0,23,24
 647 1333 647 1333 649 1300 c 0,25,26
 653 1275 653 1275 643 1260 c 1,27,28
 637 1243 637 1243 602 1243 c 0,29,30
 518 1241 518 1241 497.5 1211.5 c 128,-1,31
 477 1182 477 1182 477 1047 c 2,32,-1
 477 211 l 2,33,34
 477 168 477 168 483 143.5 c 128,-1,35
 489 119 489 119 513 108.5 c 128,-1,36
 537 98 537 98 552 96 c 128,-1,37
 567 94 567 94 618 92 c 0,38,39
 638 92 638 92 649 72 c 0,40,41
 655 58 655 58 655 41 c 0,42,43
 655 30 655 30 653 20 c 0,44,45
 647 -8 647 -8 627 -8 c 0,46,47
 505 -4 505 -4 383.5 -4 c 128,-1,48
 262 -4 262 -4 141 -8 c 0,49,50
 127 -8 127 -8 116.5 4 c 128,-1,51
 106 16 106 16 106 35 c 0,0,1
EndSplineSet
Validated: 1
EndChar

StartChar: J
Encoding: 74 74 45
Width: 663
GlyphClass: 2
Flags: W
LayerCount: 2
Fore
SplineSet
-184 -455 m 0,0,1
 -184 -412 -184 -412 -155.5 -380 c 128,-1,2
 -127 -348 -127 -348 -86 -348 c 0,3,4
 -70 -348 -70 -348 -55.5 -355 c 128,-1,5
 -41 -362 -41 -362 -18.5 -381.5 c 128,-1,6
 4 -401 4 -401 6 -403 c 2,7,-1
 25 -418 l 2,8,9
 45 -434 45 -434 55 -440 c 0,10,11
 71 -447 71 -447 88 -447 c 256,12,13
 105 -447 105 -447 122 -441 c 0,14,15
 158 -428 158 -428 178 -397 c 0,16,17
 209 -352 209 -352 218 -273.5 c 128,-1,18
 227 -195 227 -195 227 18 c 2,19,-1
 227 991 l 2,20,21
 227 1073 227 1073 225 1116 c 0,22,23
 223 1192 223 1192 195.5 1215.5 c 128,-1,24
 168 1239 168 1239 84 1239 c 0,25,26
 80 1239 80 1239 70.5 1242 c 128,-1,27
 61 1245 61 1245 59 1245 c 0,28,29
 41 1245 41 1245 33 1268.5 c 128,-1,30
 25 1292 25 1292 34 1312 c 0,31,32
 42 1331 42 1331 64 1331 c 0,33,34
 66 1331 66 1331 68 1331 c 0,35,36
 95 1331 95 1331 113 1329 c 0,37,38
 138 1329 138 1329 296 1331 c 0,39,40
 374 1332 374 1332 445 1332 c 128,-1,41
 516 1332 516 1332 580 1331 c 0,42,43
 614 1331 614 1331 614 1289 c 0,44,45
 614 1251 614 1251 596 1247 c 2,46,-1
 532 1239 l 1,47,48
 442 1233 442 1233 442 1116 c 2,49,-1
 442 152 l 2,50,51
 442 11 442 11 408.5 -148 c 128,-1,52
 375 -307 375 -307 309 -408 c 0,53,54
 190 -592 190 -592 20 -592 c 0,55,56
 -68 -592 -68 -592 -126 -554 c 128,-1,57
 -184 -516 -184 -516 -184 -455 c 0,0,1
EndSplineSet
Validated: 1
EndChar

StartChar: K
Encoding: 75 75 46
Width: 1515
GlyphClass: 2
Flags: W
LayerCount: 2
Fore
SplineSet
41 50 m 0,0,1
 45 82 45 82 74 92 c 0,2,3
 90 96 90 96 117 92 c 1,4,5
 260 92 260 92 260 211 c 2,6,-1
 260 1116 l 2,7,8
 260 1192 260 1192 231.5 1217.5 c 128,-1,9
 203 1243 203 1243 117 1243 c 2,10,-1
 76 1243 l 2,11,12
 56 1245 56 1245 47.5 1272.5 c 128,-1,13
 39 1300 39 1300 49 1315 c 1,14,15
 55 1335 55 1335 88 1335 c 0,16,17
 293 1330 293 1330 441 1330 c 0,18,19
 552 1330 552 1330 631 1333 c 0,20,21
 670 1333 670 1333 670 1290 c 0,22,23
 670 1243 670 1243 623 1243 c 0,24,25
 535 1243 535 1243 507 1218.5 c 128,-1,26
 479 1194 479 1194 479 1116 c 2,27,-1
 479 707 l 2,28,29
 479 699 479 699 485.5 693.5 c 128,-1,30
 492 688 492 688 498 690 c 0,31,32
 531 700 531 700 567 735 c 0,33,34
 659 815 659 815 776 972.5 c 128,-1,35
 893 1130 893 1130 893 1206 c 0,36,37
 893 1218 893 1218 889 1223.5 c 128,-1,38
 885 1229 885 1229 864.5 1234 c 128,-1,39
 844 1239 844 1239 799 1243 c 0,40,41
 793 1243 793 1243 786.5 1244 c 128,-1,42
 780 1245 780 1245 766 1247 c 1,43,44
 747 1261 747 1261 747 1284 c 0,45,46
 747 1298 747 1298 754 1315 c 0,47,48
 760 1338 760 1338 788 1331 c 1,49,50
 934 1327 934 1327 1060 1327 c 128,-1,51
 1186 1327 1186 1327 1294 1331 c 0,52,53
 1321 1333 1321 1333 1329 1306.5 c 128,-1,54
 1337 1280 1337 1280 1325 1262 c 0,55,56
 1315 1246 1315 1246 1292 1249 c 0,57,58
 1192 1247 1192 1247 1132.5 1221.5 c 128,-1,59
 1073 1196 1073 1196 1026 1130 c 0,60,61
 1014 1114 1014 1114 993.5 1082.5 c 128,-1,62
 973 1051 973 1051 967 1040 c 0,63,64
 881 907 881 907 739 731 c 0,65,66
 727 715 727 715 717 705 c 1,67,68
 752 687 752 687 819 618 c 1,69,70
 878 563 878 563 933.5 498.5 c 128,-1,71
 989 434 989 434 1064 339 c 128,-1,72
 1139 244 1139 244 1167 209 c 0,73,74
 1228 133 1228 133 1275.5 112.5 c 128,-1,75
 1323 92 1323 92 1419 92 c 0,76,77
 1448 92 1448 92 1456 74 c 0,78,79
 1465 61 1465 61 1465 43 c 0,80,81
 1466 36 1466 36 1464 28 c 0,82,83
 1460 0 1460 0 1430 -6 c 1,84,85
 1393 -3 1393 -3 1281 -3 c 0,86,87
 1132 -3 1132 -3 850 -8 c 1,88,89
 823 -4 823 -4 815 10 c 0,90,91
 803 37 803 37 813 66 c 0,92,93
 819 84 819 84 854 84 c 0,94,95
 907 86 907 86 928.5 103.5 c 128,-1,96
 950 121 950 121 947 137.5 c 128,-1,97
 944 154 944 154 932 168 c 0,98,99
 916 188 916 188 867.5 250.5 c 128,-1,100
 819 313 819 313 794.5 343 c 128,-1,101
 770 373 770 373 728 420 c 128,-1,102
 686 467 686 467 646 503 c 128,-1,103
 606 539 606 539 563 569 c 0,104,105
 536 589 536 589 500 598 c 0,106,107
 492 598 492 598 486.5 589 c 128,-1,108
 481 580 481 580 480 569.5 c 128,-1,109
 479 559 479 559 479 545 c 2,110,-1
 479 211 l 2,111,112
 479 143 479 143 509 116.5 c 128,-1,113
 539 90 539 90 623 90 c 0,114,115
 660 90 660 90 672 70 c 0,116,117
 676 60 676 60 676 38 c 128,-1,118
 676 16 676 16 672 6 c 0,119,120
 664 -8 664 -8 633 -8 c 0,121,122
 508 -3 508 -3 374 -3 c 128,-1,123
 240 -3 240 -3 98 -8 c 0,124,125
 59 -8 59 -8 51 4 c 0,126,127
 40 15 40 15 40 37 c 0,128,129
 40 43 40 43 41 50 c 0,0,1
EndSplineSet
Validated: 1
EndChar

StartChar: L
Encoding: 76 76 47
Width: 1218
GlyphClass: 2
Flags: W
LayerCount: 2
Fore
SplineSet
45 59 m 0,0,1
 49 86 49 86 66 92 c 0,2,3
 70 94 70 94 81 95 c 128,-1,4
 92 96 92 96 96 96 c 0,5,6
 231 96 231 96 246 168 c 1,7,8
 250 213 250 213 250 289 c 2,9,-1
 250 1116 l 2,10,11
 250 1192 250 1192 221.5 1216.5 c 128,-1,12
 193 1241 193 1241 106 1241 c 2,13,-1
 82 1241 l 2,14,15
 64 1243 64 1243 57.5 1273 c 128,-1,16
 51 1303 51 1303 63 1317 c 1,17,18
 73 1340 73 1340 104 1333 c 1,19,20
 188 1331 188 1331 297 1331 c 0,21,22
 460 1331 460 1331 676 1335 c 0,23,24
 709 1335 709 1335 715 1309 c 0,25,26
 723 1286 723 1286 715 1262.5 c 128,-1,27
 707 1239 707 1239 680 1237 c 0,28,29
 639 1233 639 1233 614 1233 c 0,30,31
 520 1229 520 1229 493.5 1212.5 c 128,-1,32
 467 1196 467 1196 467 1137 c 2,33,-1
 467 215 l 2,34,35
 467 160 467 160 497.5 138.5 c 128,-1,36
 528 117 528 117 590 117 c 2,37,-1
 760 117 l 2,38,39
 875 117 875 117 918 136.5 c 128,-1,40
 961 156 961 156 1030 248 c 2,41,-1
 1104 342 l 1,42,43
 1139 358 1139 358 1159 342 c 0,44,45
 1175 333 1175 333 1175 320 c 0,46,47
 1175 313 1175 313 1171 305 c 0,48,49
 1075 82 1075 82 1044 35 c 1,50,51
 1021 -8 1021 -8 973 -8 c 0,52,53
 625 -2 625 -2 390 -2 c 0,54,55
 202 -2 202 -2 88 -6 c 0,56,57
 55 -10 55 -10 47 20 c 0,58,59
 43 27 43 27 43 40 c 0,60,61
 43 48 43 48 45 59 c 0,0,1
EndSplineSet
Validated: 1
EndChar

StartChar: M
Encoding: 77 77 48
Width: 1929
GlyphClass: 2
Flags: W
LayerCount: 2
Fore
SplineSet
55 18 m 0,0,1
 50 30 50 30 50 42 c 128,-1,2
 50 54 50 54 56 66 c 0,3,4
 66 88 66 88 92 86 c 0,5,6
 104 85 104 85 114 85 c 0,7,8
 170 86 170 86 196 104 c 0,9,10
 226 126 226 126 236 188 c 1,11,12
 238 229 238 229 242 281 c 0,13,14
 248 375 248 375 263.5 558 c 128,-1,15
 279 741 279 741 287 886.5 c 128,-1,16
 295 1032 295 1032 295 1163 c 0,17,18
 295 1204 295 1204 276.5 1217.5 c 128,-1,19
 258 1231 258 1231 193 1237 c 0,20,21
 166 1239 166 1239 156 1255 c 1,22,23
 148 1280 148 1280 154 1303 c 0,24,25
 159 1334 159 1334 183 1334 c 0,26,27
 186 1334 186 1334 190 1333 c 0,28,29
 264 1329 264 1329 350 1329 c 0,30,31
 408 1329 408 1329 471 1331 c 0,32,33
 518 1331 518 1331 530 1305 c 2,34,-1
 950 350 l 2,35,36
 954 340 954 340 962.5 337 c 128,-1,37
 971 334 971 334 981 348 c 2,38,-1
 1395 1300 l 1,39,40
 1413 1331 1413 1331 1456 1331 c 0,41,42
 1524 1329 1524 1329 1593.5 1329 c 128,-1,43
 1663 1329 1663 1329 1733 1331 c 0,44,45
 1758 1333 1758 1333 1767 1304.5 c 128,-1,46
 1776 1276 1776 1276 1765 1257 c 0,47,48
 1759 1241 1759 1241 1743 1241 c 0,49,50
 1733 1241 1733 1241 1712.5 1239 c 128,-1,51
 1692 1237 1692 1237 1682.5 1236 c 128,-1,52
 1673 1235 1673 1235 1657.5 1231 c 128,-1,53
 1642 1227 1642 1227 1636 1219.5 c 128,-1,54
 1630 1212 1630 1212 1625 1199 c 128,-1,55
 1620 1186 1620 1186 1620 1167 c 0,56,57
 1620 1144 1620 1144 1624 1083 c 2,58,-1
 1679 285 l 2,59,60
 1687 152 1687 152 1713 120 c 128,-1,61
 1739 88 1739 88 1823 88 c 0,62,63
 1864 88 1864 88 1870 57 c 0,64,65
 1872 57 1872 57 1872 39 c 2,66,-1
 1870 20 l 2,67,68
 1864 -7 1864 -7 1829 -6 c 0,69,70
 1755 -1 1755 -1 1600 -1 c 0,71,72
 1483 -1 1483 -1 1321 -4 c 0,73,74
 1282 -4 1282 -4 1276 18 c 0,75,76
 1272 30 1272 30 1276 61 c 0,77,78
 1278 69 1278 69 1291.5 78.5 c 128,-1,79
 1305 88 1305 88 1321 88 c 0,80,81
 1423 88 1423 88 1448 126 c 0,82,83
 1465 152 1465 152 1465 214 c 0,84,85
 1465 241 1465 241 1462 274 c 0,86,87
 1462 278 1462 278 1462 284.5 c 128,-1,88
 1462 291 1462 291 1461 299 c 128,-1,89
 1460 307 1460 307 1459 326.5 c 128,-1,90
 1458 346 1458 346 1457 374.5 c 128,-1,91
 1456 403 1456 403 1453 456.5 c 128,-1,92
 1450 510 1450 510 1446 577.5 c 128,-1,93
 1442 645 1442 645 1434.5 750.5 c 128,-1,94
 1427 856 1427 856 1419 983 c 0,95,96
 1419 1008 1419 1008 1405 1010 c 0,97,98
 1401 1012 1401 1012 1399 1004 c 2,99,-1
 967 4 l 2,100,101
 961 -12 961 -12 925 -12 c 128,-1,102
 889 -12 889 -12 881 4 c 2,103,-1
 440 997 l 2,104,105
 434 1009 434 1009 430 1012.5 c 128,-1,106
 426 1016 426 1016 422 1010.5 c 128,-1,107
 418 1005 418 1005 418 991 c 2,108,-1
 375 291 l 2,109,110
 371 209 371 209 371 190 c 0,111,112
 371 137 371 137 396.5 114.5 c 128,-1,113
 422 92 422 92 502 86 c 0,114,115
 535 86 535 86 543 59 c 0,116,117
 551 28 551 28 539 8 c 0,118,119
 535 4 535 4 502 -6 c 1,120,121
 385 -1 385 -1 270 -1 c 0,122,123
 184 -1 184 -1 98 -4 c 0,124,125
 94 -4 94 -4 85 -2 c 128,-1,126
 76 0 76 0 72 1 c 128,-1,127
 68 2 68 2 62.5 6 c 128,-1,128
 57 10 57 10 55 18 c 0,0,1
EndSplineSet
Validated: 1
EndChar

StartChar: N
Encoding: 78 78 49
Width: 1708
GlyphClass: 2
Flags: W
LayerCount: 2
Fore
SplineSet
74 63 m 0,0,1
 84 90 84 90 117 90 c 0,2,3
 258 90 258 90 258 197 c 2,4,-1
 258 1208 l 1,5,6
 209 1239 209 1239 100 1243 c 0,7,8
 82 1243 82 1243 82 1290 c 0,9,10
 82 1329 82 1329 125 1333 c 0,11,12
 162 1336 162 1336 221 1336 c 0,13,14
 252 1336 252 1336 286 1335 c 0,15,16
 392 1333 392 1333 414 1333 c 0,17,18
 447 1333 447 1333 471 1305 c 2,19,-1
 1290 371 l 2,20,21
 1296 359 1296 359 1307 387 c 0,22,23
 1311 395 1311 395 1311 403 c 2,24,-1
 1311 1049 l 2,25,26
 1311 1135 1311 1135 1308 1165.5 c 128,-1,27
 1305 1196 1305 1196 1288 1208 c 0,28,29
 1272 1224 1272 1224 1239 1231 c 0,30,31
 1223 1233 1223 1233 1185 1235 c 128,-1,32
 1147 1237 1147 1237 1128 1239 c 0,33,34
 1110 1239 1110 1239 1102 1263.5 c 128,-1,35
 1094 1288 1094 1288 1101 1310.5 c 128,-1,36
 1108 1333 1108 1333 1128 1333 c 0,37,38
 1191 1330 1191 1330 1291 1330 c 0,39,40
 1425 1330 1425 1330 1626 1335 c 0,41,42
 1649 1335 1649 1335 1649 1284 c 0,43,44
 1649 1279 1649 1279 1649 1275 c 0,45,46
 1649 1257 1649 1257 1642 1251 c 0,47,48
 1633 1243 1633 1243 1610 1243 c 0,49,50
 1497 1239 1497 1239 1475.5 1217.5 c 128,-1,51
 1454 1196 1454 1196 1454 1083 c 2,52,-1
 1454 18 l 2,53,54
 1454 -19 1454 -19 1404 -23 c 0,55,56
 1395 -24 1395 -24 1388 -24 c 0,57,58
 1352 -24 1352 -24 1341 -8 c 0,59,60
 1189 164 1189 164 896.5 500 c 128,-1,61
 604 836 604 836 442 1020 c 0,62,63
 430 1032 430 1032 421 1038 c 128,-1,64
 412 1044 412 1044 406 1034 c 1,65,-1
 406 291 l 2,66,67
 406 191 406 191 416 158 c 0,68,69
 434 105 434 105 502 98 c 0,70,71
 504 98 504 98 535.5 99 c 128,-1,72
 567 100 567 100 587.5 95 c 128,-1,73
 608 90 608 90 614 78 c 0,74,75
 626 55 626 55 617 24.5 c 128,-1,76
 608 -6 608 -6 580 -6 c 0,77,78
 440 -3 440 -3 333 -3 c 0,79,80
 190 -3 190 -3 106 -8 c 0,81,82
 86 -8 86 -8 76 16 c 0,83,84
 69 27 69 27 69 40 c 0,85,86
 69 51 69 51 74 63 c 0,0,1
EndSplineSet
Validated: 1
EndChar

StartChar: O
Encoding: 79 79 50
Width: 1693
GlyphClass: 2
Flags: W
LayerCount: 2
Fore
SplineSet
102 639 m 0,0,1
 102 952 102 952 313 1159 c 128,-1,2
 524 1366 524 1366 850 1366 c 0,3,4
 1167 1366 1167 1366 1374 1175.5 c 128,-1,5
 1581 985 1581 985 1581 694 c 0,6,7
 1581 383 1581 383 1371 172 c 128,-1,8
 1161 -39 1161 -39 846 -39 c 0,9,10
 529 -39 529 -39 315.5 155.5 c 128,-1,11
 102 350 102 350 102 639 c 0,0,1
350 692 m 0,12,13
 350 420 350 420 499.5 240.5 c 128,-1,14
 649 61 649 61 881 61 c 0,15,16
 1121 61 1121 61 1227 220 c 128,-1,17
 1333 379 1333 379 1333 633 c 0,18,19
 1333 914 1333 914 1185 1091 c 128,-1,20
 1037 1268 1037 1268 793 1268 c 0,21,22
 592 1268 592 1268 471 1109 c 128,-1,23
 350 950 350 950 350 692 c 0,12,13
EndSplineSet
Validated: 1
EndChar

StartChar: P
Encoding: 80 80 51
Width: 1181
GlyphClass: 2
Flags: W
LayerCount: 2
Fore
SplineSet
51 1286 m 0,0,1
 51 1327 51 1327 78 1331 c 0,2,3
 238 1349 238 1349 539 1350 c 0,4,5
 705 1350 705 1350 809 1323 c 0,6,7
 942 1288 942 1288 1023 1190 c 128,-1,8
 1104 1092 1104 1092 1104 963 c 0,9,10
 1104 768 1104 768 966.5 655.5 c 128,-1,11
 829 543 829 543 590 543 c 0,12,13
 547 543 547 543 504 549 c 0,14,15
 494 551 494 551 489.5 546 c 128,-1,16
 485 541 485 541 483 518 c 2,17,-1
 483 211 l 2,18,19
 484 148 484 148 506 121 c 0,20,21
 528 95 528 95 564 95 c 0,22,23
 565 95 565 95 567 95 c 0,24,25
 606 96 606 96 657 98 c 0,26,27
 692 102 692 102 710.5 88 c 128,-1,28
 729 74 729 74 727 37 c 0,29,30
 725 16 725 16 715 2 c 0,31,32
 706 -11 706 -11 694 -10 c 0,33,34
 692 -10 692 -10 690 -10 c 0,35,36
 543 -4 543 -4 388 -4 c 0,37,38
 264 -4 264 -4 135 -8 c 0,39,40
 100 -8 100 -8 90 6 c 2,41,-1
 88 10 l 2,42,43
 80 26 80 26 82 41 c 0,44,45
 84 96 84 96 152 96 c 0,46,47
 224 96 224 96 242 107.5 c 128,-1,48
 260 119 260 119 260 168 c 2,49,-1
 260 1098 l 2,50,51
 260 1194 260 1194 245.5 1221.5 c 128,-1,52
 231 1249 231 1249 178 1249 c 2,53,-1
 78 1247 l 2,54,55
 70 1247 70 1247 61.5 1259.5 c 128,-1,56
 53 1272 53 1272 51 1286 c 0,0,1
483 680 m 2,57,58
 483 643 483 643 514 635 c 0,59,60
 545 629 545 629 578 629 c 0,61,62
 723 629 723 629 794.5 718 c 128,-1,63
 866 807 866 807 866 967 c 0,64,65
 866 1161 866 1161 735 1229 c 0,66,67
 669 1265 669 1265 575 1265 c 0,68,69
 547 1265 547 1265 516 1262 c 0,70,71
 483 1258 483 1258 483 1221 c 2,72,-1
 483 680 l 2,57,58
EndSplineSet
Validated: 1
EndChar

StartChar: Q
Encoding: 81 81 52
Width: 1683
GlyphClass: 2
Flags: W
LayerCount: 2
Fore
SplineSet
88 641 m 0,0,1
 88 952 88 952 302 1159 c 128,-1,2
 516 1366 516 1366 844 1366 c 0,3,4
 1163 1366 1163 1366 1363 1175.5 c 128,-1,5
 1563 985 1563 985 1563 692 c 0,6,7
 1563 461 1563 461 1430.5 275.5 c 128,-1,8
 1298 90 1298 90 1081 8 c 0,9,10
 1071 4 1071 4 1070 -4 c 128,-1,11
 1069 -12 1069 -12 1081 -16 c 0,12,13
 1179 -63 1179 -63 1325 -188 c 0,14,15
 1417 -268 1417 -268 1481.5 -297 c 128,-1,16
 1546 -326 1546 -326 1640 -330 c 0,17,18
 1656 -334 1656 -334 1656 -348 c 0,19,20
 1656 -363 1656 -363 1638 -389 c 0,21,22
 1618 -418 1618 -418 1597 -424 c 0,23,24
 1538 -436 1538 -436 1493 -436 c 0,25,26
 1274 -436 1274 -436 1008 -211 c 0,27,28
 977 -184 977 -184 946 -157.5 c 128,-1,29
 915 -131 915 -131 897 -115.5 c 128,-1,30
 879 -100 879 -100 866 -90 c 0,31,32
 833 -65 833 -65 768 -41 c 1,33,34
 463 -14 463 -14 275.5 175.5 c 128,-1,35
 88 365 88 365 88 641 c 0,0,1
336 690 m 0,37,38
 336 416 336 416 487.5 233.5 c 128,-1,39
 639 51 639 51 872 51 c 0,40,41
 1011 51 1011 51 1115 142 c 128,-1,42
 1219 233 1219 233 1265 361 c 128,-1,43
 1311 489 1311 489 1311 631 c 0,44,45
 1311 918 1311 918 1169.5 1093 c 128,-1,46
 1028 1268 1028 1268 788 1268 c 0,47,48
 583 1268 583 1268 459.5 1109 c 128,-1,36
 336 950 336 950 336 690 c 0,37,38
EndSplineSet
Validated: 1
EndChar

StartChar: R
Encoding: 82 82 53
Width: 1425
GlyphClass: 2
Flags: W
LayerCount: 2
Fore
SplineSet
38 22 m 0,0,1
 36 32 36 32 36 42 c 0,2,3
 36 57 36 57 41 68 c 0,4,5
 49 90 49 90 108 90 c 0,6,7
 111 90 111 90 113 90 c 0,8,9
 197 90 197 90 223.5 115.5 c 128,-1,10
 250 141 250 141 250 211 c 2,11,-1
 250 281 l 1,12,-1
 250 1049 l 2,13,14
 250 1194 250 1194 228.5 1218.5 c 128,-1,15
 207 1243 207 1243 72 1245 c 0,16,17
 43 1245 43 1245 44 1283 c 128,-1,18
 45 1321 45 1321 70 1333 c 1,19,20
 234 1349 234 1349 571 1350 c 0,21,22
 673 1350 673 1350 764.5 1331.5 c 128,-1,23
 856 1313 856 1313 939 1271 c 128,-1,24
 1022 1229 1022 1229 1071 1149 c 128,-1,25
 1120 1069 1120 1069 1120 960.5 c 128,-1,26
 1120 852 1120 852 1066 758 c 128,-1,27
 1012 664 1012 664 922 612 c 0,28,29
 904 602 904 602 924 571 c 0,30,31
 981 481 981 481 1032 403 c 2,32,-1
 1145 233 l 2,33,34
 1180 182 1180 182 1200.5 160.5 c 128,-1,35
 1221 139 1221 139 1270 102 c 0,36,37
 1315 67 1315 67 1376 55 c 1,38,39
 1398 37 1398 37 1398 16 c 0,40,41
 1398 1 1398 1 1386 -16 c 1,42,43
 1364 -31 1364 -31 1307 -31 c 0,44,45
 1104 -31 1104 -31 997 96 c 0,46,47
 923 180 923 180 823 340 c 0,48,49
 809 363 809 363 794.5 389.5 c 128,-1,50
 780 416 780 416 764 448.5 c 128,-1,51
 748 481 748 481 737 500 c 0,52,53
 714 543 714 543 698 541 c 0,54,55
 620 535 620 535 542 535 c 0,56,57
 523 535 523 535 504 535 c 0,58,59
 494 537 494 537 484.5 521.5 c 128,-1,60
 475 506 475 506 475 500 c 0,61,62
 475 316 475 316 477 211 c 0,63,64
 481 139 481 139 508 116.5 c 128,-1,65
 535 94 535 94 616 94 c 0,66,67
 627 95 627 95 636 95 c 0,68,69
 686 95 686 95 694 68 c 0,70,71
 702 48 702 48 698 18 c 0,72,73
 692 -7 692 -7 657 -6 c 0,74,75
 618 -6 618 -6 491.5 -4 c 128,-1,76
 365 -2 365 -2 263.5 -2 c 128,-1,77
 162 -2 162 -2 96 -8 c 1,78,-1
 63 -6 l 2,79,80
 43 -4 43 -4 38 22 c 0,0,1
475 659 m 2,81,82
 475 647 475 647 485.5 637 c 128,-1,83
 496 627 496 627 500 627 c 0,84,85
 548 624 548 624 584 624 c 0,86,87
 648 624 648 624 678 633 c 0,88,89
 772 666 772 666 824.5 752 c 128,-1,90
 877 838 877 838 877 946 c 0,91,92
 877 1102 877 1102 805 1184 c 128,-1,93
 733 1266 733 1266 551 1266 c 0,94,95
 475 1266 475 1266 475 1229 c 2,96,-1
 475 659 l 2,81,82
EndSplineSet
Validated: 1
EndChar

StartChar: S
Encoding: 83 83 54
Width: 1050
GlyphClass: 2
Flags: W
LayerCount: 2
Fore
SplineSet
115 335 m 0,0,1
 115 345 115 345 129 351 c 0,2,3
 145 358 145 358 165.5 357 c 128,-1,4
 186 356 186 356 193 348 c 1,5,6
 224 256 224 256 255.5 207 c 128,-1,7
 287 158 287 158 340 121 c 0,8,9
 418 66 418 66 500 66 c 0,10,11
 609 66 609 66 672 126 c 128,-1,12
 735 186 735 186 735 281 c 0,13,14
 735 316 735 316 726 346.5 c 128,-1,15
 717 377 717 377 695.5 406.5 c 128,-1,16
 674 436 674 436 657.5 456.5 c 128,-1,17
 641 477 641 477 604 506 c 128,-1,18
 567 535 567 535 551 546 c 128,-1,19
 535 557 535 557 490.5 585.5 c 128,-1,20
 446 614 446 614 438 621 c 0,21,22
 368 668 368 668 322 703.5 c 128,-1,23
 276 739 276 739 225 792.5 c 128,-1,24
 174 846 174 846 147.5 908.5 c 128,-1,25
 121 971 121 971 121 1040 c 0,26,27
 121 1183 121 1183 224.5 1274.5 c 128,-1,28
 328 1366 328 1366 489 1366 c 0,29,30
 559 1366 559 1366 659 1331 c 0,31,32
 714 1313 714 1313 729 1313 c 0,33,34
 735 1313 735 1313 756 1331 c 1,35,36
 776 1337 776 1337 803 1333 c 0,37,38
 813 1335 813 1335 817 1328 c 128,-1,39
 821 1321 821 1321 823 1309 c 0,40,41
 854 1067 854 1067 856 1047 c 0,42,43
 854 1024 854 1024 836.5 1018 c 128,-1,44
 819 1012 819 1012 801.5 1018 c 128,-1,45
 784 1024 784 1024 782 1032 c 0,46,47
 686 1270 686 1270 508 1270 c 0,48,49
 420 1270 420 1270 373 1224 c 128,-1,50
 326 1178 326 1178 326 1100 c 0,51,52
 326 1057 326 1057 346.5 1015 c 128,-1,53
 367 973 367 973 414 931 c 128,-1,54
 461 889 461 889 485.5 870.5 c 128,-1,55
 510 852 510 852 567 813 c 0,56,57
 581 803 581 803 588 799 c 0,58,59
 658 752 658 752 687.5 730.5 c 128,-1,60
 717 709 717 709 777.5 656.5 c 128,-1,61
 838 604 838 604 866.5 565 c 128,-1,62
 895 526 895 526 919.5 466 c 128,-1,63
 944 406 944 406 944 342 c 0,64,65
 944 176 944 176 825 68.5 c 128,-1,66
 706 -39 706 -39 518 -39 c 0,67,68
 452 -39 452 -39 307 4 c 0,69,70
 260 18 260 18 252 18 c 0,71,72
 242 18 242 18 229 -2 c 1,73,74
 202 -14 202 -14 176 -6 c 0,75,76
 162 -4 162 -4 158 16 c 0,77,78
 115 255 115 255 115 335 c 0,0,1
EndSplineSet
Validated: 1
EndChar

StartChar: T
Encoding: 84 84 55
Width: 1394
GlyphClass: 2
Flags: W
LayerCount: 2
Fore
SplineSet
102 1360 m 1,0,1
 120 1378 120 1378 145 1378 c 0,2,3
 147 1378 147 1378 150 1378 c 0,4,5
 178 1376 178 1376 184 1360 c 0,6,7
 196 1331 196 1331 287 1331 c 0,8,9
 502 1335 502 1335 709 1335 c 128,-1,10
 916 1335 916 1335 1114 1331 c 0,11,12
 1184 1331 1184 1331 1198 1335 c 128,-1,13
 1212 1339 1212 1339 1221 1360 c 0,14,15
 1225 1368 1225 1368 1246.5 1372 c 128,-1,16
 1268 1376 1268 1376 1284 1372 c 0,17,18
 1302 1368 1302 1368 1305 1343 c 2,19,-1
 1335 1008 l 2,20,21
 1337 992 1337 992 1325.5 983.5 c 128,-1,22
 1314 975 1314 975 1298 975 c 0,23,24
 1273 975 1273 975 1263 983 c 128,-1,25
 1253 991 1253 991 1249 1014 c 0,26,27
 1224 1137 1224 1137 1197.5 1172.5 c 128,-1,28
 1171 1208 1171 1208 1122 1208 c 2,29,-1
 852 1208 l 2,30,31
 815 1208 815 1208 815 1147 c 2,32,-1
 815 281 l 1,33,-1
 815 211 l 2,34,35
 815 152 815 152 841.5 125 c 128,-1,36
 868 98 868 98 954 98 c 2,37,-1
 1012 98 l 2,38,39
 1039 98 1039 98 1049 69.5 c 128,-1,40
 1059 41 1059 41 1051 16 c 0,41,42
 1043 -7 1043 -7 1008 -6 c 0,43,44
 908 -2 908 -2 775 -2 c 0,45,46
 609 -2 609 -2 393 -8 c 0,47,48
 362 -8 362 -8 358 14 c 1,49,50
 346 41 346 41 358 70 c 0,51,52
 368 88 368 88 391 92 c 1,53,-1
 469 92 l 2,54,55
 496 92 496 92 512 95 c 128,-1,56
 528 98 528 98 547.5 108.5 c 128,-1,57
 567 119 567 119 577.5 144.5 c 128,-1,58
 588 170 588 170 588 211 c 2,59,-1
 588 281 l 1,60,-1
 588 1153 l 2,61,62
 588 1208 588 1208 543 1208 c 2,63,-1
 326 1208 l 1,64,-1
 285 1208 l 2,65,66
 232 1208 232 1208 205 1168 c 128,-1,67
 178 1128 178 1128 152 989 c 1,68,69
 128 975 128 975 98 981 c 0,70,71
 69 987 69 987 70 1007 c 0,72,73
 70 1106 70 1106 102 1360 c 1,0,1
EndSplineSet
Validated: 1
EndChar

StartChar: U
Encoding: 85 85 56
Width: 1669
GlyphClass: 2
Flags: W
LayerCount: 2
Fore
SplineSet
55 1260 m 0,0,1
 46 1275 46 1275 46 1288 c 0,2,3
 46 1303 46 1303 57 1317 c 0,4,5
 69 1331 69 1331 94 1331 c 2,6,-1
 608 1331 l 2,7,8
 637 1331 637 1331 645 1315 c 0,9,10
 655 1295 655 1295 649 1268 c 128,-1,11
 643 1241 643 1241 627 1243 c 2,12,-1
 608 1243 l 2,13,14
 522 1243 522 1243 495.5 1218.5 c 128,-1,15
 469 1194 469 1194 465 1116 c 0,16,17
 465 1102 465 1102 464 1073 c 128,-1,18
 463 1044 463 1044 463 1028 c 2,19,-1
 463 635 l 2,20,21
 463 518 463 518 481.5 429 c 128,-1,22
 500 340 500 340 544 267.5 c 128,-1,23
 588 195 588 195 670 156 c 128,-1,24
 752 117 752 117 870 117 c 0,25,26
 1159 117 1159 117 1247 348 c 0,27,28
 1278 432 1278 432 1278 623 c 2,29,-1
 1278 987 l 2,30,31
 1278 1153 1278 1153 1248.5 1196 c 128,-1,32
 1219 1239 1219 1239 1106 1243 c 1,33,34
 1081 1249 1081 1249 1077 1262 c 0,35,36
 1063 1291 1063 1291 1077 1315 c 0,37,38
 1085 1331 1085 1331 1104 1331 c 0,39,40
 1214 1333 1214 1333 1337 1333 c 128,-1,41
 1460 1333 1460 1333 1595 1331 c 0,42,43
 1607 1331 1607 1331 1615.5 1319 c 128,-1,44
 1624 1307 1624 1307 1624 1290 c 0,45,46
 1624 1249 1624 1249 1595 1247 c 0,47,48
 1482 1243 1482 1243 1450.5 1199 c 128,-1,49
 1419 1155 1419 1155 1419 995 c 2,50,-1
 1419 625 l 2,51,52
 1419 527 1419 527 1416 474.5 c 128,-1,53
 1413 422 1413 422 1397.5 350.5 c 128,-1,54
 1382 279 1382 279 1345.5 223.5 c 128,-1,55
 1309 168 1309 168 1247 113 c 0,56,57
 1155 31 1155 31 1062 -4 c 128,-1,58
 969 -39 969 -39 823 -39 c 0,59,60
 422 -39 422 -39 283 270 c 0,61,62
 252 338 252 338 244 396.5 c 128,-1,63
 236 455 236 455 236 604 c 2,64,-1
 236 1130 l 2,65,66
 236 1202 236 1202 214.5 1221.5 c 128,-1,67
 193 1241 193 1241 98 1243 c 0,68,69
 65 1243 65 1243 55 1260 c 0,0,1
EndSplineSet
Validated: 1
EndChar

StartChar: V
Encoding: 86 86 57
Width: 1558
GlyphClass: 2
Flags: W
LayerCount: 2
Fore
SplineSet
49 1260 m 0,0,1
 46 1272 46 1272 46 1282 c 0,2,3
 46 1296 46 1296 51 1307 c 0,4,5
 57 1331 57 1331 93 1331 c 0,6,7
 94 1331 94 1331 96 1331 c 0,8,9
 233 1327 233 1327 366.5 1327 c 128,-1,10
 500 1327 500 1327 629 1331 c 0,11,12
 674 1331 674 1331 682 1321 c 0,13,14
 700 1296 700 1296 688 1264 c 0,15,16
 684 1250 684 1250 655 1237 c 1,17,18
 567 1233 567 1233 528 1225 c 0,19,20
 503 1219 503 1219 491 1205.5 c 128,-1,21
 479 1192 479 1192 483 1167.5 c 128,-1,22
 487 1143 487 1143 491.5 1128.5 c 128,-1,23
 496 1114 496 1114 510 1081 c 2,24,-1
 811 332 l 2,25,26
 817 320 817 320 831.5 313.5 c 128,-1,27
 846 307 846 307 854 322 c 2,28,-1
 1135 1063 l 2,29,30
 1149 1100 1149 1100 1153 1115 c 128,-1,31
 1157 1130 1157 1130 1162 1163 c 128,-1,32
 1167 1196 1167 1196 1153 1213.5 c 128,-1,33
 1139 1231 1139 1231 1108 1239 c 0,34,35
 1075 1245 1075 1245 1014 1245 c 0,36,37
 987 1245 987 1245 977 1264 c 0,38,39
 961 1295 961 1295 979 1319 c 0,40,41
 989 1332 989 1332 1009 1332 c 0,42,43
 1014 1332 1014 1332 1020 1331 c 0,44,45
 1076 1327 1076 1327 1192 1327 c 128,-1,46
 1308 1327 1308 1327 1483 1331 c 0,47,48
 1508 1332 1508 1332 1516 1312 c 0,49,50
 1520 1303 1520 1303 1520 1293 c 0,51,52
 1520 1282 1520 1282 1514 1270 c 0,53,54
 1504 1248 1504 1248 1489 1249 c 0,55,56
 1407 1247 1407 1247 1368 1209 c 128,-1,57
 1329 1171 1329 1171 1278 1044 c 2,58,-1
 872 -4 l 2,59,60
 854 -45 854 -45 825 -49 c 0,61,62
 808 -52 808 -52 791 -52 c 0,63,64
 768 -52 768 -52 745 -47 c 0,65,66
 720 -43 720 -43 707 -8 c 2,67,-1
 274 1075 l 2,68,69
 231 1181 231 1181 193.5 1208 c 128,-1,70
 156 1235 156 1235 84 1237 c 1,71,72
 57 1243 57 1243 49 1260 c 0,0,1
EndSplineSet
Validated: 1
EndChar

StartChar: W
Encoding: 87 87 58
Width: 2224
GlyphClass: 2
Flags: W
LayerCount: 2
Fore
SplineSet
39 1311 m 0,0,1
 49 1331 49 1331 76 1331 c 0,2,3
 391 1331 391 1331 578 1333 c 0,4,5
 609 1333 609 1333 614 1315 c 0,6,7
 622 1286 622 1286 610 1260 c 0,8,9
 606 1246 606 1246 580 1245 c 0,10,11
 539 1245 539 1245 518.5 1238 c 128,-1,12
 498 1231 498 1231 495 1224 c 128,-1,13
 492 1217 492 1217 492 1200 c 0,14,15
 492 1167 492 1167 528 1077 c 2,16,-1
 846 283 l 2,17,18
 848 279 848 279 854 280 c 128,-1,19
 860 281 860 281 868.5 289 c 128,-1,20
 877 297 877 297 883 311 c 2,21,-1
 1044 709 l 2,22,23
 1048 719 1048 719 1050.5 741.5 c 128,-1,24
 1053 764 1053 764 1049 774 c 2,25,-1
 905 1110 l 2,26,27
 866 1202 866 1202 836.5 1222.5 c 128,-1,28
 807 1243 807 1243 696 1247 c 1,29,30
 678 1253 678 1253 676 1293 c 128,-1,31
 674 1333 674 1333 700 1333 c 0,32,33
 834 1337 834 1337 1042 1337 c 128,-1,34
 1250 1337 1250 1337 1532 1333 c 0,35,36
 1557 1333 1557 1333 1571 1325 c 0,37,38
 1596 1309 1596 1309 1581 1268 c 0,39,40
 1575 1252 1575 1252 1570 1248.5 c 128,-1,41
 1565 1245 1565 1245 1546 1245 c 0,42,43
 1452 1243 1452 1243 1419 1219.5 c 128,-1,44
 1386 1196 1386 1196 1352 1108 c 2,45,-1
 1249 862 l 2,46,47
 1241 842 1241 842 1249 815 c 2,48,-1
 1477 276 l 2,49,50
 1479 270 1479 270 1485 270 c 128,-1,51
 1491 270 1491 270 1498 275.5 c 128,-1,52
 1505 281 1505 281 1507 291 c 2,53,-1
 1815 1094 l 2,54,55
 1846 1176 1846 1176 1846 1209 c 0,56,57
 1846 1220 1846 1220 1842 1225 c 0,58,59
 1828 1247 1828 1247 1731 1251 c 0,60,61
 1711 1253 1711 1253 1706.5 1274.5 c 128,-1,62
 1702 1296 1702 1296 1713 1315.5 c 128,-1,63
 1724 1335 1724 1335 1741 1333 c 0,64,65
 1804 1330 1804 1330 1888 1330 c 0,66,67
 2001 1330 2001 1330 2152 1335 c 0,68,69
 2181 1335 2181 1335 2185 1292 c 0,70,71
 2185 1249 2185 1249 2150 1249 c 0,72,73
 2064 1249 2064 1249 2028.5 1219.5 c 128,-1,74
 1993 1190 1993 1190 1950 1075 c 2,75,-1
 1540 6 l 2,76,77
 1530 -27 1530 -27 1505 -33 c 0,78,79
 1479 -37 1479 -37 1456 -37 c 0,80,81
 1427 -37 1427 -37 1403 -31 c 0,82,83
 1387 -27 1387 -27 1382.5 -22.5 c 128,-1,84
 1378 -18 1378 -18 1370 4 c 2,85,-1
 1149 530 l 2,86,87
 1141 550 1141 550 1118 522 c 0,88,89
 1112 516 1112 516 1110 508 c 2,90,-1
 905 6 l 2,91,92
 887 -33 887 -33 860 -37 c 0,93,94
 840 -41 840 -41 818 -41 c 2,95,-1
 758 -33 l 1,96,97
 733 -25 733 -25 721 12 c 2,98,-1
 315 1044 l 2,99,100
 292 1099 292 1099 283 1124 c 128,-1,101
 274 1149 274 1149 257 1175.5 c 128,-1,102
 240 1202 240 1202 232.5 1209.5 c 128,-1,103
 225 1217 225 1217 197.5 1225 c 128,-1,104
 170 1233 170 1233 152.5 1233 c 128,-1,105
 135 1233 135 1233 88 1235 c 0,106,107
 63 1235 63 1235 53 1241 c 0,108,109
 33 1253 33 1253 33 1278 c 0,110,111
 33 1293 33 1293 39 1311 c 0,0,1
1087 1202 m 0,112,113
 1103 1161 1103 1161 1114 1141 c 0,114,115
 1118 1133 1118 1133 1130.5 1102 c 128,-1,116
 1143 1071 1143 1071 1159 1034 c 0,117,118
 1163 1028 1163 1028 1168.5 1028 c 128,-1,119
 1174 1028 1174 1028 1176 1032 c 2,120,-1
 1180 1036 l 1,121,122
 1229 1153 1229 1153 1247 1202 c 0,123,124
 1249 1210 1249 1210 1249 1217 c 0,125,126
 1249 1245 1249 1245 1210 1245 c 2,127,-1
 1126 1245 l 2,128,129
 1099 1245 1099 1245 1089 1237 c 0,130,131
 1083 1233 1083 1233 1083 1222 c 0,132,133
 1083 1214 1083 1214 1087 1202 c 0,112,113
EndSplineSet
Validated: 1
EndChar

StartChar: X
Encoding: 88 88 59
Width: 1607
GlyphClass: 2
Flags: W
LayerCount: 2
Fore
SplineSet
55 41 m 0,0,1
 55 86 55 86 86 86 c 0,2,3
 168 92 168 92 215 112.5 c 128,-1,4
 262 133 262 133 305 188 c 0,5,6
 360 260 360 260 418.5 336 c 128,-1,7
 477 412 477 412 550 503 c 128,-1,8
 623 594 623 594 666 649 c 0,9,10
 674 657 674 657 674 666.5 c 128,-1,11
 674 676 674 676 670 686 c 128,-1,12
 666 696 666 696 666 698 c 2,13,-1
 383 1059 l 2,14,15
 287 1182 287 1182 250 1205.5 c 128,-1,16
 213 1229 213 1229 96 1231 c 0,17,18
 88 1231 88 1231 72.5 1240 c 128,-1,19
 57 1249 57 1249 55 1262 c 0,20,21
 53 1269 53 1269 53 1277 c 0,22,23
 54 1290 54 1290 60 1308 c 0,24,25
 70 1334 70 1334 100 1333 c 0,26,27
 233 1327 233 1327 365 1327 c 0,28,29
 518 1327 518 1327 668 1335 c 0,30,31
 703 1335 703 1335 713 1313 c 0,32,33
 717 1307 717 1307 715 1283.5 c 128,-1,34
 713 1260 713 1260 705 1253 c 0,35,36
 685 1245 685 1245 670 1245 c 0,37,38
 654 1245 654 1245 633 1244 c 128,-1,39
 612 1243 612 1243 601 1242 c 128,-1,40
 590 1241 590 1241 582 1241 c 0,41,42
 564 1239 564 1239 559.5 1226.5 c 128,-1,43
 555 1214 555 1214 564 1195 c 128,-1,44
 573 1176 573 1176 584.5 1158.5 c 128,-1,45
 596 1141 596 1141 610 1122 c 2,46,-1
 807 860 l 2,47,48
 819 840 819 840 831 856 c 0,49,50
 1017 1098 1017 1098 1067 1169 c 0,51,52
 1084 1194 1084 1194 1084 1211 c 0,53,54
 1084 1241 1084 1241 1028 1241 c 0,55,56
 965 1241 965 1241 954 1249 c 0,57,58
 942 1261 942 1261 942 1286 c 128,-1,59
 942 1311 942 1311 952.5 1321 c 128,-1,60
 963 1331 963 1331 983 1331 c 0,61,62
 1415 1331 1415 1331 1456 1333 c 0,63,64
 1479 1331 1479 1331 1487 1308.5 c 128,-1,65
 1495 1286 1495 1286 1486 1265.5 c 128,-1,66
 1477 1245 1477 1245 1456 1245 c 0,67,68
 1341 1239 1341 1239 1266.5 1180.5 c 128,-1,69
 1192 1122 1192 1122 1100 999 c 2,70,-1
 915 756 l 2,71,72
 909 746 909 746 908 738.5 c 128,-1,73
 907 731 907 731 908 728 c 128,-1,74
 909 725 909 725 916.5 717 c 128,-1,75
 924 709 924 709 928 702 c 2,76,-1
 1266 262 l 2,77,78
 1276 250 1276 250 1301.5 215 c 128,-1,79
 1327 180 1327 180 1333 174 c 128,-1,80
 1339 168 1339 168 1359.5 146.5 c 128,-1,81
 1380 125 1380 125 1391.5 120 c 128,-1,82
 1403 115 1403 115 1427.5 103.5 c 128,-1,83
 1452 92 1452 92 1478.5 88 c 128,-1,84
 1505 84 1505 84 1544 80 c 0,85,86
 1573 76 1573 76 1573 35 c 0,87,88
 1573 -4 1573 -4 1542 -4 c 0,89,90
 1458 -2 1458 -2 1260.5 -2 c 128,-1,91
 1063 -2 1063 -2 993 -6 c 0,92,93
 989 -7 989 -7 986 -7 c 0,94,95
 968 -7 968 -7 958 10 c 0,96,97
 950 28 950 28 956.5 55 c 128,-1,98
 963 82 963 82 981 82 c 2,99,-1
 1001 82 l 2,100,101
 1040 82 1040 82 1058.5 88 c 128,-1,102
 1077 94 1077 94 1079 99 c 128,-1,103
 1081 104 1081 104 1079 115 c 0,104,105
 1079 140 1079 140 1024 215 c 2,106,-1
 776 553 l 1,107,108
 758 557 758 557 733 524 c 2,109,-1
 473 197 l 2,110,111
 430 144 430 144 430 121 c 0,112,113
 430 80 430 80 539 80 c 2,114,-1
 557 80 l 2,115,116
 577 80 577 80 587.5 58.5 c 128,-1,117
 598 37 598 37 590 15.5 c 128,-1,118
 582 -6 582 -6 561 -6 c 0,119,120
 344 -2 344 -2 216 -2 c 0,121,122
 130 -2 130 -2 84 -4 c 0,123,124
 72 -4 72 -4 63.5 10.5 c 128,-1,125
 55 25 55 25 55 41 c 0,0,1
EndSplineSet
Validated: 1
EndChar

StartChar: Y
Encoding: 89 89 60
Width: 1490
GlyphClass: 2
Flags: W
LayerCount: 2
Fore
SplineSet
33 1266 m 0,0,1
 31 1273 31 1273 31 1281 c 128,-1,2
 31 1289 31 1289 33 1298 c 0,3,4
 37 1331 37 1331 65 1331 c 0,5,6
 66 1331 66 1331 68 1331 c 0,7,8
 262 1328 262 1328 397 1328 c 128,-1,9
 532 1328 532 1328 608 1331 c 0,10,11
 624 1331 624 1331 635.5 1308.5 c 128,-1,12
 647 1286 647 1286 640 1264.5 c 128,-1,13
 633 1243 633 1243 602 1243 c 0,14,15
 496 1243 496 1243 496 1214 c 0,16,17
 496 1179 496 1179 549 1098 c 2,18,-1
 811 696 l 2,19,20
 817 688 817 688 832.5 692 c 128,-1,21
 848 696 848 696 856 709 c 2,22,-1
 1071 1073 l 2,23,24
 1128 1171 1128 1171 1128 1202 c 0,25,26
 1128 1216 1128 1216 1124 1224.5 c 128,-1,27
 1120 1233 1120 1233 1097.5 1239 c 128,-1,28
 1075 1245 1075 1245 1030 1245 c 2,29,-1
 1008 1245 l 1,30,31
 985 1253 985 1253 987 1293 c 0,32,33
 989 1331 989 1331 1023 1331 c 0,34,35
 1024 1331 1024 1331 1026 1331 c 0,36,37
 1112 1328 1112 1328 1222 1328 c 128,-1,38
 1332 1328 1332 1328 1466 1331 c 0,39,40
 1495 1331 1495 1331 1495 1290 c 0,41,42
 1495 1245 1495 1245 1466 1245 c 0,43,44
 1441 1243 1441 1243 1420 1239 c 128,-1,45
 1399 1235 1399 1235 1379.5 1226 c 128,-1,46
 1360 1217 1360 1217 1345.5 1208.5 c 128,-1,47
 1331 1200 1331 1200 1314.5 1183.5 c 128,-1,48
 1298 1167 1298 1167 1289 1158 c 128,-1,49
 1280 1149 1280 1149 1265.5 1125.5 c 128,-1,50
 1251 1102 1251 1102 1245 1092.5 c 128,-1,51
 1239 1083 1239 1083 1223.5 1055.5 c 128,-1,52
 1208 1028 1208 1028 1202 1020 c 2,53,-1
 905 518 l 1,54,55
 905 473 905 473 905 411.5 c 128,-1,56
 905 350 905 350 905 287.5 c 128,-1,57
 905 225 905 225 905 211 c 0,58,59
 905 145 905 145 938 122.5 c 128,-1,60
 971 100 971 100 1034 96 c 0,61,62
 1087 96 1087 96 1096 92 c 0,63,64
 1110 84 1110 84 1110 37 c 0,65,66
 1110 -8 1110 -8 1075 -8 c 0,67,68
 839 -4 839 -4 687 -4 c 0,69,70
 586 -4 586 -4 522 -6 c 0,71,72
 489 -6 489 -6 479 16 c 0,73,74
 467 39 467 39 477 68 c 0,75,76
 485 91 485 91 498 94 c 0,77,78
 508 100 508 100 522.5 101 c 128,-1,79
 537 102 537 102 557.5 100 c 128,-1,80
 578 98 578 98 584 98 c 0,81,82
 635 100 635 100 655.5 128 c 128,-1,83
 676 156 676 156 680 211 c 0,84,85
 685 295 685 295 685 375 c 0,86,87
 685 436 685 436 682 494 c 1,88,-1
 315 1067 l 2,89,90
 241 1180 241 1180 199.5 1210.5 c 128,-1,91
 158 1241 158 1241 72 1243 c 0,92,93
 39 1243 39 1243 33 1266 c 0,0,1
EndSplineSet
Validated: 1
EndChar

StartChar: Z
Encoding: 90 90 61
Width: 1443
GlyphClass: 2
Flags: W
LayerCount: 2
Fore
SplineSet
74 43 m 0,0,1
 74 61 74 61 86 78 c 2,2,-1
 920 1178 l 2,3,4
 924 1184 924 1184 925 1192 c 128,-1,5
 926 1200 926 1200 924 1206 c 128,-1,6
 922 1212 922 1212 918 1212 c 2,7,-1
 504 1212 l 2,8,9
 357 1212 357 1212 318.5 1181.5 c 128,-1,10
 280 1151 280 1151 262 1008 c 0,11,12
 260 998 260 998 242.5 992.5 c 128,-1,13
 225 987 225 987 204.5 992 c 128,-1,14
 184 997 184 997 176 1016 c 1,15,16
 176 1217 176 1217 186 1303 c 1,17,18
 194 1326 194 1326 242 1331 c 1,19,-1
 1198 1331 l 2,20,21
 1234 1332 1234 1332 1252 1312 c 0,22,23
 1260 1303 1260 1303 1260 1289 c 0,24,25
 1260 1273 1260 1273 1249 1251 c 1,26,-1
 406 147 l 1,27,28
 383 124 383 124 432 121 c 0,29,30
 446 119 446 119 465 119 c 2,31,-1
 936 119 l 2,32,33
 1094 119 1094 119 1144 179.5 c 128,-1,34
 1194 240 1194 240 1210 401 c 1,35,36
 1224 419 1224 419 1264.5 420.5 c 128,-1,37
 1305 422 1305 422 1305 401 c 0,38,39
 1299 227 1299 227 1276 29 c 0,40,41
 1274 13 1274 13 1248.5 4.5 c 128,-1,42
 1223 -4 1223 -4 1204 -4 c 0,43,44
 1143 -4 1143 -4 916.5 -5 c 128,-1,45
 690 -6 690 -6 565 -6 c 0,46,47
 467 -6 467 -6 363.5 -5 c 128,-1,48
 260 -4 260 -4 194.5 -4 c 128,-1,49
 129 -4 129 -4 125 -4 c 0,50,51
 104 -4 104 -4 88 7 c 0,52,53
 73 17 73 17 74 38 c 0,54,55
 74 40 74 40 74 43 c 0,0,1
EndSplineSet
Validated: 1
EndChar

StartChar: bracketleft
Encoding: 91 91 62
Width: 690
GlyphClass: 2
Flags: W
LayerCount: 2
Fore
SplineSet
213 -418 m 0,0,1
 201 469 201 469 213 1350 c 0,2,3
 213 1383 213 1383 224.5 1397 c 128,-1,4
 236 1411 236 1411 264 1413 c 2,5,-1
 512 1413 l 1,6,-1
 522 1413 l 2,7,8
 557 1413 557 1413 557 1389 c 2,9,-1
 557 1358 l 2,10,11
 557 1331 557 1331 532 1329 c 0,12,13
 432 1329 432 1329 406 1313 c 0,14,15
 390 1303 390 1303 387 1262 c 0,16,17
 383 439 383 439 387 -322 c 0,18,19
 389 -359 389 -359 402.5 -367 c 128,-1,20
 416 -375 416 -375 479 -381 c 2,21,-1
 526 -385 l 2,22,23
 557 -385 557 -385 557 -418 c 2,24,-1
 557 -440 l 2,25,26
 557 -469 557 -469 510 -469 c 0,27,28
 430 -475 430 -475 268 -469 c 0,29,30
 213 -465 213 -465 213 -418 c 0,0,1
EndSplineSet
Validated: 33
EndChar

StartChar: backslash
Encoding: 92 92 63
Width: 980
GlyphClass: 2
Flags: W
LayerCount: 2
Fore
SplineSet
84 1333 m 2,0,1
 72 1358 72 1358 95.5 1369 c 128,-1,2
 119 1380 119 1380 152 1380 c 2,3,-1
 193 1380 l 2,4,5
 197 1380 197 1380 201 1380 c 0,6,7
 219 1380 219 1380 225 1379 c 128,-1,8
 231 1378 231 1378 238.5 1370 c 128,-1,9
 246 1362 246 1362 256 1343 c 2,10,-1
 891 33 l 1,11,12
 923 -23 923 -23 866 -29 c 2,13,-1
 784 -39 l 2,14,15
 759 -41 759 -41 749 -33 c 128,-1,16
 739 -25 739 -25 729 0 c 2,17,-1
 84 1333 l 2,0,1
EndSplineSet
Validated: 33
EndChar

StartChar: bracketright
Encoding: 93 93 64
Width: 702
GlyphClass: 2
Flags: W
LayerCount: 2
Fore
SplineSet
66 -418 m 2,0,1
 66 -389 66 -389 92.5 -382 c 128,-1,2
 119 -375 119 -375 150.5 -381 c 128,-1,3
 182 -387 182 -387 209 -373.5 c 128,-1,4
 236 -360 236 -360 236 -319 c 0,5,6
 240 443 240 443 236 1266 c 0,7,8
 234 1301 234 1301 223.5 1310 c 128,-1,9
 213 1319 213 1319 182 1323 c 0,10,11
 166 1325 166 1325 135 1327 c 128,-1,12
 104 1329 104 1329 90 1331 c 0,13,14
 65 1331 65 1331 66 1358 c 2,15,-1
 66 1389 l 2,16,17
 66 1414 66 1414 98 1413 c 2,18,-1
 111 1413 l 2,19,20
 131 1413 131 1413 185.5 1414 c 128,-1,21
 240 1415 240 1415 285 1415 c 128,-1,22
 330 1415 330 1415 358 1413 c 0,23,24
 389 1411 389 1411 399.5 1396.5 c 128,-1,25
 410 1382 410 1382 410 1350 c 0,26,27
 424 342 424 342 410 -418 c 0,28,29
 409 -465 409 -465 354 -469 c 0,30,31
 192 -475 192 -475 113 -469 c 0,32,33
 66 -469 66 -469 66 -440 c 2,34,-1
 66 -418 l 2,0,1
EndSplineSet
Validated: 33
EndChar

StartChar: asciicircum
Encoding: 94 94 65
Width: 1005
GlyphClass: 2
Flags: W
LayerCount: 2
Fore
SplineSet
59 752 m 0,0,1
 284 1155 284 1155 479 1456 c 1,2,-1
 537 1456 l 1,3,4
 762 1089 762 1089 956 743 c 0,5,6
 987 692 987 692 928 688 c 2,7,-1
 889 684 l 2,8,9
 862 682 862 682 850 690 c 128,-1,10
 838 698 838 698 823 723 c 0,11,12
 676 985 676 985 532 1212 c 0,13,14
 526 1224 526 1224 509 1229.5 c 128,-1,15
 492 1235 492 1235 489 1229 c 0,16,17
 389 1075 389 1075 184 715 c 0,18,19
 164 684 164 684 121 684 c 1,20,21
 70 690 70 690 66 692 c 0,22,23
 29 704 29 704 59 752 c 0,0,1
EndSplineSet
Validated: 1
EndChar

StartChar: underscore
Encoding: 95 95 66
Width: 1071
GlyphClass: 2
Flags: W
LayerCount: 2
Fore
SplineSet
-20 -389 m 2,0,1
 -20 -364 -20 -364 31 -365 c 0,2,3
 133 -365 133 -365 348 -362.5 c 128,-1,4
 563 -360 563 -360 730 -361 c 128,-1,5
 897 -362 897 -362 1047 -367 c 0,6,7
 1098 -367 1098 -367 1098 -395 c 2,8,-1
 1098 -446 l 2,9,10
 1098 -471 1098 -471 1069 -475 c 1,11,-1
 1024 -475 l 1,12,-1
 68 -475 l 2,13,14
 -20 -475 -20 -475 -20 -436 c 2,15,-1
 -20 -389 l 2,0,1
EndSplineSet
Validated: 33
EndChar

StartChar: grave
Encoding: 96 96 67
Width: 712
GlyphClass: 2
Flags: W
LayerCount: 2
Fore
SplineSet
145 1290 m 0,0,1
 131 1306 131 1306 145.5 1326 c 128,-1,2
 160 1346 160 1346 180 1346 c 2,3,-1
 328 1348 l 2,4,5
 361 1348 361 1348 375 1327 c 1,6,7
 424 1196 424 1196 469 1010 c 1,8,9
 471 983 471 983 445 977 c 128,-1,10
 419 971 419 971 403 987 c 0,11,12
 247 1182 247 1182 145 1290 c 0,0,1
EndSplineSet
Validated: 1
EndChar

StartChar: a
Encoding: 97 97 68
Width: 847
GlyphClass: 2
Flags: W
LayerCount: 2
Fore
SplineSet
51 166 m 0,0,1
 51 324 51 324 270 381 c 0,2,3
 331 397 331 397 455 453 c 1,4,5
 471 469 471 469 471 479 c 2,6,-1
 469 608 l 2,7,8
 467 776 467 776 346 776 c 0,9,10
 315 776 315 776 279.5 750.5 c 128,-1,11
 244 725 244 725 244 698 c 0,12,13
 244 665 244 665 252 647 c 1,14,15
 240 633 240 633 189.5 608.5 c 128,-1,16
 139 584 139 584 123 580 c 0,17,18
 94 570 94 570 78.5 578 c 128,-1,19
 63 586 63 586 63 621 c 0,20,21
 63 695 63 695 193 799 c 0,22,23
 299 883 299 883 387 883 c 0,24,25
 453 883 453 883 517.5 850 c 128,-1,26
 582 817 582 817 618 764 c 0,27,28
 643 729 643 729 648 698.5 c 128,-1,29
 653 668 653 668 653 571 c 2,30,-1
 653 209 l 2,31,32
 653 168 653 168 658.5 147.5 c 128,-1,33
 664 127 664 127 670 124 c 128,-1,34
 676 121 676 121 686 121 c 0,35,36
 725 121 725 121 764 156 c 0,37,38
 778 164 778 164 788 164 c 0,39,40
 808 160 808 160 814 136 c 0,41,42
 817 127 817 127 817 119 c 0,43,44
 817 106 817 106 811 96 c 0,45,46
 674 -25 674 -25 592 -25 c 0,47,48
 506 -25 506 -25 481 70 c 0,49,50
 479 82 479 82 465 72 c 0,51,52
 395 17 395 17 353 -4 c 128,-1,53
 311 -25 311 -25 256 -25 c 0,54,55
 166 -25 166 -25 108.5 28.5 c 128,-1,56
 51 82 51 82 51 166 c 0,0,1
225 193 m 0,58,59
 225 152 225 152 254 123 c 128,-1,60
 283 94 283 94 326 94 c 0,61,62
 355 94 355 94 406 128 c 128,-1,63
 457 162 457 162 469 190 c 1,64,-1
 469 328 l 2,65,66
 469 342 469 342 464 352 c 0,67,68
 460 360 460 360 455 360 c 0,69,70
 454 360 454 360 453 360 c 0,71,72
 400 333 400 333 328 303 c 0,73,57
 226 262 226 262 225 193 c 0,58,59
EndSplineSet
Validated: 1
EndChar

StartChar: b
Encoding: 98 98 69
Width: 1005
GlyphClass: 2
Flags: W
LayerCount: 2
Fore
SplineSet
16 1362 m 128,-1,1
 16 1393 16 1393 39 1399 c 2,2,-1
 283 1483 l 2,3,4
 294 1487 294 1487 303 1487 c 0,5,6
 334 1487 334 1487 334 1438 c 2,7,-1
 334 797 l 2,8,9
 336 752 336 752 352 762 c 0,10,11
 356 766 356 766 373.5 777 c 128,-1,12
 391 788 391 788 397 793.5 c 128,-1,13
 403 799 403 799 420.5 810 c 128,-1,14
 438 821 438 821 446.5 826 c 128,-1,15
 455 831 455 831 471 841.5 c 128,-1,16
 487 852 487 852 498.5 856 c 128,-1,17
 510 860 510 860 524.5 867 c 128,-1,18
 539 874 539 874 551 877.5 c 128,-1,19
 563 881 563 881 576.5 883 c 128,-1,20
 590 885 590 885 602 885 c 0,21,22
 741 885 741 885 838.5 762 c 128,-1,23
 936 639 936 639 936 471 c 0,24,25
 936 258 936 258 804 113.5 c 128,-1,26
 672 -31 672 -31 467 -31 c 0,27,28
 363 -31 363 -31 188 8 c 0,29,30
 163 16 163 16 160 55 c 0,31,32
 163 305 163 305 163 592.5 c 128,-1,33
 163 880 163 880 160 1206 c 0,34,35
 160 1265 160 1265 158 1280 c 0,36,37
 158 1300 158 1300 123 1307 c 0,38,39
 109 1311 109 1311 80 1316 c 128,-1,40
 51 1321 51 1321 39 1323 c 0,41,0
 16 1331 16 1331 16 1362 c 128,-1,1
334 449 m 0,42,43
 334 265 334 265 348 207.5 c 128,-1,44
 362 150 362 150 408.5 115 c 128,-1,45
 455 80 455 80 520 80 c 0,46,47
 624 80 624 80 690 169 c 128,-1,48
 756 258 756 258 756 408 c 0,49,50
 756 560 756 560 690 650.5 c 128,-1,51
 624 741 624 741 524 741 c 0,52,53
 463 741 463 741 348 657 c 0,54,55
 336 647 336 647 336 600 c 0,56,57
 336 584 336 584 335 531.5 c 128,-1,58
 334 479 334 479 334 449 c 0,42,43
EndSplineSet
Validated: 1
EndChar

StartChar: c
Encoding: 99 99 70
Width: 884
GlyphClass: 2
Flags: W
LayerCount: 2
Fore
SplineSet
61 395 m 0,0,1
 61 600 61 600 204.5 742.5 c 128,-1,2
 348 885 348 885 553 885 c 0,3,4
 653 885 653 885 727 847 c 128,-1,5
 801 809 801 809 801 745 c 0,6,7
 801 710 801 710 777.5 686 c 128,-1,8
 754 662 754 662 719 662 c 0,9,10
 662 662 662 662 588 733 c 0,11,12
 535 786 535 786 481 786 c 0,13,14
 389 786 389 786 318.5 685 c 128,-1,15
 248 584 248 584 248 442 c 0,16,17
 248 292 248 292 320.5 200.5 c 128,-1,18
 393 109 393 109 506 109 c 0,19,20
 645 109 645 109 731 233 c 1,21,22
 747 270 747 270 778 262 c 0,23,24
 801 254 801 254 805 229 c 0,25,26
 807 223 807 223 807 218 c 0,27,28
 807 204 807 204 797 190 c 0,29,30
 664 -25 664 -25 436 -25 c 0,31,32
 274 -25 274 -25 167.5 95 c 128,-1,33
 61 215 61 215 61 395 c 0,0,1
EndSplineSet
Validated: 1
EndChar

StartChar: d
Encoding: 100 100 71
Width: 1050
GlyphClass: 2
Flags: W
LayerCount: 2
Fore
SplineSet
45 395 m 0,0,1
 45 602 45 602 178 743.5 c 128,-1,2
 311 885 311 885 508 885 c 0,3,4
 576 885 576 885 662 858 c 0,5,6
 666 858 666 858 670 857 c 128,-1,7
 674 856 674 856 676 861 c 128,-1,8
 678 866 678 866 680 868 c 128,-1,9
 682 870 682 870 683 877.5 c 128,-1,10
 684 885 684 885 684 887 c 128,-1,11
 684 889 684 889 685 896 c 128,-1,12
 686 903 686 903 686 905 c 0,13,14
 686 940 686 940 686 1026 c 128,-1,15
 686 1112 686 1112 686 1202 c 128,-1,16
 686 1292 686 1292 686 1294 c 0,17,18
 680 1317 680 1317 676 1319 c 0,19,20
 666 1325 666 1325 644.5 1328 c 128,-1,21
 623 1331 623 1331 597 1332 c 128,-1,22
 571 1333 571 1333 563 1335 c 0,23,24
 540 1337 540 1337 537 1372 c 0,25,26
 533 1409 533 1409 565 1415 c 1,27,28
 710 1462 710 1462 817 1503 c 0,29,30
 827 1507 827 1507 835 1507 c 0,31,32
 847 1507 847 1507 854 1498 c 0,33,34
 866 1483 866 1483 866 1456 c 2,35,-1
 866 248 l 2,36,37
 866 176 866 176 873.5 160.5 c 128,-1,38
 881 145 881 145 909 145 c 0,39,40
 932 145 932 145 969 164 c 0,41,42
 987 170 987 170 999.5 166 c 128,-1,43
 1012 162 1012 162 1020 139 c 0,44,45
 1024 123 1024 123 1024 111 c 0,46,47
 1024 88 1024 88 1008 80 c 0,48,49
 889 23 889 23 743 -20 c 0,50,51
 708 -30 708 -30 695 -3.5 c 128,-1,52
 682 23 682 23 684 53 c 0,53,54
 684 67 684 67 682 76.5 c 128,-1,55
 680 86 680 86 676 88 c 128,-1,56
 672 90 672 90 668 88 c 0,57,58
 498 -31 498 -31 393 -31 c 0,59,60
 248 -31 248 -31 146.5 94 c 128,-1,61
 45 219 45 219 45 395 c 0,0,1
231 459 m 0,62,63
 231 305 231 305 299 209 c 128,-1,64
 367 113 367 113 467 113 c 0,65,66
 551 113 551 113 670 195 c 1,67,68
 680 195 680 195 684 231 c 1,69,-1
 684 635 l 1,70,71
 586 778 586 778 465 778 c 0,72,73
 361 778 361 778 296 691 c 128,-1,74
 231 604 231 604 231 459 c 0,62,63
EndSplineSet
Validated: 1
EndChar

StartChar: e
Encoding: 101 101 72
Width: 884
GlyphClass: 2
Flags: W
LayerCount: 2
Fore
SplineSet
53 414 m 0,0,1
 53 613 53 613 173 746 c 128,-1,2
 293 879 293 879 473 879 c 0,3,4
 684 879 684 879 770 696 c 0,5,6
 801 630 801 630 825 600 c 1,7,8
 831 582 831 582 831 568 c 0,9,10
 831 533 831 533 791 532 c 0,11,12
 716 529 716 529 585 529 c 128,-1,13
 454 529 454 529 268 532 c 0,14,15
 229 532 229 532 229 465 c 0,16,17
 229 313 229 313 310 216 c 128,-1,18
 391 119 391 119 514 119 c 0,19,20
 647 119 647 119 752 244 c 0,21,22
 768 264 768 264 793 256 c 0,23,24
 809 252 809 252 818 232.5 c 128,-1,25
 827 213 827 213 819 199 c 0,26,27
 622 -30 622 -30 434 -31 c 0,28,29
 270 -31 270 -31 161.5 98 c 128,-1,30
 53 227 53 227 53 414 c 0,0,1
256 636 m 0,31,32
 256 630 256 630 261 626 c 0,33,34
 268 621 268 621 276.5 619.5 c 128,-1,35
 285 618 285 618 291 618 c 2,36,-1
 567 618 l 2,37,38
 578 618 578 618 590 622 c 0,39,40
 600 625 600 625 600 631 c 0,41,42
 600 632 600 632 600 633 c 0,43,44
 557 795 557 795 430 795 c 0,45,46
 256 795 256 795 256 636 c 0,31,32
EndSplineSet
Validated: 1
EndChar

StartChar: f
Encoding: 102 102 73
Width: 657
GlyphClass: 2
Flags: W
LayerCount: 2
Fore
SplineSet
41 771 m 0,0,1
 43 795 43 795 51 801 c 1,2,3
 127 817 127 817 178 846 c 0,4,5
 194 854 194 854 195 883 c 0,6,7
 197 895 197 895 198 918.5 c 128,-1,8
 199 942 199 942 199 954 c 0,9,10
 205 1079 205 1079 234.5 1158 c 128,-1,11
 264 1237 264 1237 344 1323 c 0,12,13
 491 1489 491 1489 666 1489 c 0,14,15
 723 1489 723 1489 791.5 1463.5 c 128,-1,16
 860 1438 860 1438 891 1393 c 0,17,18
 899 1383 899 1383 899 1364 c 0,19,20
 899 1348 899 1348 858 1274 c 0,21,22
 844 1249 844 1249 825.5 1246 c 128,-1,23
 807 1243 807 1243 793.5 1250 c 128,-1,24
 780 1257 780 1257 760 1274 c 0,25,26
 666 1350 666 1350 575 1350 c 0,27,28
 518 1350 518 1350 472 1316 c 128,-1,29
 426 1282 426 1282 406 1225 c 0,30,31
 379 1146 379 1146 379 1042 c 0,32,33
 379 1035 379 1035 379 1028 c 2,34,-1
 381 897 l 2,35,36
 381 860 381 860 403 860 c 2,37,-1
 543 860 l 2,38,39
 555 860 555 860 562 858 c 128,-1,40
 569 856 569 856 571 854 c 128,-1,41
 573 852 573 852 576.5 846 c 128,-1,42
 580 840 580 840 580 838 c 2,43,-1
 596 739 l 1,44,45
 590 712 590 712 561 713 c 2,46,-1
 395 715 l 2,47,48
 381 715 381 715 381 678 c 2,49,-1
 381 268 l 2,50,51
 381 139 381 139 397 117 c 0,52,53
 420 90 420 90 504 90 c 2,54,-1
 571 90 l 2,55,56
 600 88 600 88 608 37 c 0,57,58
 608 21 608 21 598 7.5 c 128,-1,59
 588 -6 588 -6 578 -6 c 0,60,61
 426 -1 426 -1 301 -1 c 128,-1,62
 176 -1 176 -1 76 -6 c 0,63,64
 49 -6 49 -6 49 37 c 0,65,66
 49 57 49 57 53 63 c 0,67,68
 63 83 63 83 100 84 c 0,69,70
 163 84 163 84 179 118 c 128,-1,71
 195 152 195 152 195 276 c 2,72,-1
 195 676 l 2,73,74
 195 715 195 715 180 719 c 1,75,-1
 76 719 l 2,76,77
 49 719 49 719 43 733 c 0,78,79
 40 742 40 742 40 756 c 0,80,81
 40 763 40 763 41 771 c 0,0,1
EndSplineSet
Validated: 1
EndChar

StartChar: g
Encoding: 103 103 74
Width: 989
GlyphClass: 2
Flags: W
LayerCount: 2
Fore
SplineSet
53 -279 m 0,0,1
 53 -220 53 -220 82 -172.5 c 128,-1,2
 111 -125 111 -125 139.5 -103.5 c 128,-1,3
 168 -82 168 -82 229 -43 c 0,4,5
 247 -27 247 -27 225 -23 c 1,6,7
 90 32 90 32 90 133 c 0,8,9
 90 153 90 153 107.5 174 c 128,-1,10
 125 195 125 195 138.5 202 c 128,-1,11
 152 209 152 209 184 227 c 0,12,13
 223 247 223 247 242 260 c 0,14,15
 262 275 262 275 248 285 c 0,16,17
 105 371 105 371 104 532 c 0,18,19
 104 679 104 679 205.5 779 c 128,-1,20
 307 879 307 879 453 879 c 0,21,22
 590 879 590 879 670 795 c 1,23,-1
 682 795 l 2,24,25
 690 795 690 795 860 815 c 0,26,27
 887 819 887 819 898 813 c 128,-1,28
 909 807 909 807 911 778 c 0,29,30
 918 718 918 718 918 684 c 0,31,32
 918 680 918 680 918 676 c 0,33,34
 914 641 914 641 887 641 c 0,35,36
 862 641 862 641 776 653 c 0,37,38
 758 653 758 653 758 643 c 0,39,40
 758 641 758 641 760 637 c 0,41,42
 772 598 772 598 772 549 c 0,43,44
 772 410 772 410 672.5 320.5 c 128,-1,45
 573 231 573 231 424 231 c 0,46,47
 391 231 391 231 346 242 c 1,48,49
 336 228 336 228 293 195 c 0,50,51
 279 181 279 181 272.5 173.5 c 128,-1,52
 266 166 266 166 260 155.5 c 128,-1,53
 254 145 254 145 262 137 c 128,-1,54
 270 129 270 129 291 123 c 0,55,56
 342 109 342 109 496 106 c 0,57,58
 721 102 721 102 815 59 c 0,59,60
 928 8 928 8 928 -137 c 0,61,62
 928 -297 928 -297 768 -404.5 c 128,-1,63
 608 -512 608 -512 387 -512 c 0,64,65
 272 -512 272 -512 162.5 -446.5 c 128,-1,66
 53 -381 53 -381 53 -279 c 0,0,1
225 -225 m 0,67,68
 223 -295 223 -295 304 -341 c 128,-1,69
 385 -387 385 -387 498 -387 c 0,70,71
 594 -387 594 -387 689 -323.5 c 128,-1,72
 784 -260 784 -260 784 -193 c 0,73,74
 784 -130 784 -130 740 -98.5 c 128,-1,75
 696 -67 696 -67 573 -59 c 0,76,77
 565 -59 565 -59 348 -53 c 1,78,79
 342 -61 342 -61 332 -70.5 c 128,-1,80
 322 -80 322 -80 310.5 -91 c 128,-1,81
 299 -102 299 -102 293 -109 c 0,82,83
 225 -183 225 -183 225 -225 c 0,67,68
276 575 m 0,84,85
 276 458 276 458 325.5 391 c 128,-1,86
 375 324 375 324 446 324 c 0,87,88
 514 324 514 324 558 380 c 128,-1,89
 602 436 602 436 602 537 c 0,90,91
 602 650 602 650 552 720.5 c 128,-1,92
 502 791 502 791 430 791 c 0,93,94
 364 791 364 791 320 730.5 c 128,-1,95
 276 670 276 670 276 575 c 0,84,85
EndSplineSet
Validated: 33
EndChar

StartChar: h
Encoding: 104 104 75
Width: 1110
GlyphClass: 2
Flags: W
LayerCount: 2
Fore
SplineSet
49 74 m 0,0,1
 55 82 55 82 98 88 c 0,2,3
 159 92 159 92 174.5 123 c 128,-1,4
 190 154 190 154 190 276 c 2,5,-1
 190 1200 l 1,6,-1
 188 1276 l 2,7,8
 188 1313 188 1313 147 1317 c 0,9,10
 133 1319 133 1319 106.5 1322 c 128,-1,11
 80 1325 80 1325 68 1327 c 0,12,13
 48 1331 48 1331 45.5 1363 c 128,-1,14
 43 1395 43 1395 66 1405 c 0,15,16
 172 1450 172 1450 324 1493 c 0,17,18
 331 1495 331 1495 337 1495 c 0,19,20
 352 1494 352 1494 362 1484 c 0,21,22
 377 1470 377 1470 377 1436 c 2,23,-1
 377 838 l 2,24,25
 377 830 377 830 377 824.5 c 128,-1,26
 377 819 377 819 380 807 c 128,-1,27
 383 795 383 795 388 794 c 128,-1,28
 393 793 393 793 401 795 c 0,29,30
 538 883 538 883 666 883 c 0,31,32
 844 883 844 883 891 733 c 0,33,34
 918 649 918 649 918 505.5 c 128,-1,35
 918 362 918 362 909 272 c 1,36,37
 905 186 905 186 905 139 c 0,38,39
 905 108 905 108 923.5 99 c 128,-1,40
 942 90 942 90 1020 90 c 0,41,42
 1032 90 1032 90 1040.5 88 c 128,-1,43
 1049 86 1049 86 1053 76 c 128,-1,44
 1057 66 1057 66 1058 62.5 c 128,-1,45
 1059 59 1059 59 1061 41 c 0,46,47
 1061 36 1061 36 1061 31 c 0,48,49
 1061 -4 1061 -4 1036 -4 c 0,50,51
 962 -5 962 -5 876 -5 c 0,52,53
 833 -5 833 -5 788 -5 c 0,54,55
 651 -4 651 -4 610 -4 c 0,56,57
 567 -4 567 -4 567 41 c 0,58,59
 565 55 565 55 573.5 70.5 c 128,-1,60
 582 86 582 86 596 86 c 2,61,-1
 608 86 l 2,62,63
 674 86 674 86 693.5 102.5 c 128,-1,64
 713 119 713 119 717 170 c 0,65,66
 731 291 731 291 731 444 c 0,67,68
 731 575 731 575 721 626.5 c 128,-1,69
 711 678 711 678 682 711 c 0,70,71
 639 758 639 758 567 758 c 0,72,73
 551 758 551 758 537.5 757 c 128,-1,74
 524 756 524 756 510 750.5 c 128,-1,75
 496 745 496 745 487.5 742 c 128,-1,76
 479 739 479 739 464 730 c 128,-1,77
 449 721 449 721 442.5 718 c 128,-1,78
 436 715 436 715 417.5 702.5 c 128,-1,79
 399 690 399 690 395 688 c 0,80,81
 377 678 377 678 377 610 c 2,82,-1
 377 190 l 2,83,84
 377 118 377 118 393.5 101 c 128,-1,85
 410 84 410 84 471 84 c 0,86,87
 508 84 508 84 512 57 c 0,88,89
 512 34 512 34 514 27 c 0,90,91
 514 -7 514 -7 486 -7 c 0,92,93
 482 -7 482 -7 477 -6 c 0,94,95
 451 -5 451 -5 401.5 -5 c 128,-1,96
 352 -5 352 -5 277.5 -6 c 128,-1,97
 203 -7 203 -7 151.5 -7 c 128,-1,98
 100 -7 100 -7 70 -6 c 0,99,100
 68 -6 68 -6 67 -6 c 0,101,102
 55 -6 55 -6 47.5 7.5 c 128,-1,103
 40 21 40 21 40 39 c 0,104,105
 40 61 40 61 49 74 c 0,0,1
EndSplineSet
Validated: 1
EndChar

StartChar: i
Encoding: 105 105 76
Width: 544
GlyphClass: 2
Flags: W
LayerCount: 2
Fore
SplineSet
41 35 m 0,0,1
 41 41 41 41 41 46 c 0,2,3
 41 84 41 84 66 84 c 0,4,5
 89 86 89 86 104 88 c 128,-1,6
 119 90 119 90 133 91 c 128,-1,7
 147 92 147 92 156.5 99 c 128,-1,8
 166 106 166 106 173 107.5 c 128,-1,9
 180 109 180 109 183 121 c 128,-1,10
 186 133 186 133 189.5 136 c 128,-1,11
 193 139 193 139 194 158.5 c 128,-1,12
 195 178 195 178 195 185.5 c 128,-1,13
 195 193 195 193 195 220.5 c 128,-1,14
 195 248 195 248 195 262 c 2,15,-1
 195 623 l 2,16,17
 195 697 195 697 188 709 c 0,18,19
 184 717 184 717 152 723 c 0,20,21
 148 723 148 723 72 745 c 0,22,23
 54 751 54 751 53.5 779 c 128,-1,24
 53 807 53 807 68 817 c 1,25,26
 199 866 199 866 309 903 c 0,27,28
 322 907 322 907 332 907 c 0,29,30
 372 907 372 907 373 844 c 2,31,-1
 373 262 l 2,32,33
 373 186 373 186 375 158 c 0,34,35
 377 109 377 109 389 99.5 c 128,-1,36
 401 90 401 90 459 90 c 0,37,38
 463 90 463 90 467 90 c 0,39,40
 501 90 501 90 506 57 c 1,41,-1
 506 20 l 2,42,43
 506 -7 506 -7 476 -7 c 0,44,45
 471 -7 471 -7 465 -6 c 0,46,47
 418 -3 418 -3 319 -3 c 128,-1,48
 220 -3 220 -3 70 -6 c 0,49,50
 62 -6 62 -6 52.5 7 c 128,-1,51
 43 20 43 20 41 35 c 0,0,1
143 1245 m 128,-1,53
 143 1294 143 1294 177 1328 c 128,-1,54
 211 1362 211 1362 258 1362 c 0,55,56
 309 1362 309 1362 343 1328 c 128,-1,57
 377 1294 377 1294 377 1243 c 0,58,59
 377 1194 377 1194 342 1163.5 c 128,-1,60
 307 1133 307 1133 256 1133 c 0,61,62
 207 1133 207 1133 175 1164.5 c 128,-1,52
 143 1196 143 1196 143 1245 c 128,-1,53
EndSplineSet
Validated: 1
EndChar

StartChar: j
Encoding: 106 106 77
Width: 505
GlyphClass: 2
Flags: W
LayerCount: 2
Fore
SplineSet
-219 -371 m 0,0,1
 -219 -326 -219 -326 -196.5 -289 c 128,-1,2
 -174 -252 -174 -252 -137 -252 c 128,-1,3
 -100 -252 -100 -252 -49 -317 c 1,4,5
 4 -378 4 -378 59 -379 c 0,6,7
 116 -379 116 -379 144 -326.5 c 128,-1,8
 172 -274 172 -274 172 -147 c 2,9,-1
 172 -20 l 1,10,-1
 172 629 l 2,11,12
 172 641 172 641 172 659.5 c 128,-1,13
 172 678 172 678 173 684 c 128,-1,14
 174 690 174 690 172 700.5 c 128,-1,15
 170 711 170 711 166 714 c 128,-1,16
 162 717 162 717 153.5 722 c 128,-1,17
 145 727 145 727 135 730 c 128,-1,18
 125 733 125 733 106 737 c 0,19,20
 65 745 65 745 47 752 c 0,21,22
 29 756 29 756 30 785.5 c 128,-1,23
 31 815 31 815 45 823 c 0,24,25
 145 866 145 866 293 915 c 0,26,27
 324 925 324 925 337 906 c 128,-1,28
 350 887 350 887 350 864 c 2,29,-1
 350 55 l 2,30,31
 350 -80 350 -80 343 -141 c 128,-1,32
 336 -202 336 -202 309 -268 c 0,33,34
 289 -325 289 -325 225 -399 c 0,35,36
 137 -499 137 -499 -14 -500 c 0,37,38
 -102 -500 -102 -500 -160.5 -465 c 128,-1,39
 -219 -430 -219 -430 -219 -371 c 0,0,1
115 1225 m 128,-1,41
 115 1274 115 1274 148.5 1306.5 c 128,-1,42
 182 1339 182 1339 233.5 1339 c 128,-1,43
 285 1339 285 1339 317.5 1306.5 c 128,-1,44
 350 1274 350 1274 350 1225 c 128,-1,45
 350 1176 350 1176 316 1142 c 128,-1,46
 282 1108 282 1108 233 1108 c 0,47,48
 182 1108 182 1108 148.5 1142 c 128,-1,40
 115 1176 115 1176 115 1225 c 128,-1,41
EndSplineSet
Validated: 1
EndChar

StartChar: k
Encoding: 107 107 78
Width: 1060
GlyphClass: 2
Flags: W
LayerCount: 2
Fore
SplineSet
30 1358 m 0,0,1
 32 1391 32 1391 51 1395 c 0,2,3
 108 1409 108 1409 179 1438.5 c 128,-1,4
 250 1468 250 1468 285 1479 c 0,5,6
 299 1482 299 1482 310 1482 c 0,7,8
 324 1482 324 1482 330 1476 c 0,9,10
 342 1466 342 1466 344 1434 c 2,11,-1
 346 606 l 2,12,13
 346 594 346 594 352 581.5 c 128,-1,14
 358 569 358 569 369 578 c 2,15,-1
 580 731 l 2,16,17
 623 763 623 763 623 777 c 0,18,19
 623 782 623 782 618 784 c 0,20,21
 608 788 608 788 588 788 c 0,22,23
 578 788 578 788 564.5 789.5 c 128,-1,24
 551 791 551 791 549 791 c 0,25,26
 520 797 520 797 516 811 c 0,27,28
 514 821 514 821 516 834 c 0,29,30
 518 873 518 873 555 872 c 0,31,32
 610 872 610 872 679 872 c 128,-1,33
 748 872 748 872 823.5 872 c 128,-1,34
 899 872 899 872 926 872 c 0,35,36
 942 874 942 874 950 861 c 128,-1,37
 958 848 958 848 958 829 c 0,38,39
 958 815 958 815 950 799.5 c 128,-1,40
 942 784 942 784 936 784 c 0,41,42
 809 782 809 782 694 694 c 0,43,44
 639 651 639 651 494 547 c 1,45,46
 482 531 482 531 492 518 c 0,47,48
 738 264 738 264 854 145 c 0,49,50
 893 106 893 106 916.5 93 c 128,-1,51
 940 80 940 80 985 80 c 2,52,-1
 1008 80 l 1,53,54
 1024 74 1024 74 1028 52 c 0,55,56
 1029 44 1029 44 1029 38 c 0,57,58
 1029 24 1029 24 1024 12 c 0,59,60
 1016 -6 1016 -6 1004 -6 c 0,61,62
 915 -1 915 -1 806.5 -1 c 128,-1,63
 698 -1 698 -1 571 -6 c 0,64,65
 561 -6 561 -6 552 8.5 c 128,-1,66
 543 23 543 23 543 39 c 0,67,68
 543 64 543 64 552 72 c 128,-1,69
 561 80 561 80 584 80 c 0,70,71
 640 80 640 80 640 97 c 0,72,73
 640 112 640 112 600 154 c 2,74,-1
 367 403 l 1,75,76
 347 417 347 417 346 403 c 2,77,-1
 346 190 l 2,78,79
 346 186 346 186 346 170 c 128,-1,80
 346 154 346 154 346 148.5 c 128,-1,81
 346 143 346 143 347 131 c 128,-1,82
 348 119 348 119 350 115 c 128,-1,83
 352 111 352 111 357 102.5 c 128,-1,84
 362 94 362 94 368.5 91 c 128,-1,85
 375 88 375 88 385 85 c 128,-1,86
 395 82 395 82 408 82 c 2,87,-1
 467 82 l 2,88,89
 477 82 477 82 485.5 67.5 c 128,-1,90
 494 53 494 53 494 36.5 c 128,-1,91
 494 20 494 20 485.5 7 c 128,-1,92
 477 -6 477 -6 467 -6 c 0,93,94
 315 -3 315 -3 212.5 -3 c 128,-1,95
 110 -3 110 -3 57 -6 c 0,96,97
 56 -6 56 -6 55 -6 c 0,98,99
 40 -6 40 -6 34 26 c 0,100,101
 27 60 27 60 37 72 c 0,102,103
 45 84 45 84 74 84 c 0,104,105
 140 84 140 84 153 111.5 c 128,-1,106
 166 139 166 139 166 276 c 2,107,-1
 166 1167 l 2,108,109
 166 1235 166 1235 164 1274 c 0,110,111
 162 1299 162 1299 102 1307 c 1,112,113
 77 1319 77 1319 53 1319 c 1,114,115
 30 1324 30 1324 30 1352 c 0,116,117
 30 1355 30 1355 30 1358 c 0,0,1
EndSplineSet
Validated: 1
EndChar

StartChar: l
Encoding: 108 108 79
Width: 557
GlyphClass: 2
Flags: W
LayerCount: 2
Fore
SplineSet
51 20 m 0,0,1
 48 33 48 33 48 44 c 0,2,3
 48 58 48 58 53 68 c 0,4,5
 59 82 59 82 65.5 83 c 128,-1,6
 72 84 72 84 94 84 c 0,7,8
 166 84 166 84 184.5 106.5 c 128,-1,9
 203 129 203 129 203 207 c 2,10,-1
 203 1268 l 2,11,12
 203 1291 203 1291 180 1292 c 2,13,-1
 82 1311 l 2,14,15
 62 1315 62 1315 60.5 1347.5 c 128,-1,16
 59 1380 59 1380 82 1389 c 0,17,18
 225 1430 225 1430 342 1475 c 0,19,20
 344 1475 344 1475 345 1475 c 0,21,22
 358 1474 358 1474 370 1458 c 0,23,24
 382 1440 382 1440 383 1421 c 2,25,-1
 383 209 l 2,26,27
 383 121 383 121 395.5 102.5 c 128,-1,28
 408 84 408 84 471 84 c 0,29,30
 516 84 516 84 520 63 c 1,31,-1
 520 37 l 2,32,33
 520 -4 520 -4 489 -4 c 0,34,35
 341 -2 341 -2 240 -2 c 128,-1,36
 139 -2 139 -2 84 -4 c 0,37,38
 78 -4 78 -4 65.5 3 c 128,-1,39
 53 10 53 10 51 20 c 0,0,1
EndSplineSet
Validated: 1
EndChar

StartChar: m
Encoding: 109 109 80
Width: 1689
GlyphClass: 2
Flags: W
LayerCount: 2
Fore
SplineSet
53 63 m 0,0,1
 61 83 61 83 109 84 c 0,2,3
 168 86 168 86 185.5 118 c 128,-1,4
 203 150 203 150 203 274 c 2,5,-1
 203 561 l 2,6,7
 203 696 203 696 199 705 c 0,8,9
 189 723 189 723 125 731 c 2,10,-1
 78 737 l 2,11,12
 53 743 53 743 58 775 c 128,-1,13
 63 807 63 807 76 813 c 0,14,15
 174 856 174 856 342 899 c 0,16,17
 350 901 350 901 356 901 c 0,18,19
 370 901 370 901 377 892 c 0,20,21
 387 879 387 879 387 852 c 2,22,-1
 387 758 l 2,23,24
 387 756 387 756 388 752 c 128,-1,25
 389 748 389 748 391 744.5 c 128,-1,26
 393 741 393 741 395 741 c 0,27,28
 592 878 592 878 719 879 c 0,29,30
 789 879 789 879 842 842 c 128,-1,31
 895 805 895 805 918 739 c 0,32,33
 926 725 926 725 940 737 c 0,34,35
 1012 786 1012 786 1042.5 806.5 c 128,-1,36
 1073 827 1073 827 1136.5 853 c 128,-1,37
 1200 879 1200 879 1257 879 c 0,38,39
 1400 879 1400 879 1456 752 c 0,40,41
 1487 680 1487 680 1487 469 c 0,42,43
 1487 416 1487 416 1483 310.5 c 128,-1,44
 1479 205 1479 205 1479 154 c 0,45,46
 1479 111 1479 111 1498.5 99.5 c 128,-1,47
 1518 88 1518 88 1599 88 c 1,48,49
 1626 94 1626 94 1645 82 c 0,50,51
 1660 74 1660 74 1660 48 c 0,52,53
 1660 42 1660 42 1659 35 c 0,54,55
 1659 19 1659 19 1648.5 6.5 c 128,-1,56
 1638 -6 1638 -6 1626 -6 c 0,57,58
 1570 -4 1570 -4 1458 -4 c 128,-1,59
 1346 -4 1346 -4 1180 -6 c 2,60,-1
 1169 -6 l 2,61,62
 1157 -6 1157 -6 1149 2 c 128,-1,63
 1141 10 1141 10 1139 23.5 c 128,-1,64
 1137 37 1137 37 1139 49 c 128,-1,65
 1141 61 1141 61 1149 70.5 c 128,-1,66
 1157 80 1157 80 1167 80 c 2,67,-1
 1188 80 l 2,68,69
 1247 80 1247 80 1266.5 97.5 c 128,-1,70
 1286 115 1286 115 1290 174 c 0,71,72
 1298 256 1298 256 1298 453 c 0,73,74
 1298 637 1298 637 1270.5 696.5 c 128,-1,75
 1243 756 1243 756 1169 756 c 0,76,77
 1099 756 1099 756 936 645 c 1,78,-1
 936 188 l 2,79,80
 936 118 936 118 954.5 99 c 128,-1,81
 973 80 973 80 1034 80 c 0,82,83
 1071 80 1071 80 1073 39 c 0,84,85
 1073 25 1073 25 1064 9.5 c 128,-1,86
 1055 -6 1055 -6 1040 -6 c 0,87,88
 889 -2 889 -2 769 -2 c 0,89,90
 689 -2 689 -2 623 -4 c 0,91,92
 590 -2 590 -2 591 33 c 128,-1,93
 592 68 592 68 612 78 c 0,94,95
 618 82 618 82 643 82 c 0,96,97
 717 82 717 82 735.5 112.5 c 128,-1,98
 754 143 754 143 754 274 c 2,99,-1
 754 600 l 2,100,101
 754 676 754 676 720 716 c 128,-1,102
 686 756 686 756 629 756 c 0,103,104
 615 756 615 756 597.5 753 c 128,-1,105
 580 750 580 750 566.5 745.5 c 128,-1,106
 553 741 553 741 532.5 731 c 128,-1,107
 512 721 512 721 502 717 c 128,-1,108
 492 713 492 713 470.5 698.5 c 128,-1,109
 449 684 449 684 442.5 681 c 128,-1,110
 436 678 436 678 412.5 661.5 c 128,-1,111
 389 645 389 645 387 645 c 2,112,-1
 387 188 l 2,113,114
 387 116 387 116 405.5 98 c 128,-1,115
 424 80 424 80 496 80 c 0,116,117
 504 82 504 82 524 76 c 0,118,119
 536 74 536 74 537 20 c 1,120,121
 531 -6 531 -6 508 -6 c 0,122,123
 408 -2 408 -2 301 -2 c 128,-1,124
 194 -2 194 -2 80 -6 c 0,125,126
 64 -6 64 -6 56 6 c 0,127,128
 48 17 48 17 48 31 c 0,129,130
 48 48 48 48 53 63 c 0,0,1
EndSplineSet
Validated: 1
EndChar

StartChar: n
Encoding: 110 110 81
Width: 1071
GlyphClass: 2
Flags: W
LayerCount: 2
Fore
SplineSet
51 12 m 0,0,1
 48 21 48 21 48 31 c 0,2,3
 48 43 48 43 52 56 c 0,4,5
 59 80 59 80 78 80 c 2,6,-1
 88 80 l 2,7,8
 154 80 154 80 173.5 113.5 c 128,-1,9
 193 147 193 147 193 276 c 2,10,-1
 193 551 l 2,11,12
 193 688 193 688 184 709 c 0,13,14
 180 721 180 721 115 733 c 2,15,-1
 74 741 l 2,16,17
 54 745 54 745 55.5 778 c 128,-1,18
 57 811 57 811 74 817 c 0,19,20
 117 831 117 831 250 883 c 0,21,22
 291 899 291 899 311 903 c 0,23,24
 320 905 320 905 328 905 c 0,25,26
 346 905 346 905 356 896 c 0,27,28
 372 883 372 883 371 858 c 2,29,-1
 371 770 l 2,30,31
 371 766 371 766 374 758 c 128,-1,32
 377 750 377 750 381 744.5 c 128,-1,33
 385 739 385 739 387 741 c 0,34,35
 580 876 580 876 688 877 c 0,36,37
 921 877 921 877 922 506 c 0,38,39
 922 447 922 447 913.5 327 c 128,-1,40
 905 207 905 207 905 145 c 0,41,42
 905 106 905 106 919.5 95 c 128,-1,43
 934 84 934 84 991 84 c 1,44,45
 1018 96 1018 96 1034 74 c 0,46,47
 1042 62 1042 62 1042 33 c 128,-1,48
 1042 4 1042 4 1026 -2 c 0,49,50
 1018 -4 1018 -4 999 -4 c 0,51,52
 958 -4 958 -4 812 -3 c 0,53,54
 763 -3 763 -3 726 -3 c 0,55,56
 651 -3 651 -3 621 -4 c 0,57,58
 619 -4 619 -4 617 -4 c 0,59,60
 577 -4 577 -4 575 39 c 0,61,62
 575 55 575 55 583.5 69.5 c 128,-1,63
 592 84 592 84 604 84 c 2,64,-1
 616 84 l 1,65,66
 679 90 679 90 701 109.5 c 128,-1,67
 723 129 723 129 729 186 c 0,68,69
 741 301 741 301 741 537 c 0,70,71
 741 748 741 748 606 748 c 0,72,73
 518 748 518 748 371 635 c 1,74,-1
 371 188 l 2,75,76
 371 116 371 116 389.5 100 c 128,-1,77
 408 84 408 84 481 84 c 0,78,79
 506 84 506 84 510 39 c 0,80,81
 510 -4 510 -4 471 -6 c 0,82,83
 437 -5 437 -5 364 -5 c 0,84,85
 327 -5 327 -5 280.5 -5 c 128,-1,86
 234 -5 234 -5 197 -5 c 0,87,88
 123 -5 123 -5 88 -4 c 2,89,-1
 82 -4 l 2,90,91
 57 -4 57 -4 51 12 c 0,0,1
EndSplineSet
Validated: 1
EndChar

StartChar: o
Encoding: 111 111 82
Width: 1060
GlyphClass: 2
Flags: W
LayerCount: 2
Fore
SplineSet
66 426 m 0,0,1
 66 623 66 623 199 752 c 128,-1,2
 332 881 332 881 528.5 881 c 128,-1,3
 725 881 725 881 861 749.5 c 128,-1,4
 997 618 997 618 997 424 c 0,5,6
 995 234 995 234 861.5 101.5 c 128,-1,7
 728 -31 728 -31 535 -31 c 0,8,9
 336 -31 336 -31 201 100 c 128,-1,10
 66 231 66 231 66 426 c 0,0,1
264 485 m 0,11,12
 264 307 264 307 351 186.5 c 128,-1,13
 438 66 438 66 557 66 c 0,14,15
 657 66 657 66 724 160 c 128,-1,16
 791 254 791 254 791 393 c 0,17,18
 791 561 791 561 705 673.5 c 128,-1,19
 619 786 619 786 500 786 c 0,20,21
 400 786 400 786 332 701 c 128,-1,22
 264 616 264 616 264 485 c 0,11,12
EndSplineSet
Validated: 1
EndChar

StartChar: p
Encoding: 112 112 83
Width: 1030
GlyphClass: 2
Flags: W
LayerCount: 2
Fore
SplineSet
16 -510 m 0,0,1
 23 -479 23 -479 43 -479 c 2,2,-1
 61 -479 l 2,3,4
 137 -479 137 -479 157.5 -443.5 c 128,-1,5
 178 -408 178 -408 178 -264 c 2,6,-1
 178 571 l 1,7,-1
 178 621 l 2,8,9
 178 654 178 654 172 662 c 128,-1,10
 166 670 166 670 135 678 c 0,11,12
 123 682 123 682 99.5 690 c 128,-1,13
 76 698 76 698 66 700 c 0,14,15
 46 704 46 704 43.5 728 c 128,-1,16
 41 752 41 752 49 758 c 1,17,18
 53 768 53 768 66 776 c 2,19,-1
 285 915 l 2,20,21
 305 929 305 929 325 929 c 2,22,-1
 335 928 l 2,23,24
 360 924 360 924 360 891 c 2,25,-1
 360 782 l 2,26,27
 362 745 362 745 373 745 c 1,28,29
 547 868 547 868 649 868 c 0,30,31
 782 868 782 868 879.5 743 c 128,-1,32
 977 618 977 618 977 457 c 0,33,34
 977 262 977 262 839.5 113.5 c 128,-1,35
 702 -35 702 -35 520 -35 c 0,36,37
 461 -35 461 -35 371 -6 c 0,38,39
 363 -4 363 -4 360 -23 c 0,40,41
 360 -31 360 -31 360 -43 c 2,42,-1
 360 -264 l 2,43,44
 360 -407 360 -407 379.5 -440 c 128,-1,45
 399 -473 399 -473 475 -473 c 2,46,-1
 504 -473 l 2,47,48
 541 -473 541 -473 551 -496 c 0,49,50
 555 -508 555 -508 554 -527.5 c 128,-1,51
 553 -547 553 -547 547 -555 c 0,52,53
 541 -571 541 -571 512 -571 c 0,54,55
 476 -568 476 -568 351 -568 c 0,56,57
 319 -568 319 -568 282 -568 c 0,58,59
 98 -569 98 -569 51 -569 c 0,60,61
 26 -569 26 -569 20 -557 c 0,62,63
 13 -547 13 -547 13 -532 c 0,64,65
 13 -522 13 -522 16 -510 c 0,0,1
360 178 m 1,66,67
 469 76 469 76 575 76 c 0,68,69
 667 76 667 76 729 165 c 128,-1,70
 791 254 791 254 791 389 c 0,71,72
 791 539 791 539 721 632 c 128,-1,73
 651 725 651 725 549 725 c 0,74,75
 473 725 473 725 369 643 c 1,76,77
 361 627 361 627 360 614 c 2,78,-1
 360 178 l 1,66,67
EndSplineSet
Validated: 1
EndChar

StartChar: q
Encoding: 113 113 84
Width: 1032
GlyphClass: 2
Flags: W
LayerCount: 2
Fore
SplineSet
63 395 m 0,0,1
 63 596 63 596 192.5 734 c 128,-1,2
 322 872 322 872 510 872 c 0,3,4
 627 872 627 872 743 813 c 0,5,6
 755 807 755 807 760 813 c 0,7,8
 787 848 787 848 817 868 c 0,9,10
 823 874 823 874 842 874 c 0,11,12
 847 874 847 874 852 874 c 0,13,14
 879 872 879 872 887 858 c 1,15,16
 873 801 873 801 872 707 c 2,17,-1
 872 616 l 1,18,-1
 872 -260 l 2,19,20
 872 -399 872 -399 889.5 -437 c 128,-1,21
 907 -475 907 -475 967 -475 c 2,22,-1
 987 -475 l 2,23,24
 1012 -475 1012 -475 1014 -514 c 0,25,26
 1014 -517 1014 -517 1014 -520 c 0,27,28
 1014 -554 1014 -554 991 -567 c 1,29,-1
 971 -567 l 1,30,31
 858 -563 858 -563 746 -563 c 128,-1,32
 634 -563 634 -563 524 -567 c 0,33,34
 475 -567 475 -567 475 -526 c 128,-1,35
 475 -485 475 -485 500 -473 c 0,36,37
 512 -471 512 -471 580 -471 c 0,38,39
 656 -471 656 -471 674 -438.5 c 128,-1,40
 692 -406 692 -406 692 -260 c 2,41,-1
 692 35 l 2,42,43
 690 45 690 45 689 59.5 c 128,-1,44
 688 74 688 74 687 78 c 128,-1,45
 686 82 686 82 680 78 c 0,46,47
 543 -35 543 -35 410 -35 c 0,48,49
 260 -35 260 -35 161.5 88 c 128,-1,50
 63 211 63 211 63 395 c 0,0,1
240 451 m 0,52,53
 240 297 240 297 315.5 195.5 c 128,-1,54
 391 94 391 94 498 94 c 0,55,56
 580 94 580 94 684 182 c 0,57,58
 694 192 694 192 694 240 c 0,59,60
 690 553 690 553 688 584 c 0,61,62
 686 619 686 619 674 651 c 0,63,64
 656 710 656 710 604.5 747 c 128,-1,65
 553 784 553 784 489 784 c 0,66,67
 376 784 376 784 308 695 c 128,-1,51
 240 606 240 606 240 451 c 0,52,53
EndSplineSet
Validated: 1
EndChar

StartChar: r
Encoding: 114 114 85
Width: 716
GlyphClass: 2
Flags: W
LayerCount: 2
Fore
SplineSet
41 39 m 0,0,1
 41 53 41 53 41 58 c 128,-1,2
 41 63 41 63 44 70.5 c 128,-1,3
 47 78 47 78 55 80 c 128,-1,4
 63 82 63 82 78 82 c 0,5,6
 144 82 144 82 163 114.5 c 128,-1,7
 182 147 182 147 182 274 c 2,8,-1
 182 637 l 2,9,10
 180 641 180 641 179 651.5 c 128,-1,11
 178 662 178 662 176 669 c 128,-1,12
 174 676 174 676 168 678 c 0,13,14
 164 680 164 680 127 694.5 c 128,-1,15
 90 709 90 709 72 717 c 0,16,17
 49 727 49 727 47 750 c 2,18,-1
 47 766 l 2,19,20
 47 793 47 793 70 799 c 1,21,22
 103 815 103 815 186 842 c 0,23,24
 274 873 274 873 307 889 c 0,25,26
 319 895 319 895 328 895 c 128,-1,27
 337 895 337 895 343 890 c 0,28,29
 356 879 356 879 358 856 c 0,30,31
 358 760 358 760 360 717 c 1,32,33
 415 842 415 842 444 858 c 0,34,35
 471 872 471 872 499.5 872 c 128,-1,36
 528 872 528 872 548.5 866 c 128,-1,37
 569 860 569 860 601 849 c 128,-1,38
 633 838 633 838 651 834 c 0,39,40
 655 832 655 832 661.5 831 c 128,-1,41
 668 830 668 830 670 829 c 0,42,43
 696 820 696 820 696 802 c 0,44,45
 696 797 696 797 694 791 c 0,46,47
 678 738 678 738 633 655 c 1,48,49
 594 657 594 657 549 682 c 0,50,51
 508 702 508 702 481 702 c 0,52,53
 426 702 426 702 365 586 c 1,54,-1
 365 289 l 2,55,56
 365 242 365 242 367 188 c 0,57,58
 369 116 369 116 384 100 c 128,-1,59
 399 84 399 84 469 84 c 2,60,-1
 514 84 l 2,61,62
 537 84 537 84 543 48 c 128,-1,63
 549 12 549 12 532 -2 c 0,64,65
 526 -6 526 -6 512 -6 c 2,66,-1
 295 -4 l 2,67,68
 207 -2 207 -2 155 -2 c 0,69,70
 76 -2 76 -2 76 -6 c 1,71,72
 73 -6 73 -6 71 -6 c 0,73,74
 54 -6 54 -6 48 4 c 0,75,76
 40 16 40 16 41 39 c 0,0,1
EndSplineSet
Validated: 1
EndChar

StartChar: s
Encoding: 115 115 86
Width: 643
GlyphClass: 2
Flags: W
LayerCount: 2
Fore
SplineSet
63 639 m 0,0,1
 63 750 63 750 144 820.5 c 128,-1,2
 225 891 225 891 346 891 c 0,3,4
 424 891 424 891 522 850 c 1,5,6
 527 777 527 777 527 718 c 0,7,8
 527 674 527 674 524 637 c 0,9,10
 524 631 524 631 512 623.5 c 128,-1,11
 500 616 500 616 487 616 c 0,12,13
 455 617 455 617 451 637 c 0,14,15
 437 715 437 715 399.5 755 c 128,-1,16
 362 795 362 795 313 795 c 0,17,18
 270 795 270 795 243.5 768 c 128,-1,19
 217 741 217 741 217 700 c 0,20,21
 217 669 217 669 243.5 635.5 c 128,-1,22
 270 602 270 602 294.5 582.5 c 128,-1,23
 319 563 319 563 369.5 530.5 c 128,-1,24
 420 498 420 498 426 494 c 0,25,26
 590 381 590 381 590 244 c 0,27,28
 590 135 590 135 508 57.5 c 128,-1,29
 426 -20 426 -20 315 -20 c 0,30,31
 247 -20 247 -20 195 2 c 0,32,33
 183 6 183 6 178 8 c 1,34,35
 168 -2 168 -2 162 -16 c 1,36,37
 130 -25 130 -25 121 -25 c 0,38,39
 120 -25 120 -25 119 -25 c 0,40,41
 90 -21 90 -21 90 4 c 0,42,43
 78 125 78 125 72 233 c 0,44,45
 70 249 70 249 87 256.5 c 128,-1,46
 104 264 104 264 127 260 c 0,47,48
 141 254 141 254 147 233 c 0,49,50
 186 63 186 63 309 63 c 0,51,52
 358 63 358 63 390 97 c 128,-1,53
 422 131 422 131 422 180 c 0,54,55
 422 239 422 239 365.5 293.5 c 128,-1,56
 309 348 309 348 242.5 386 c 128,-1,57
 176 424 176 424 119.5 490.5 c 128,-1,58
 63 557 63 557 63 639 c 0,0,1
EndSplineSet
Validated: 1
EndChar

StartChar: t
Encoding: 116 116 87
Width: 653
GlyphClass: 2
Flags: W
LayerCount: 2
Fore
SplineSet
43 799 m 0,0,1
 49 809 49 809 66 817 c 0,2,3
 175 876 175 876 240 1065 c 0,4,5
 244 1088 244 1088 280 1089 c 0,6,7
 281 1089 281 1089 283 1089 c 0,8,9
 317 1089 317 1089 315 1061 c 0,10,11
 312 995 312 995 312 951.5 c 128,-1,12
 312 908 312 908 315 887 c 0,13,14
 315 877 315 877 340 870 c 1,15,-1
 543 870 l 2,16,17
 578 870 578 870 578 843 c 0,18,19
 578 835 578 835 575 825 c 0,20,21
 571 794 571 794 557 756 c 0,22,23
 545 733 545 733 516 735 c 2,24,-1
 334 737 l 2,25,26
 322 741 322 741 315 723 c 1,27,-1
 315 371 l 2,28,29
 315 217 315 217 338.5 167 c 128,-1,30
 362 117 362 117 426 117 c 0,31,32
 483 117 483 117 535 215 c 0,33,34
 543 233 543 233 564.5 231 c 128,-1,35
 586 229 586 229 598 217 c 0,36,37
 604 211 604 211 604 191.5 c 128,-1,38
 604 172 604 172 602 168 c 0,39,40
 516 -23 516 -23 360 -23 c 0,41,42
 262 -23 262 -23 200.5 51 c 128,-1,43
 139 125 139 125 139 240 c 2,44,-1
 139 322 l 1,45,-1
 139 723 l 2,46,47
 139 731 139 731 119 735 c 0,48,49
 105 737 105 737 85.5 739 c 128,-1,50
 66 741 66 741 53 741 c 1,51,52
 40 763 40 763 40 781 c 0,53,54
 40 791 40 791 43 799 c 0,0,1
EndSplineSet
Validated: 1
EndChar

StartChar: u
Encoding: 117 117 88
Width: 1093
GlyphClass: 2
Flags: W
LayerCount: 2
Fore
SplineSet
40 809 m 0,0,1
 39 815 39 815 39 820 c 0,2,3
 39 841 39 841 61 848 c 0,4,5
 79 852 79 852 177.5 877.5 c 128,-1,6
 276 903 276 903 317 911 c 0,7,8
 337 915 337 915 349.5 899 c 128,-1,9
 362 883 362 883 362 862 c 2,10,-1
 362 379 l 2,11,12
 362 221 362 221 395 170 c 128,-1,13
 428 119 428 119 522 119 c 0,14,15
 604 119 604 119 733 219 c 1,16,17
 741 239 741 239 741 250 c 2,18,-1
 741 592 l 2,19,20
 741 596 741 596 741 616.5 c 128,-1,21
 741 637 741 637 741 647 c 128,-1,22
 741 657 741 657 740 676.5 c 128,-1,23
 739 696 739 696 735 707.5 c 128,-1,24
 731 719 731 719 725 732 c 128,-1,25
 719 745 719 745 708.5 753.5 c 128,-1,26
 698 762 698 762 684 764 c 0,27,28
 655 768 655 768 639 772 c 0,29,30
 637 772 637 772 571 782 c 1,31,32
 553 792 553 792 555 821 c 128,-1,33
 557 850 557 850 578 856 c 0,34,35
 795 905 795 905 868 913 c 0,36,37
 872 913 872 913 876 913 c 0,38,39
 921 913 921 913 922 870 c 2,40,-1
 922 231 l 1,41,-1
 922 168 l 2,42,43
 922 133 922 133 945.5 129 c 128,-1,44
 969 125 969 125 993 135 c 2,45,-1
 1036 147 l 2,46,47
 1054 149 1054 149 1062 130 c 0,48,49
 1067 118 1067 118 1068 105 c 0,50,51
 1068 96 1068 96 1066 88 c 0,52,53
 1061 66 1061 66 1042 61 c 0,54,55
 931 12 931 12 815 -12 c 0,56,57
 799 -16 799 -16 787 -16 c 0,58,59
 745 -16 745 -16 743 27 c 0,60,61
 743 29 743 29 742 40 c 128,-1,62
 741 51 741 51 740 67.5 c 128,-1,63
 739 84 739 84 737 94 c 0,64,65
 735 125 735 125 717 111 c 0,66,67
 660 70 660 70 623 46.5 c 128,-1,68
 586 23 586 23 528.5 1.5 c 128,-1,69
 471 -20 471 -20 416 -20 c 0,70,71
 295 -20 295 -20 236.5 55.5 c 128,-1,72
 178 131 178 131 178 266 c 2,73,-1
 178 690 l 2,74,75
 178 721 178 721 171 733 c 128,-1,76
 164 745 164 745 141 754 c 0,77,78
 129 758 129 758 102.5 765 c 128,-1,79
 76 772 76 772 61 776 c 0,80,81
 47 778 47 778 40 809 c 0,0,1
EndSplineSet
Validated: 1
EndChar

StartChar: v
Encoding: 118 118 89
Width: 1056
GlyphClass: 2
Flags: W
LayerCount: 2
Fore
SplineSet
26 817 m 0,0,1
 32 856 32 856 55 858 c 0,2,3
 62 859 62 859 92 859 c 0,4,5
 137 859 137 859 234 857 c 0,6,7
 303 856 303 856 357 856 c 0,8,9
 430 856 430 856 477 858 c 0,10,11
 485 858 485 858 492.5 844.5 c 128,-1,12
 500 831 500 831 500 815 c 128,-1,13
 500 799 500 799 491.5 786.5 c 128,-1,14
 483 774 483 774 473 774 c 2,15,-1
 455 774 l 2,16,17
 414 774 414 774 393.5 769 c 128,-1,18
 373 764 373 764 370 759 c 128,-1,19
 367 754 367 754 367 743 c 0,20,21
 367 708 367 708 569 246 c 0,22,23
 575 238 575 238 584.5 251 c 128,-1,24
 594 264 594 264 598 276 c 0,25,26
 707 546 707 546 772 684 c 0,27,28
 779 699 779 699 779 712 c 0,29,30
 779 764 779 764 664 772 c 0,31,32
 660 772 660 772 652.5 772 c 128,-1,33
 645 772 645 772 643 773 c 128,-1,34
 641 774 641 774 637 777 c 128,-1,35
 633 780 633 780 631 786 c 0,36,37
 623 802 623 802 628 830 c 128,-1,38
 633 858 633 858 649 858 c 0,39,40
 730 856 730 856 819 856 c 128,-1,41
 908 856 908 856 1006 858 c 0,42,43
 1033 858 1033 858 1032 817 c 0,44,45
 1028 780 1028 780 1010 776 c 0,46,47
 953 770 953 770 924 736 c 128,-1,48
 895 702 895 702 840 573 c 2,49,-1
 594 10 l 2,50,51
 582 -17 582 -17 559 -20 c 0,52,53
 552 -21 552 -21 541 -21 c 0,54,55
 536 -21 536 -21 528 -21 c 0,56,57
 506 -20 506 -20 500 -18 c 0,58,59
 484 -12 484 -12 473 18 c 2,60,-1
 213 614 l 2,61,62
 205 632 205 632 196.5 653 c 128,-1,63
 188 674 188 674 183 685 c 128,-1,64
 178 696 178 696 174 705 c 0,65,66
 168 719 168 719 159 730 c 128,-1,67
 150 741 150 741 143.5 747.5 c 128,-1,68
 137 754 137 754 120.5 759 c 128,-1,69
 104 764 104 764 100 765 c 128,-1,70
 96 766 96 766 73.5 770 c 128,-1,71
 51 774 51 774 47 774 c 0,72,73
 25 777 25 777 25 805 c 0,74,75
 25 810 25 810 26 817 c 0,0,1
EndSplineSet
Validated: 1
EndChar

StartChar: w
Encoding: 119 119 90
Width: 1570
GlyphClass: 2
Flags: W
LayerCount: 2
Fore
SplineSet
22 800 m 0,0,1
 19 811 19 811 18 820 c 0,2,3
 18 834 18 834 25 844 c 0,4,5
 33 856 33 856 61 852 c 1,6,7
 393 852 393 852 436 854 c 0,8,9
 463 854 463 854 469 827 c 0,10,11
 475 811 475 811 469 791.5 c 128,-1,12
 463 772 463 772 449 772 c 0,13,14
 359 768 359 768 358 737 c 0,15,16
 358 712 358 712 549 250 c 0,17,18
 557 234 557 234 560 233.5 c 128,-1,19
 563 233 563 233 565 238 c 2,20,-1
 735 637 l 1,21,22
 690 721 690 721 676 735 c 0,23,24
 645 766 645 766 596 768 c 0,25,26
 590 768 590 768 578.5 769 c 128,-1,27
 567 770 567 770 561 770 c 0,28,29
 551 770 551 770 543 783.5 c 128,-1,30
 535 797 535 797 535 811 c 0,31,32
 533 827 533 827 540 840.5 c 128,-1,33
 547 854 547 854 557 854 c 0,34,35
 729 850 729 850 842 850 c 0,36,37
 917 850 917 850 965 852 c 1,38,-1
 977 854 l 2,39,40
 979 854 979 854 980 854 c 0,41,42
 1012 854 1012 854 1017 818 c 0,43,44
 1022 780 1022 780 1004 770 c 1,45,46
 906 768 906 768 905 729 c 0,47,48
 905 704 905 704 934 635 c 2,49,-1
 1096 250 l 2,50,51
 1104 225 1104 225 1118 260 c 0,52,53
 1126 270 1126 270 1198 453 c 1,54,55
 1278 641 1278 641 1288 688 c 0,56,57
 1294 715 1294 715 1288 732.5 c 128,-1,58
 1282 750 1282 750 1264.5 757 c 128,-1,59
 1247 764 1247 764 1232 766 c 128,-1,60
 1217 768 1217 768 1189 768 c 128,-1,61
 1161 768 1161 768 1151 770 c 0,62,63
 1137 776 1137 776 1135 815 c 128,-1,64
 1133 854 1133 854 1157 854 c 0,65,66
 1232 852 1232 852 1319.5 852 c 128,-1,67
 1407 852 1407 852 1507 854 c 0,68,69
 1511 855 1511 855 1514 855 c 0,70,71
 1531 856 1531 856 1538 838 c 0,72,73
 1542 827 1542 827 1542 815 c 0,74,75
 1542 804 1542 804 1539 794 c 0,76,77
 1532 772 1532 772 1520 770 c 0,78,79
 1442 760 1442 760 1425 735 c 0,80,81
 1409 712 1409 712 1384 645 c 0,82,83
 1333 524 1333 524 1126 10 c 0,84,85
 1116 -13 1116 -13 1108 -14 c 0,86,87
 1104 -16 1104 -16 1090 -18 c 0,88,89
 1082 -20 1082 -20 1042 -16 c 0,90,91
 1015 -14 1015 -14 1006 6 c 2,92,-1
 801 496 l 2,93,94
 791 521 791 521 782 502 c 0,95,96
 737 406 737 406 661.5 220.5 c 128,-1,97
 586 35 586 35 575 10 c 0,98,99
 563 -19 563 -19 541 -23 c 0,100,101
 533 -25 533 -25 511 -25 c 128,-1,102
 489 -25 489 -25 481 -23 c 0,103,104
 463 -19 463 -19 453 8 c 2,105,-1
 207 608 l 2,106,107
 162 719 162 719 137.5 742.5 c 128,-1,108
 113 766 113 766 41 770 c 0,109,110
 30 772 30 772 22 800 c 0,0,1
EndSplineSet
Validated: 1
EndChar

StartChar: x
Encoding: 120 120 91
Width: 1069
GlyphClass: 2
Flags: W
LayerCount: 2
Fore
SplineSet
14 35 m 1,0,1
 14 76 14 76 41 76 c 0,2,3
 111 78 111 78 148.5 101.5 c 128,-1,4
 186 125 186 125 268 217 c 2,5,-1
 420 395 l 2,6,7
 436 411 436 411 420 434 c 2,8,-1
 274 627 l 2,9,10
 202 723 202 723 167.5 746.5 c 128,-1,11
 133 770 133 770 51 774 c 0,12,13
 33 778 33 778 34 817 c 0,14,15
 35 854 35 854 60 854 c 0,16,17
 61 854 61 854 63 854 c 0,18,19
 116 851 116 851 213.5 851 c 128,-1,20
 311 851 311 851 453 854 c 0,21,22
 478 854 478 854 483 846 c 0,23,24
 493 830 493 830 488 803 c 128,-1,25
 483 776 483 776 473 776 c 2,26,-1
 455 776 l 2,27,28
 422 776 422 776 409.5 770 c 128,-1,29
 397 764 397 764 410 741 c 0,30,31
 430 704 430 704 479 641 c 128,-1,32
 528 578 528 578 547 559 c 1,33,34
 561 539 561 539 582 567 c 1,35,36
 702 687 702 687 702 738 c 0,37,38
 702 749 702 749 698 755.5 c 128,-1,39
 694 762 694 762 676.5 768 c 128,-1,40
 659 774 659 774 623 774 c 0,41,42
 619 774 619 774 614.5 774 c 128,-1,43
 610 774 610 774 607 775 c 128,-1,44
 604 776 604 776 601 777 c 128,-1,45
 598 778 598 778 595 781 c 128,-1,46
 592 784 592 784 590 791 c 0,47,48
 584 811 584 811 588 834 c 0,49,50
 591 855 591 855 613 855 c 0,51,52
 619 855 619 855 625 854 c 0,53,54
 773 852 773 852 866.5 852 c 128,-1,55
 960 852 960 852 1001 854 c 0,56,57
 1005 855 1005 855 1009 855 c 0,58,59
 1028 855 1028 855 1038 838 c 0,60,61
 1048 818 1048 818 1041 796 c 128,-1,62
 1034 774 1034 774 1010 774 c 0,63,64
 1004 774 1004 774 997 774 c 0,65,66
 924 774 924 774 885 752 c 0,67,68
 842 728 842 728 778 657 c 2,69,-1
 702 573 l 1,70,-1
 627 487 l 2,71,72
 617 473 617 473 625 461 c 0,73,74
 721 336 721 336 774 264 c 2,75,-1
 848 172 l 2,76,77
 887 121 887 121 922.5 101.5 c 128,-1,78
 958 82 958 82 1022 78 c 1,79,80
 1047 64 1047 64 1047 31 c 0,81,82
 1047 17 1047 17 1038.5 5.5 c 128,-1,83
 1030 -6 1030 -6 1016 -4 c 0,84,85
 927 -2 927 -2 843 -2 c 0,86,87
 717 -2 717 -2 604 -6 c 0,88,89
 575 -6 575 -6 575 33 c 0,90,91
 575 74 575 74 600 74 c 2,92,-1
 618 74 l 2,93,94
 677 74 677 74 678 94 c 0,95,96
 678 102 678 102 668.5 116.5 c 128,-1,97
 659 131 659 131 646 146.5 c 128,-1,98
 633 162 633 162 629 168 c 2,99,-1
 518 319 l 2,100,101
 495 346 495 346 483 332 c 0,102,103
 479 328 479 328 455.5 301 c 128,-1,104
 432 274 432 274 411.5 250.5 c 128,-1,105
 391 227 391 227 367.5 199.5 c 128,-1,106
 344 172 344 172 329.5 150.5 c 128,-1,107
 315 129 315 129 315 121 c 0,108,109
 315 107 315 107 320.5 99.5 c 128,-1,110
 326 92 326 92 347.5 85 c 128,-1,111
 369 78 369 78 410 74 c 1,112,-1
 424 74 l 1,113,114
 451 70 451 70 451 31 c 0,115,116
 450 16 450 16 442 4 c 0,117,118
 435 -6 435 -6 427 -6 c 0,119,120
 426 -6 426 -6 424 -6 c 0,121,122
 323 -2 323 -2 205 -2 c 0,123,124
 127 -2 127 -2 41 -4 c 0,125,126
 18 -4 18 -4 14 35 c 1,0,1
EndSplineSet
Validated: 1
EndChar

StartChar: y
Encoding: 121 121 92
Width: 999
GlyphClass: 2
Flags: W
LayerCount: 2
Fore
SplineSet
20 800 m 0,0,1
 16 810 16 810 16 818 c 0,2,3
 16 829 16 829 22 840 c 0,4,5
 31 858 31 858 57 858 c 2,6,-1
 82 858 l 1,7,-1
 420 858 l 2,8,9
 449 858 449 858 456 838.5 c 128,-1,10
 463 819 463 819 454.5 798.5 c 128,-1,11
 446 778 446 778 436 776 c 0,12,13
 393 776 393 776 372.5 769 c 128,-1,14
 352 762 352 762 350 756 c 128,-1,15
 348 750 348 750 348 735 c 0,16,17
 348 719 348 719 371 670 c 0,18,19
 400 607 400 607 426.5 537 c 128,-1,20
 453 467 453 467 485.5 382 c 128,-1,21
 518 297 518 297 539 246 c 0,22,23
 545 238 545 238 548 234.5 c 128,-1,24
 551 231 551 231 555 236 c 2,25,-1
 674 553 l 2,26,27
 721 680 721 680 721 715 c 0,28,29
 721 738 721 738 716 749 c 128,-1,30
 711 760 711 760 687.5 768 c 128,-1,31
 664 776 664 776 612 776 c 1,32,33
 596 782 596 782 596 817 c 128,-1,34
 596 852 596 852 618 856 c 1,35,-1
 637 856 l 2,36,37
 698 856 698 856 791.5 857 c 128,-1,38
 885 858 885 858 938 858 c 0,39,40
 967 858 967 858 973 838 c 0,41,42
 975 829 975 829 975 821 c 0,43,44
 975 809 975 809 970 796 c 0,45,46
 962 776 962 776 952 776 c 0,47,48
 895 772 895 772 859 725 c 128,-1,49
 823 678 823 678 766 520 c 2,50,-1
 522 -152 l 2,51,52
 487 -250 487 -250 438 -369 c 0,53,54
 407 -443 407 -443 365 -494 c 0,55,56
 328 -541 328 -541 256 -541 c 0,57,58
 215 -541 215 -541 181 -507 c 128,-1,59
 147 -473 147 -473 147 -432 c 0,60,61
 147 -366 147 -366 258 -338 c 0,62,63
 326 -320 326 -320 370 -268.5 c 128,-1,64
 414 -217 414 -217 434 -102 c 1,65,-1
 453 -12 l 1,66,-1
 205 590 l 2,67,68
 152 719 152 719 130.5 744.5 c 128,-1,69
 109 770 109 770 39 776 c 0,70,71
 27 780 27 780 20 800 c 0,0,1
EndSplineSet
Validated: 1
EndChar

StartChar: z
Encoding: 122 122 93
Width: 839
GlyphClass: 2
Flags: W
LayerCount: 2
Fore
SplineSet
31 14 m 0,0,1
 29 23 29 23 29 31 c 128,-1,2
 29 39 29 39 31 47 c 128,-1,3
 33 55 33 55 40 63.5 c 128,-1,4
 47 72 47 72 49 76 c 2,5,-1
 512 717 l 2,6,7
 527 737 527 737 494 737 c 0,8,9
 451 737 451 737 372 734 c 128,-1,10
 293 731 293 731 248 731 c 0,11,12
 213 731 213 731 193.5 702.5 c 128,-1,13
 174 674 174 674 143 553 c 0,14,15
 137 539 137 539 116.5 534.5 c 128,-1,16
 96 530 96 530 78.5 540.5 c 128,-1,17
 61 551 61 551 63 569 c 0,18,19
 63 575 63 575 66 578 c 0,20,21
 105 814 105 814 125 897 c 0,22,23
 129 906 129 906 160 906 c 0,24,25
 163 906 163 906 166 906 c 0,26,27
 203 905 203 905 203 893 c 0,28,29
 203 864 203 864 215 857 c 128,-1,30
 227 850 227 850 276 852 c 0,31,32
 509 856 509 856 711 856 c 0,33,34
 723 854 723 854 734 856 c 128,-1,35
 745 858 745 858 758.5 855 c 128,-1,36
 772 852 772 852 782 842 c 1,37,38
 790 801 790 801 776 784 c 0,39,40
 575 520 575 520 315 137 c 0,41,42
 309 129 309 129 314 122 c 128,-1,43
 319 115 319 115 330 115 c 0,44,45
 545 115 545 115 604 117 c 0,46,47
 649 117 649 117 669.5 139.5 c 128,-1,48
 690 162 690 162 727 246 c 1,49,-1
 735 256 l 1,50,51
 747 283 747 283 784 274 c 0,52,53
 811 269 811 269 811 253 c 0,54,55
 811 249 811 249 809 244 c 2,56,-1
 727 18 l 2,57,58
 719 0 719 0 696 -4 c 1,59,-1
 43 -4 l 2,60,61
 35 -4 35 -4 31 14 c 0,0,1
EndSplineSet
Validated: 1
EndChar

StartChar: braceleft
Encoding: 123 123 94
Width: 1026
GlyphClass: 2
Flags: W
LayerCount: 2
Fore
SplineSet
215 457 m 1,0,1
 209 471 209 471 215 487 c 0,2,3
 219 510 219 510 238 514 c 0,4,5
 332 534 332 534 386 588.5 c 128,-1,6
 440 643 440 643 440 711 c 0,7,8
 440 756 440 756 416 860 c 0,9,10
 396 954 396 954 395 1030 c 0,11,12
 395 1190 395 1190 505.5 1310 c 128,-1,13
 616 1430 616 1430 788 1456 c 0,14,15
 806 1456 806 1456 813 1438 c 0,16,17
 817 1420 817 1420 817 1401 c 2,18,-1
 817 1403 l 2,19,20
 817 1384 817 1384 788 1372 c 1,21,22
 581 1323 581 1323 582 1147 c 0,23,24
 582 1090 582 1090 600 999 c 0,25,26
 623 882 623 882 623 819 c 0,27,28
 623 678 623 678 510 565 c 0,29,30
 451 508 451 508 397 483 c 0,31,32
 372 473 372 473 399 461 c 0,33,34
 622 338 622 338 623 125 c 0,35,36
 623 57 623 57 602 -51 c 0,37,38
 584 -137 584 -137 584 -199 c 0,39,40
 584 -369 584 -369 793 -428 c 0,41,42
 807 -432 807 -432 813 -440 c 0,43,44
 819 -442 819 -442 819 -449 c 0,45,46
 827 -474 827 -474 819 -496 c 0,47,48
 809 -514 809 -514 786 -510 c 0,49,50
 612 -483 612 -483 504.5 -364.5 c 128,-1,51
 397 -246 397 -246 397 -86 c 0,52,53
 397 -25 397 -25 418 78 c 0,54,55
 443 187 443 187 442 229 c 0,56,57
 442 301 442 301 389 354.5 c 128,-1,58
 336 408 336 408 233 430 c 0,59,60
 215 436 215 436 215 457 c 1,0,1
EndSplineSet
Validated: 37
EndChar

StartChar: bar
Encoding: 124 124 95
Width: 1093
GlyphClass: 2
Flags: W
LayerCount: 2
Fore
SplineSet
483 20 m 2,0,-1
 483 1700 l 2,1,2
 483 1761 483 1761 535 1761 c 1,3,4
 568 1753 568 1753 584 1757 c 0,5,6
 600 1757 600 1757 608 1751 c 128,-1,7
 616 1745 616 1745 617 1741 c 128,-1,8
 618 1737 618 1737 617 1718.5 c 128,-1,9
 616 1700 616 1700 616 1696 c 2,10,-1
 616 864 l 2,11,12
 616 104 616 104 614 10 c 0,13,14
 614 -45 614 -45 565 -45 c 1,15,16
 547 -41 547 -41 524 -45 c 1,17,18
 483 -45 483 -45 483 20 c 2,0,-1
EndSplineSet
Validated: 1
EndChar

StartChar: braceright
Encoding: 125 125 96
Width: 1026
GlyphClass: 2
Flags: W
LayerCount: 2
Fore
SplineSet
217 -473 m 0,0,1
 217 -471 217 -471 218 -463 c 128,-1,2
 219 -455 219 -455 219 -451 c 0,3,4
 223 -428 223 -428 242 -426 c 0,5,6
 342 -403 342 -403 396.5 -344 c 128,-1,7
 451 -285 451 -285 451 -203 c 0,8,9
 451 -148 451 -148 429.5 -39 c 128,-1,10
 408 70 408 70 408 125 c 0,11,12
 408 264 408 264 522 379 c 0,13,14
 577 436 577 436 637 463 c 0,15,16
 645 467 645 467 643 474 c 128,-1,17
 641 481 641 481 633 485 c 0,18,19
 408 608 408 608 408 819 c 0,20,21
 408 870 408 870 428.5 978.5 c 128,-1,22
 449 1087 449 1087 449 1143 c 0,23,24
 449 1221 449 1221 411 1270 c 128,-1,25
 373 1319 373 1319 328 1335.5 c 128,-1,26
 283 1352 283 1352 248 1371.5 c 128,-1,27
 213 1391 213 1391 217 1417 c 0,28,29
 217 1431 217 1431 224 1444.5 c 128,-1,30
 231 1458 231 1458 246 1456 c 0,31,32
 420 1429 420 1429 528.5 1310.5 c 128,-1,33
 637 1192 637 1192 637 1032 c 0,34,35
 637 977 637 977 613.5 873.5 c 128,-1,36
 590 770 590 770 590 717 c 0,37,38
 590 570 590 570 780 520 c 0,39,40
 817 512 817 512 817 477 c 0,41,42
 817 434 817 434 784 428 c 0,43,44
 692 408 692 408 642 354.5 c 128,-1,45
 592 301 592 301 592 236 c 0,46,47
 592 181 592 181 615.5 75 c 128,-1,48
 639 -31 639 -31 639 -84 c 0,49,50
 639 -240 639 -240 535.5 -356.5 c 128,-1,51
 432 -473 432 -473 268 -506 c 0,52,53
 248 -510 248 -510 231.5 -499.5 c 128,-1,54
 215 -489 215 -489 217 -473 c 0,0,1
EndSplineSet
Validated: 1
EndChar

StartChar: asciitilde
Encoding: 126 126 97
Width: 1161
GlyphClass: 2
Flags: W
LayerCount: 2
Fore
SplineSet
49 528 m 0,0,1
 55 667 55 667 140 758.5 c 128,-1,2
 225 850 225 850 348 850 c 0,3,4
 459 850 459 850 627 760 c 0,5,6
 793 672 793 672 864 672 c 0,7,8
 997 672 997 672 1026 823 c 0,9,10
 1028 837 1028 837 1038.5 848.5 c 128,-1,11
 1049 860 1049 860 1061 858 c 2,12,-1
 1083 856 l 2,13,14
 1099 854 1099 854 1110.5 845 c 128,-1,15
 1122 836 1122 836 1120 823 c 0,16,17
 1110 680 1110 680 1029 587 c 128,-1,18
 948 494 948 494 827 494 c 0,19,20
 716 494 716 494 532 586 c 0,21,22
 530 586 530 586 482 611.5 c 128,-1,23
 434 637 434 637 415.5 645 c 128,-1,24
 397 653 397 653 360.5 664.5 c 128,-1,25
 324 676 324 676 297 676 c 0,26,27
 236 676 236 676 191.5 634 c 128,-1,28
 147 592 147 592 137 518 c 0,29,30
 133 483 133 483 90 488.5 c 128,-1,31
 47 494 47 494 49 528 c 0,0,1
EndSplineSet
Validated: 1
EndChar

StartChar: exclamdown
Encoding: 161 161 99
Width: 557
GlyphClass: 2
Flags: W
LayerCount: 2
Fore
SplineSet
162 766 m 128,-1,1
 162 819 162 819 195.5 854 c 128,-1,2
 229 889 229 889 280.5 889 c 128,-1,3
 332 889 332 889 365.5 854 c 128,-1,4
 399 819 399 819 399 766 c 128,-1,5
 399 713 399 713 365.5 677 c 128,-1,6
 332 641 332 641 280.5 641 c 128,-1,7
 229 641 229 641 195.5 677 c 128,-1,0
 162 713 162 713 162 766 c 128,-1,1
174 -416 m 2,8,-1
 244 520 l 1,9,10
 252 538 252 538 279.5 538.5 c 128,-1,11
 307 539 307 539 315 520 c 1,12,-1
 389 -418 l 2,13,14
 393 -467 393 -467 378.5 -488.5 c 128,-1,15
 364 -510 364 -510 313 -510 c 2,16,-1
 254 -510 l 2,17,18
 199 -510 199 -510 184.5 -488.5 c 128,-1,19
 170 -467 170 -467 174 -416 c 2,8,-1
EndSplineSet
Validated: 33
EndChar

StartChar: cent
Encoding: 162 162 100
Width: 915
GlyphClass: 2
Flags: W
LayerCount: 2
Fore
SplineSet
98 389 m 0,0,1
 98 598 98 598 242.5 744.5 c 128,-1,2
 387 891 387 891 592 891 c 0,3,4
 612 891 612 891 621 889 c 0,5,6
 644 889 644 889 651 909 c 2,7,-1
 737 1139 l 2,8,9
 747 1159 747 1159 791 1155 c 1,10,11
 838 1155 838 1155 819 1112 c 2,12,-1
 733 887 l 2,13,14
 725 871 725 871 739 866 c 0,15,16
 845 823 845 823 846 745 c 0,17,18
 846 710 846 710 821.5 686 c 128,-1,19
 797 662 797 662 758 662 c 0,20,21
 713 662 713 662 676 696 c 0,22,23
 666 706 666 706 655 682 c 2,24,-1
 440 137 l 2,25,26
 434 121 434 121 444.5 110.5 c 128,-1,27
 455 100 455 100 480.5 97 c 128,-1,28
 506 94 506 94 517 93 c 128,-1,29
 528 92 528 92 547 92 c 0,30,31
 617 92 617 92 668 125 c 128,-1,32
 719 158 719 158 774 227 c 0,33,34
 778 233 778 233 782 236.5 c 128,-1,35
 786 240 786 240 791.5 241 c 128,-1,36
 797 242 797 242 800 243 c 128,-1,37
 803 244 803 244 808 241 c 128,-1,38
 813 238 813 238 815 237 c 128,-1,39
 817 236 817 236 824 230.5 c 128,-1,40
 831 225 831 225 834 225 c 0,41,42
 861 209 861 209 834 168 c 0,43,44
 691 -41 691 -41 473 -41 c 0,45,46
 432 -41 432 -41 387 -31 c 0,47,48
 375 -27 375 -27 369 -45 c 0,49,50
 361 -63 361 -63 340 -119.5 c 128,-1,51
 319 -176 319 -176 309 -205 c 0,52,53
 278 -287 278 -287 254 -340 c 0,54,55
 242 -369 242 -369 224.5 -372 c 128,-1,56
 207 -375 207 -375 180 -365 c 0,57,58
 157 -359 157 -359 166 -332 c 1,59,-1
 172 -322 l 1,60,-1
 291 -18 l 2,61,62
 297 2 297 2 285 10 c 0,63,64
 201 67 201 67 149.5 169.5 c 128,-1,65
 98 272 98 272 98 389 c 0,0,1
279 436 m 0,66,67
 279 291 279 291 354 190 c 0,68,69
 356 186 356 186 365.5 191.5 c 128,-1,70
 375 197 375 197 377 203 c 2,71,-1
 596 768 l 1,72,73
 567 791 567 791 524 791 c 0,74,75
 428 791 428 791 353.5 687.5 c 128,-1,76
 279 584 279 584 279 436 c 0,66,67
EndSplineSet
Validated: 1
EndChar

StartChar: sterling
Encoding: 163 163 101
Width: 1630
GlyphClass: 2
Flags: W
LayerCount: 2
Fore
SplineSet
31 -406 m 0,0,1
 31 -345 31 -345 107.5 -272 c 128,-1,2
 184 -199 184 -199 283 -158 c 1,3,4
 342 -54 342 -54 389 74 c 0,5,6
 391 78 391 78 393 86 c 0,7,8
 407 121 407 121 391 121 c 2,9,-1
 158 121 l 2,10,11
 156 121 156 121 150.5 120 c 128,-1,12
 145 119 145 119 141 119 c 0,13,14
 131 119 131 119 123 123 c 0,15,16
 103 131 103 131 115 180 c 0,17,18
 121 217 121 217 164 217 c 2,19,-1
 442 217 l 1,20,21
 465 276 465 276 514 414.5 c 128,-1,22
 563 553 563 553 592 631 c 128,-1,23
 621 709 621 709 670 819.5 c 128,-1,24
 719 930 719 930 770 1018 c 0,25,26
 1014 1432 1014 1432 1317 1432 c 0,27,28
 1423 1432 1423 1432 1506 1382.5 c 128,-1,29
 1589 1333 1589 1333 1589 1257 c 0,30,31
 1589 1218 1589 1218 1562.5 1193.5 c 128,-1,32
 1536 1169 1536 1169 1497 1169 c 0,33,34
 1450 1169 1450 1169 1401 1219 c 0,35,36
 1387 1231 1387 1231 1374 1245 c 0,37,38
 1302 1313 1302 1313 1237 1313 c 0,39,40
 1157 1313 1157 1313 1083 1217 c 0,41,42
 1003 1106 1003 1106 920 897 c 0,43,44
 744 455 744 455 645 240 c 1,45,46
 645 220 645 220 653 217 c 0,47,48
 702 217 702 217 797.5 218 c 128,-1,49
 893 219 893 219 942 219 c 0,50,51
 956 219 956 219 963.5 216 c 128,-1,52
 971 213 971 213 972 203 c 128,-1,53
 973 193 973 193 973 188.5 c 128,-1,54
 973 184 973 184 969 170 c 128,-1,55
 965 156 965 156 965 154 c 0,56,57
 957 115 957 115 907 117 c 2,58,-1
 588 121 l 1,59,60
 541 23 541 23 471 -74 c 0,61,62
 465 -82 465 -82 468 -86 c 128,-1,63
 471 -90 471 -90 481 -88 c 0,64,65
 544 -68 544 -68 621 -68 c 0,66,67
 773 -68 773 -68 952 -203 c 0,68,69
 1052 -275 1052 -275 1085 -293 c 0,70,71
 1157 -334 1157 -334 1219 -334 c 0,72,73
 1289 -334 1289 -334 1335.5 -294 c 128,-1,74
 1382 -254 1382 -254 1382 -199 c 0,75,76
 1382 -168 1382 -168 1353.5 -119 c 128,-1,77
 1325 -70 1325 -70 1325 -39 c 0,78,79
 1325 2 1325 2 1351.5 29.5 c 128,-1,80
 1378 57 1378 57 1419 57 c 0,81,82
 1472 57 1472 57 1504 9 c 128,-1,83
 1536 -39 1536 -39 1536 -106 c 0,84,85
 1536 -253 1536 -253 1409 -367 c 128,-1,86
 1282 -481 1282 -481 1122 -481 c 0,87,88
 1001 -481 1001 -481 901 -416 c 0,89,90
 870 -396 870 -396 790.5 -329 c 128,-1,91
 711 -262 711 -262 644.5 -223 c 128,-1,92
 578 -184 578 -184 518 -184 c 0,93,94
 455 -184 455 -184 371 -225 c 2,95,-1
 367 -227 l 1,96,97
 312 -338 312 -338 242 -408.5 c 128,-1,98
 172 -479 172 -479 111 -479 c 0,99,100
 80 -479 80 -479 55.5 -457.5 c 128,-1,101
 31 -436 31 -436 31 -406 c 0,0,1
EndSplineSet
Validated: 33
EndChar

StartChar: yen
Encoding: 165 165 102
Width: 1071
GlyphClass: 2
Flags: W
LayerCount: 2
Fore
SplineSet
-4 1413 m 1,0,1
 -10 1442 -10 1442 25 1442 c 0,2,3
 258 1434 258 1434 461 1444 c 0,4,5
 496 1446 496 1446 496 1417 c 0,6,7
 496 1415 496 1415 497 1402 c 128,-1,8
 498 1389 498 1389 498 1379.5 c 128,-1,9
 498 1370 498 1370 498 1364 c 0,10,11
 496 1354 496 1354 473 1350 c 1,12,13
 367 1350 367 1350 367 1309 c 0,14,15
 367 1297 367 1297 385 1257 c 2,16,-1
 436 1128 l 2,17,18
 440 1114 440 1114 479 1114 c 2,19,-1
 705 1114 l 2,20,21
 725 1114 725 1114 733 1133 c 0,22,23
 733 1135 733 1135 749.5 1172.5 c 128,-1,24
 766 1210 766 1210 781.5 1252 c 128,-1,25
 797 1294 797 1294 797 1311 c 0,26,27
 797 1344 797 1344 731 1348 c 0,28,29
 729 1348 729 1348 719 1349 c 128,-1,30
 709 1350 709 1350 703.5 1350 c 128,-1,31
 698 1350 698 1350 692 1353 c 128,-1,32
 686 1356 686 1356 683 1361 c 128,-1,33
 680 1366 680 1366 680 1374 c 2,34,-1
 680 1407 l 2,35,36
 680 1436 680 1436 707 1436 c 0,37,38
 746 1436 746 1436 816.5 1434 c 128,-1,39
 887 1432 887 1432 940 1433 c 128,-1,40
 993 1434 993 1434 1049 1438 c 0,41,42
 1082 1440 1082 1440 1081 1417 c 2,43,-1
 1081 1378 l 2,44,45
 1082 1350 1082 1350 1053 1350 c 0,46,47
 1002 1350 1002 1350 971 1323 c 128,-1,48
 940 1296 940 1296 901 1204 c 0,49,50
 866 1122 866 1122 872 1118 c 0,51,52
 874 1114 874 1114 887 1114 c 2,53,-1
 1038 1114 l 2,54,55
 1058 1114 1058 1114 1068.5 1102 c 128,-1,56
 1079 1090 1079 1090 1079 1075 c 2,57,-1
 1079 1036 l 2,58,59
 1079 991 1079 991 1038 991 c 2,60,-1
 831 991 l 2,61,62
 813 991 813 991 807 979 c 2,63,-1
 745 842 l 2,64,65
 743 836 743 836 750.5 831.5 c 128,-1,66
 758 827 758 827 768 827 c 2,67,-1
 1044 831 l 1,68,69
 1079 821 1079 821 1079 793 c 2,70,-1
 1079 743 l 2,71,72
 1079 704 1079 704 1028 705 c 2,73,-1
 731 707 l 2,74,75
 686 707 686 707 682 698 c 2,76,-1
 645 618 l 1,77,-1
 645 264 l 2,78,79
 645 143 645 143 665.5 115.5 c 128,-1,80
 686 88 686 88 758 88 c 2,81,-1
 780 88 l 2,82,83
 821 88 821 88 821 51 c 2,84,-1
 821 23 l 2,85,86
 821 7 821 7 815 -0.5 c 128,-1,87
 809 -8 809 -8 800 -8 c 128,-1,88
 791 -8 791 -8 776 -8 c 0,89,90
 526 6 526 6 289 -8 c 0,91,92
 275 -8 275 -8 263.5 0 c 128,-1,93
 252 8 252 8 254 25 c 0,94,95
 254 31 254 31 255 42 c 128,-1,96
 256 53 256 53 257 59.5 c 128,-1,97
 258 66 258 66 261 73 c 128,-1,98
 264 80 264 80 271.5 83 c 128,-1,99
 279 86 279 86 291 86 c 2,100,-1
 307 86 l 2,101,102
 391 86 391 86 410.5 111.5 c 128,-1,103
 430 137 430 137 430 264 c 2,104,-1
 430 596 l 1,105,-1
 387 692 l 2,106,107
 381 706 381 706 354 707 c 2,108,-1
 45 707 l 2,109,110
 -2 707 -2 707 -2 750 c 2,111,-1
 -2 797 l 2,112,113
 -2 832 -2 832 49 831 c 2,114,-1
 297 827 l 2,115,116
 326 827 326 827 326 836 c 0,117,118
 326 838 326 838 324 842 c 2,119,-1
 270 971 l 2,120,121
 260 991 260 991 248 991 c 2,122,-1
 39 991 l 2,123,124
 -2 991 -2 991 -2 1032 c 2,125,-1
 -2 1077 l 2,126,127
 -2 1114 -2 1114 33 1114 c 2,128,-1
 188 1114 l 2,129,130
 223 1114 223 1114 182 1196 c 128,-1,131
 141 1278 141 1278 113 1313 c 1,132,133
 78 1348 78 1348 25 1350 c 0,134,135
 2 1350 2 1350 -2 1376 c 1,136,137
 -8 1388 -8 1388 -4 1413 c 1,0,1
502 973 m 2,138,-1
 575 795 l 2,139,140
 577 789 577 789 578.5 786.5 c 128,-1,141
 580 784 580 784 584 786 c 128,-1,142
 588 788 588 788 592 801 c 2,143,-1
 666 979 l 2,144,145
 666 981 666 981 661.5 984 c 128,-1,146
 657 987 657 987 652 989 c 128,-1,147
 647 991 647 991 645 991 c 2,148,-1
 518 991 l 2,149,150
 514 991 514 991 507 984 c 128,-1,151
 500 977 500 977 502 973 c 2,138,-1
EndSplineSet
Validated: 33
EndChar

StartChar: brokenbar
Encoding: 166 166 103
Width: 1093
GlyphClass: 2
Flags: W
LayerCount: 2
Fore
SplineSet
483 -45 m 1,0,-1
 483 745 l 1,1,-1
 616 745 l 1,2,-1
 616 -45 l 1,3,-1
 483 -45 l 1,0,-1
483 969 m 1,4,-1
 483 1761 l 1,5,-1
 616 1761 l 1,6,-1
 616 969 l 1,7,-1
 483 969 l 1,4,-1
EndSplineSet
Validated: 1
EndChar

StartChar: section
Encoding: 167 167 104
Width: 1005
GlyphClass: 2
Flags: W
LayerCount: 2
Fore
SplineSet
109 877 m 0,0,1
 109 1102 109 1102 253 1267 c 128,-1,2
 397 1432 397 1432 596 1432 c 0,3,4
 674 1432 674 1432 777.5 1389 c 128,-1,5
 881 1346 881 1346 881 1270 c 0,6,7
 881 1231 881 1231 851 1201 c 128,-1,8
 821 1171 821 1171 782 1171 c 0,9,10
 735 1171 735 1171 688 1223 c 0,11,12
 674 1235 674 1235 662 1249 c 0,13,14
 592 1323 592 1323 535 1323 c 0,15,16
 465 1323 465 1323 416 1278 c 128,-1,17
 367 1233 367 1233 367 1171 c 0,18,19
 367 1153 367 1153 374 1129.5 c 128,-1,20
 381 1106 381 1106 396.5 1076.5 c 128,-1,21
 412 1047 412 1047 425 1022 c 128,-1,22
 438 997 438 997 461.5 963.5 c 128,-1,23
 485 930 485 930 497.5 911.5 c 128,-1,24
 510 893 510 893 532.5 861 c 128,-1,25
 555 829 555 829 559 823 c 0,26,27
 725 583 725 583 788.5 470.5 c 128,-1,28
 852 358 852 358 881 246 c 0,29,30
 904 158 904 158 903 43 c 0,31,32
 903 -170 903 -170 757 -327.5 c 128,-1,33
 611 -485 611 -485 412 -485 c 0,34,35
 310 -485 310 -485 223.5 -440 c 128,-1,36
 137 -395 137 -395 137 -328 c 0,37,38
 137 -291 137 -291 163.5 -259 c 128,-1,39
 190 -227 190 -227 227 -227 c 0,40,41
 239 -227 239 -227 250.5 -231.5 c 128,-1,42
 262 -236 262 -236 270.5 -240 c 128,-1,43
 279 -244 279 -244 290 -254 c 128,-1,44
 301 -264 301 -264 305 -269 c 128,-1,45
 309 -274 309 -274 320.5 -287.5 c 128,-1,46
 332 -301 332 -301 334 -305 c 0,47,48
 404 -381 404 -381 479 -381 c 0,49,50
 545 -381 545 -381 596 -336 c 128,-1,51
 647 -291 647 -291 647 -238 c 0,52,53
 647 -156 647 -156 532 4 c 0,54,55
 319 311 319 311 227 475 c 0,56,57
 108 690 108 690 109 877 c 0,0,1
258 1065 m 0,58,59
 178 850 178 850 313 586 c 0,60,61
 368 475 368 475 496.5 283.5 c 128,-1,62
 625 92 625 92 674 0 c 0,63,64
 721 -80 721 -80 737 -123 c 0,65,66
 745 -148 745 -148 754 -125 c 0,67,68
 779 -66 779 -66 778 25 c 0,69,70
 778 252 778 252 629 485 c 0,71,72
 596 536 596 536 515 658 c 128,-1,73
 434 780 434 780 391 848 c 0,74,75
 315 967 315 967 276 1065 c 0,76,77
 266 1092 266 1092 258 1065 c 0,58,59
EndSplineSet
Validated: 33
EndChar

StartChar: dieresis
Encoding: 168 168 105
Width: 712
GlyphClass: 2
Flags: W
LayerCount: 2
Fore
SplineSet
53 1108 m 128,-1,1
 53 1159 53 1159 91 1195 c 128,-1,2
 129 1231 129 1231 182.5 1231 c 128,-1,3
 236 1231 236 1231 273.5 1195 c 128,-1,4
 311 1159 311 1159 311 1108 c 128,-1,5
 311 1057 311 1057 273.5 1021 c 128,-1,6
 236 985 236 985 182.5 985 c 128,-1,7
 129 985 129 985 91 1021 c 128,-1,0
 53 1057 53 1057 53 1108 c 128,-1,1
403 1108 m 128,-1,9
 403 1159 403 1159 441 1195 c 128,-1,10
 479 1231 479 1231 532 1231 c 0,11,12
 587 1231 587 1231 625.5 1195 c 128,-1,13
 664 1159 664 1159 664 1108 c 128,-1,14
 664 1057 664 1057 625.5 1021 c 128,-1,15
 587 985 587 985 532 985 c 0,16,17
 479 985 479 985 441 1021 c 128,-1,8
 403 1057 403 1057 403 1108 c 128,-1,9
EndSplineSet
Validated: 1
EndChar

StartChar: copyright
Encoding: 169 169 106
Width: 1630
GlyphClass: 2
Flags: W
LayerCount: 2
Fore
SplineSet
82 713 m 128,-1,1
 82 1018 82 1018 299 1235 c 128,-1,2
 516 1452 516 1452 819 1452 c 128,-1,3
 1122 1452 1122 1452 1339 1236 c 128,-1,4
 1556 1020 1556 1020 1556 713 c 0,5,6
 1556 408 1556 408 1339 190.5 c 128,-1,7
 1122 -27 1122 -27 819 -27 c 128,-1,8
 516 -27 516 -27 299 190.5 c 128,-1,0
 82 408 82 408 82 713 c 128,-1,1
193 713 m 128,-1,10
 193 451 193 451 376 265.5 c 128,-1,11
 559 80 559 80 819 80 c 128,-1,12
 1079 80 1079 80 1262.5 265.5 c 128,-1,13
 1446 451 1446 451 1446 713 c 128,-1,14
 1446 975 1446 975 1262.5 1160.5 c 128,-1,15
 1079 1346 1079 1346 819 1346 c 128,-1,16
 559 1346 559 1346 376 1160.5 c 128,-1,9
 193 975 193 975 193 713 c 128,-1,10
346 715 m 0,17,18
 346 916 346 916 488.5 1049 c 128,-1,19
 631 1182 631 1182 844 1182 c 0,20,21
 916 1182 916 1182 1024 1145 c 0,22,23
 1042 1139 1042 1139 1055 1139 c 0,24,25
 1065 1139 1065 1139 1070 1146 c 128,-1,26
 1075 1153 1075 1153 1085 1182 c 1,27,-1
 1130 1182 l 2,28,29
 1159 1182 1159 1182 1161 1151 c 0,30,31
 1161 1147 1161 1147 1168.5 1050.5 c 128,-1,32
 1176 954 1176 954 1178 909 c 2,33,-1
 1178 893 l 2,34,35
 1178 870 1178 870 1153 870 c 2,36,-1
 1122 870 l 2,37,38
 1104 870 1104 870 1098 887 c 0,39,40
 1096 889 1096 889 1094 899 c 128,-1,41
 1092 909 1092 909 1087 913 c 0,42,43
 1019 1095 1019 1095 831 1096 c 0,44,45
 702 1096 702 1096 624.5 1002.5 c 128,-1,46
 547 909 547 909 547 743 c 0,47,48
 547 559 547 559 624.5 464 c 128,-1,49
 702 369 702 369 842 369 c 0,50,51
 934 369 934 369 990.5 400.5 c 128,-1,52
 1047 432 1047 432 1118 512 c 0,53,54
 1122 516 1122 516 1126 519 c 128,-1,55
 1130 522 1130 522 1135.5 522 c 128,-1,56
 1141 522 1141 522 1145 522 c 128,-1,57
 1149 522 1149 522 1155 519 c 128,-1,58
 1161 516 1161 516 1163 515 c 128,-1,59
 1165 514 1165 514 1172.5 509 c 128,-1,60
 1180 504 1180 504 1182 504 c 0,61,62
 1207 494 1207 494 1186 461 c 0,63,64
 1038 268 1038 268 809 268 c 0,65,66
 614 268 614 268 480 397 c 128,-1,67
 346 526 346 526 346 715 c 0,17,18
EndSplineSet
Validated: 1
EndChar

StartChar: ordfeminine
Encoding: 170 170 107
Width: 557
GlyphClass: 2
Flags: W
LayerCount: 2
Fore
SplineSet
47 948 m 0,0,1
 47 1046 47 1046 195 1081 c 0,2,3
 263 1095 263 1095 317 1126 c 1,4,-1
 317 1212 l 2,5,6
 317 1302 317 1302 244 1303 c 0,7,8
 224 1303 224 1303 199 1284 c 0,9,10
 193 1278 193 1278 190.5 1273 c 128,-1,11
 188 1268 188 1268 188 1261.5 c 128,-1,12
 188 1255 188 1255 188 1252 c 128,-1,13
 188 1249 188 1249 191.5 1241 c 128,-1,14
 195 1233 195 1233 197 1227 c 1,15,-1
 84 1176 l 2,16,17
 68 1170 68 1170 66 1184 c 0,18,19
 56 1207 56 1207 55 1219 c 0,20,21
 55 1266 55 1266 143 1331 c 0,22,23
 213 1380 213 1380 272 1380 c 0,24,25
 366 1380 366 1380 409.5 1334 c 128,-1,26
 453 1288 453 1288 453 1188 c 2,27,-1
 453 1026 l 1,28,-1
 453 971 l 2,29,30
 453 928 453 928 467 928 c 0,31,32
 479 928 479 928 524 956 c 0,33,34
 532 960 532 960 537.5 957 c 128,-1,35
 543 954 543 954 543 950 c 2,36,-1
 555 920 l 2,37,38
 559 908 559 908 549 899 c 0,39,40
 453 823 453 823 406 823 c 0,41,42
 357 823 357 823 334 866 c 0,43,44
 328 882 328 882 317 874 c 0,45,46
 249 823 249 823 186 823 c 0,47,48
 127 823 127 823 87 858 c 128,-1,49
 47 893 47 893 47 948 c 0,0,1
176 963 m 0,50,51
 176 940 176 940 191.5 924.5 c 128,-1,52
 207 909 207 909 231 909 c 0,53,54
 254 909 254 909 285.5 933.5 c 128,-1,55
 317 958 317 958 317 975 c 2,56,-1
 317 1034 l 2,57,58
 317 1042 317 1042 314 1047.5 c 128,-1,59
 311 1053 311 1053 307 1051 c 128,-1,60
 303 1049 303 1049 292 1042.5 c 128,-1,61
 281 1036 281 1036 272 1034 c 0,62,63
 204 1009 204 1009 190 996 c 128,-1,64
 176 983 176 983 176 963 c 0,50,51
EndSplineSet
Validated: 1
EndChar

StartChar: guillemotleft
Encoding: 171 171 108
Width: 759
GlyphClass: 2
Flags: W
LayerCount: 2
Fore
SplineSet
76 453 m 2,0,1
 60 476 60 476 84 510 c 2,2,-1
 365 864 l 2,3,4
 375 878 375 878 389 879 c 2,5,-1
 434 879 l 2,6,7
 448 879 448 879 452.5 875.5 c 128,-1,8
 457 872 457 872 453 864 c 2,9,-1
 256 475 l 1,10,-1
 444 98 l 2,11,12
 460 65 460 65 436 66 c 2,13,-1
 391 66 l 2,14,15
 377 66 377 66 360 88 c 2,16,-1
 76 453 l 2,0,1
360 457 m 2,17,18
 348 475 348 475 373 510 c 2,19,-1
 586 823 l 2,20,21
 598 841 598 841 599 842.5 c 128,-1,22
 600 844 600 844 612 844 c 2,23,-1
 659 844 l 2,24,25
 682 844 682 844 670 817 c 2,26,-1
 543 475 l 1,27,-1
 668 131 l 2,28,29
 678 100 678 100 655 100 c 2,30,-1
 612 100 l 2,31,32
 610 100 610 100 606 100 c 0,33,34
 600 100 600 100 594 109 c 0,35,36
 590 113 590 113 588 117 c 2,37,-1
 360 457 l 2,17,18
EndSplineSet
Validated: 1
EndChar

StartChar: logicalnot
Encoding: 172 172 109
Width: 1429
GlyphClass: 2
Flags: W
LayerCount: 2
Fore
SplineSet
145 864 m 1,0,-1
 145 1018 l 1,1,-1
 1290 1018 l 1,2,-1
 1290 373 l 1,3,-1
 1135 373 l 1,4,-1
 1135 864 l 1,5,-1
 145 864 l 1,0,-1
EndSplineSet
Validated: 1
EndChar

StartChar: uni00AD
Encoding: 173 173 110
Width: 890
GlyphClass: 2
Flags: W
LayerCount: 2
Fore
SplineSet
90 438 m 1,0,-1
 90 510 l 2,1,2
 90 528 90 528 106.5 538.5 c 128,-1,3
 123 549 123 549 139 549 c 0,4,5
 510 539 510 539 772 549 c 0,6,7
 786 549 786 549 798.5 536.5 c 128,-1,8
 811 524 811 524 811 510 c 2,9,-1
 807 440 l 1,10,11
 799 411 799 411 776 408 c 0,12,13
 465 404 465 404 121 408 c 0,14,15
 101 408 101 408 90 438 c 1,0,-1
EndSplineSet
Validated: 33
EndChar

StartChar: registered
Encoding: 174 174 111
Width: 1630
GlyphClass: 2
Flags: W
LayerCount: 2
Fore
SplineSet
63 713 m 0,0,1
 63 1026 63 1026 282.5 1247 c 128,-1,2
 502 1468 502 1468 811 1468 c 128,-1,3
 1120 1468 1120 1468 1339.5 1247 c 128,-1,4
 1559 1026 1559 1026 1559 713 c 0,5,6
 1559 402 1559 402 1339.5 180.5 c 128,-1,7
 1120 -41 1120 -41 811 -41 c 128,-1,8
 502 -41 502 -41 282.5 180 c 128,-1,9
 63 401 63 401 63 713 c 0,0,1
172 712.5 m 128,-1,11
 172 444 172 444 358.5 256 c 128,-1,12
 545 68 545 68 811 68 c 0,13,14
 1075 68 1075 68 1263.5 257 c 128,-1,15
 1452 446 1452 446 1452 712.5 c 128,-1,16
 1452 979 1452 979 1263.5 1168.5 c 128,-1,17
 1075 1358 1075 1358 811 1358 c 0,18,19
 545 1358 545 1358 358.5 1169.5 c 128,-1,10
 172 981 172 981 172 712.5 c 128,-1,11
410 301 m 2,20,-1
 410 322 l 2,21,22
 410 349 410 349 442 348 c 0,23,24
 489 348 489 348 500.5 365.5 c 128,-1,25
 512 383 512 383 512 461 c 2,26,-1
 512 973 l 2,27,28
 512 1051 512 1051 502 1067 c 128,-1,29
 492 1083 492 1083 451 1085 c 0,30,31
 422 1085 422 1085 422 1114 c 2,32,-1
 422 1141 l 2,33,34
 422 1164 422 1164 459 1163 c 0,35,36
 543 1157 543 1157 817 1163 c 0,37,38
 952 1163 952 1163 1039 1096.5 c 128,-1,39
 1126 1030 1126 1030 1126 922 c 0,40,41
 1126 764 1126 764 940 694 c 0,42,43
 926 690 926 690 934 678 c 2,44,-1
 1112 424 l 2,45,46
 1143 379 1143 379 1162.5 364.5 c 128,-1,47
 1182 350 1182 350 1210 348 c 0,48,49
 1233 346 1233 346 1233 334 c 2,50,-1
 1233 303 l 2,51,52
 1233 268 1233 268 1188 268 c 0,53,54
 1114 270 1114 270 1053 268 c 0,55,56
 1022 268 1022 268 1008 287 c 2,57,-1
 733 668 l 1,58,-1
 702 668 l 2,59,60
 694 668 694 668 694 633 c 2,61,-1
 694 459 l 1,62,-1
 694 385 l 2,63,64
 694 350 694 350 784 348 c 0,65,66
 809 348 809 348 809 317 c 2,67,-1
 809 295 l 2,68,69
 809 268 809 268 762 268 c 0,70,71
 592 278 592 278 451 268 c 0,72,73
 441 268 441 268 425.5 276.5 c 128,-1,74
 410 285 410 285 410 301 c 2,20,-1
694 795 m 2,75,76
 694 752 694 752 702 752 c 0,77,78
 813 752 813 752 870.5 794 c 128,-1,79
 928 836 928 836 928 909 c 0,80,81
 928 981 928 981 879 1028 c 128,-1,82
 830 1075 830 1075 754 1075 c 0,83,84
 719 1075 719 1075 694 1067 c 1,85,-1
 694 795 l 2,75,76
EndSplineSet
Validated: 33
EndChar

StartChar: macron
Encoding: 175 175 112
Width: 714
GlyphClass: 2
Flags: W
LayerCount: 2
Fore
SplineSet
18 1067 m 2,0,-1
 18 1149 l 2,1,2
 18 1178 18 1178 72 1178 c 2,3,-1
 90 1178 l 1,4,-1
 647 1178 l 2,5,6
 698 1178 698 1178 698 1139 c 2,7,-1
 698 1061 l 2,8,9
 698 1024 698 1024 641 1024 c 2,10,-1
 63 1024 l 2,11,12
 18 1024 18 1024 18 1067 c 2,0,-1
EndSplineSet
Validated: 1
EndChar

StartChar: degree
Encoding: 176 176 113
Width: 849
GlyphClass: 2
Flags: W
LayerCount: 2
Fore
SplineSet
98 1053 m 0,0,1
 98 1192 98 1192 193.5 1289 c 128,-1,2
 289 1386 289 1386 426 1386 c 128,-1,3
 563 1386 563 1386 659.5 1289 c 128,-1,4
 756 1192 756 1192 756 1053 c 0,5,6
 756 916 756 916 659.5 818.5 c 128,-1,7
 563 721 563 721 426 721 c 128,-1,8
 289 721 289 721 193.5 818 c 128,-1,9
 98 915 98 915 98 1053 c 0,0,1
227 1053 m 0,10,11
 227 971 227 971 285.5 911.5 c 128,-1,12
 344 852 344 852 426 852 c 128,-1,13
 508 852 508 852 567.5 911.5 c 128,-1,14
 627 971 627 971 627 1053 c 0,15,16
 627 1137 627 1137 568.5 1196 c 128,-1,17
 510 1255 510 1255 426 1255 c 0,18,19
 344 1255 344 1255 285.5 1196 c 128,-1,20
 227 1137 227 1137 227 1053 c 0,10,11
EndSplineSet
Validated: 1
EndChar

StartChar: plusminus
Encoding: 177 177 114
Width: 1429
GlyphClass: 2
Flags: W
LayerCount: 2
Fore
SplineSet
145 834 m 2,0,-1
 145 889 l 2,1,2
 145 940 145 940 211 940 c 2,3,-1
 612 940 l 2,4,5
 639 940 639 940 639 973 c 2,6,-1
 639 1358 l 2,7,8
 639 1364 639 1364 638 1372 c 128,-1,9
 637 1380 637 1380 637 1384 c 0,10,11
 637 1441 637 1441 676 1442 c 2,12,-1
 745 1442 l 2,13,14
 772 1442 772 1442 783.5 1430.5 c 128,-1,15
 795 1419 795 1419 795 1386 c 2,16,-1
 795 967 l 1,17,18
 799 940 799 940 823 940 c 2,19,-1
 1237 940 l 2,20,21
 1268 940 1268 940 1279 930 c 128,-1,22
 1290 920 1290 920 1290 895 c 2,23,-1
 1290 831 l 2,24,25
 1290 798 1290 798 1277 791 c 128,-1,26
 1264 784 1264 784 1231 784 c 2,27,-1
 834 784 l 2,28,29
 795 785 795 785 795 756 c 2,30,-1
 795 338 l 2,31,32
 795 303 795 303 785.5 295 c 128,-1,33
 776 287 776 287 743 287 c 1,34,35
 706 277 706 277 680 287 c 1,36,37
 647 287 647 287 641 301 c 2,38,-1
 639 307 l 2,39,40
 637 311 637 311 638 323.5 c 128,-1,41
 639 336 639 336 639 338 c 2,42,-1
 639 752 l 2,43,44
 639 762 639 762 631 773 c 128,-1,45
 623 784 623 784 614 784 c 2,46,-1
 199 784 l 2,47,48
 168 784 168 784 156.5 793.5 c 128,-1,49
 145 803 145 803 145 834 c 2,0,-1
147 8 m 2,50,-1
 147 53 l 2,51,52
 147 82 147 82 156.5 95.5 c 128,-1,53
 166 109 166 109 197 106 c 0,54,55
 250 102 250 102 612.5 102 c 128,-1,56
 975 102 975 102 1239 106 c 0,57,58
 1268 106 1268 106 1279 95 c 128,-1,59
 1290 84 1290 84 1290 55 c 2,60,-1
 1290 2 l 2,61,62
 1290 -33 1290 -33 1269.5 -42 c 128,-1,63
 1249 -51 1249 -51 1210 -51 c 0,64,65
 981 -53 981 -53 213 -53 c 0,66,67
 174 -53 174 -53 160.5 -42 c 128,-1,68
 147 -31 147 -31 147 8 c 2,50,-1
EndSplineSet
Validated: 1
EndChar

StartChar: uni00B2
Encoding: 178 178 115
Width: 614
GlyphClass: 2
Flags: W
LayerCount: 2
Fore
SplineSet
18 643 m 2,0,-1
 18 678 l 1,1,2
 73 744 73 744 184 838 c 0,3,4
 186 840 186 840 222 870.5 c 128,-1,5
 258 901 258 901 269.5 911.5 c 128,-1,6
 281 922 281 922 308.5 951.5 c 128,-1,7
 336 981 336 981 347 1000.5 c 128,-1,8
 358 1020 358 1020 369.5 1047.5 c 128,-1,9
 381 1075 381 1075 381 1100 c 0,10,11
 381 1143 381 1143 349 1171.5 c 128,-1,12
 317 1200 317 1200 268 1200 c 0,13,14
 162 1200 162 1200 121 1075 c 0,15,16
 115 1063 115 1063 73 1065 c 128,-1,17
 31 1067 31 1067 31 1083 c 0,18,19
 41 1194 41 1194 115.5 1258.5 c 128,-1,20
 190 1323 190 1323 299 1323 c 0,21,22
 403 1323 403 1323 476 1264.5 c 128,-1,23
 549 1206 549 1206 549 1114 c 0,24,25
 549 1067 549 1067 534.5 1029 c 128,-1,26
 520 991 520 991 481 955.5 c 128,-1,27
 442 920 442 920 424 905.5 c 128,-1,28
 406 891 406 891 350 852 c 0,29,30
 293 815 293 815 225 756 c 1,31,32
 219 745 219 745 242 745 c 2,33,-1
 393 745 l 2,34,35
 450 745 450 745 461 752 c 0,36,37
 467 758 467 758 479 807 c 0,38,39
 481 825 481 825 506 825 c 2,40,-1
 549 825 l 2,41,42
 574 825 574 825 573 801 c 0,43,44
 555 658 555 658 553 651 c 0,45,46
 547 616 547 616 506 616 c 2,47,-1
 49 616 l 2,48,49
 31 616 31 616 24.5 620.5 c 128,-1,50
 18 625 18 625 18 643 c 2,0,-1
EndSplineSet
Validated: 1
EndChar

StartChar: uni00B3
Encoding: 179 179 116
Width: 614
GlyphClass: 2
Flags: W
LayerCount: 2
Fore
SplineSet
29 707 m 0,0,1
 29 738 29 738 50.5 756 c 128,-1,2
 72 774 72 774 102 774 c 0,3,4
 137 774 137 774 191.5 735 c 128,-1,5
 246 696 246 696 276 696 c 0,6,7
 325 696 325 696 364 739 c 128,-1,8
 403 782 403 782 403 846 c 0,9,10
 403 891 403 891 377.5 921.5 c 128,-1,11
 352 952 352 952 319 952 c 0,12,13
 288 952 288 952 256 928 c 0,14,15
 213 901 213 901 188 942 c 0,16,17
 180 954 180 954 185 972.5 c 128,-1,18
 190 991 190 991 201 997 c 0,19,20
 346 1089 346 1089 346 1147 c 0,21,22
 346 1172 346 1172 325.5 1189 c 128,-1,23
 305 1206 305 1206 272 1206 c 0,24,25
 196 1206 196 1206 143 1112 c 1,26,27
 116 1075 116 1075 82.5 1098.5 c 128,-1,28
 49 1122 49 1122 57 1147 c 0,29,30
 96 1231 96 1231 162.5 1277 c 128,-1,31
 229 1323 229 1323 311 1323 c 0,32,33
 387 1323 387 1323 441.5 1284 c 128,-1,34
 496 1245 496 1245 496 1180 c 0,35,36
 496 1110 496 1110 428 1055 c 1,37,38
 491 1035 491 1035 528 986.5 c 128,-1,39
 565 938 565 938 565 870 c 0,40,41
 565 759 565 759 465 680.5 c 128,-1,42
 365 602 365 602 236 602 c 0,43,44
 160 602 160 602 94.5 629.5 c 128,-1,45
 29 657 29 657 29 707 c 0,0,1
EndSplineSet
Validated: 33
EndChar

StartChar: acute
Encoding: 180 180 117
Width: 714
GlyphClass: 2
Flags: W
LayerCount: 2
Fore
SplineSet
242 1004 m 2,0,-1
 336 1321 l 1,1,2
 352 1354 352 1354 383 1354 c 2,3,-1
 551 1354 l 2,4,5
 567 1356 567 1356 579.5 1348.5 c 128,-1,6
 592 1341 592 1341 590 1325 c 0,7,8
 590 1319 590 1319 588 1317 c 2,9,-1
 588 1315 l 1,10,-1
 311 977 l 2,11,12
 299 959 299 959 266 966 c 128,-1,13
 233 973 233 973 242 1004 c 2,0,-1
EndSplineSet
Validated: 1
EndChar

StartChar: paragraph
Encoding: 182 182 118
Width: 983
GlyphClass: 2
Flags: W
LayerCount: 2
Fore
SplineSet
-18 934 m 0,0,1
 -18 1129 -18 1129 109 1239.5 c 128,-1,2
 236 1350 236 1350 459 1352 c 0,3,4
 901 1352 901 1352 938 1354 c 0,5,6
 958 1356 958 1356 971.5 1344.5 c 128,-1,7
 985 1333 985 1333 985 1315 c 2,8,-1
 985 1268 l 2,9,10
 985 1233 985 1233 940 1233 c 2,11,-1
 866 1233 l 2,12,13
 850 1233 850 1233 850 1206 c 2,14,-1
 850 -467 l 2,15,16
 850 -496 850 -496 842 -503 c 128,-1,17
 834 -510 834 -510 805 -510 c 2,18,-1
 770 -510 l 2,19,20
 725 -510 725 -510 725 -469 c 2,21,-1
 727 1206 l 2,22,23
 727 1229 727 1229 702 1229 c 2,24,-1
 606 1229 l 2,25,26
 590 1229 590 1229 590 1210 c 2,27,-1
 592 -475 l 2,28,29
 592 -510 592 -510 549 -510 c 2,30,-1
 504 -510 l 2,31,32
 479 -510 479 -510 471 -499.5 c 128,-1,33
 463 -489 463 -489 463 -467 c 2,34,-1
 463 502 l 2,35,36
 463 514 463 514 459 517 c 128,-1,37
 455 520 455 520 436 520 c 0,38,39
 276 522 276 522 180 573.5 c 128,-1,40
 84 625 84 625 29 729 c 0,41,42
 -18 817 -18 817 -18 934 c 0,0,1
EndSplineSet
Validated: 1
EndChar

StartChar: periodcentered
Encoding: 183 183 119
Width: 526
GlyphClass: 2
Flags: W
LayerCount: 2
Fore
SplineSet
152 702.5 m 128,-1,1
 152 748 152 748 185.5 782.5 c 128,-1,2
 219 817 219 817 264 817 c 128,-1,3
 309 817 309 817 343 783.5 c 128,-1,4
 377 750 377 750 377 702 c 0,5,6
 377 657 377 657 343 622.5 c 128,-1,7
 309 588 309 588 264 588 c 128,-1,8
 219 588 219 588 185.5 622.5 c 128,-1,0
 152 657 152 657 152 702.5 c 128,-1,1
EndSplineSet
Validated: 1
EndChar

StartChar: cedilla
Encoding: 184 184 120
Width: 714
GlyphClass: 2
Flags: W
LayerCount: 2
Fore
SplineSet
213 -258 m 2,0,-1
 375 20 l 1,1,-1
 451 20 l 1,2,-1
 389 -96 l 1,3,-1
 391 -96 l 1,4,5
 450 -106 450 -106 488 -153.5 c 128,-1,6
 526 -201 526 -201 526 -264 c 0,7,8
 526 -346 526 -346 471 -402.5 c 128,-1,9
 416 -459 416 -459 336 -459 c 0,10,11
 291 -459 291 -459 252 -444 c 0,12,13
 221 -432 221 -432 240 -399 c 0,14,15
 242 -391 242 -391 248 -385 c 0,16,17
 254 -369 254 -369 276 -373 c 0,18,19
 303 -379 303 -379 315 -379 c 0,20,21
 350 -379 350 -379 374.5 -354.5 c 128,-1,22
 399 -330 399 -330 399 -297 c 0,23,24
 399 -238 399 -238 356 -238 c 0,25,26
 333 -238 333 -238 242 -285 c 0,27,28
 224 -293 224 -293 213.5 -287 c 128,-1,29
 203 -281 203 -281 213 -258 c 2,0,-1
EndSplineSet
Validated: 1
EndChar

StartChar: uni00B9
Encoding: 185 185 121
Width: 614
GlyphClass: 2
Flags: W
LayerCount: 2
Fore
SplineSet
101 1110 m 128,-1,1
 88 1135 88 1135 104 1151 c 1,2,3
 245 1241 245 1241 301 1311 c 0,4,5
 307 1319 307 1319 354 1315 c 128,-1,6
 401 1311 401 1311 401 1298 c 2,7,-1
 401 731 l 2,8,9
 401 727 401 727 401 723 c 0,10,11
 401 707 401 707 418 705 c 0,12,13
 420 705 420 705 443.5 702.5 c 128,-1,14
 467 700 467 700 471 702 c 0,15,16
 500 698 500 698 503 694 c 128,-1,17
 506 690 506 690 508 655 c 0,18,19
 508 639 508 639 500 625.5 c 128,-1,20
 492 612 492 612 483 612 c 0,21,22
 325 618 325 618 172 612 c 0,23,24
 162 612 162 612 153.5 625.5 c 128,-1,25
 145 639 145 639 145 655 c 0,26,27
 145 694 145 694 170 698 c 2,28,-1
 225 705 l 2,29,30
 245 707 245 707 249.5 710 c 128,-1,31
 254 713 254 713 254 729 c 2,32,-1
 254 1139 l 1,33,34
 219 1116 219 1116 141 1087 c 1,35,0
 114 1085 114 1085 101 1110 c 128,-1,1
EndSplineSet
Validated: 33
EndChar

StartChar: ordmasculine
Encoding: 186 186 122
Width: 737
GlyphClass: 2
Flags: W
LayerCount: 2
Fore
SplineSet
59 1102 m 128,-1,1
 59 1221 59 1221 149.5 1300.5 c 128,-1,2
 240 1380 240 1380 369 1380 c 128,-1,3
 498 1380 498 1380 588 1300.5 c 128,-1,4
 678 1221 678 1221 678 1102 c 0,5,6
 678 985 678 985 589 904 c 128,-1,7
 500 823 500 823 373 823 c 0,8,9
 242 823 242 823 150.5 903 c 128,-1,0
 59 983 59 983 59 1102 c 128,-1,1
205 1139 m 0,10,11
 205 1037 205 1037 260 968 c 128,-1,12
 315 899 315 899 389 899 c 0,13,14
 450 899 450 899 492.5 947 c 128,-1,15
 535 995 535 995 535 1073 c 0,16,17
 535 1171 535 1171 479.5 1239 c 128,-1,18
 424 1307 424 1307 350 1307 c 0,19,20
 289 1307 289 1307 247 1259.5 c 128,-1,21
 205 1212 205 1212 205 1139 c 0,10,11
EndSplineSet
Validated: 1
EndChar

StartChar: guillemotright
Encoding: 187 187 123
Width: 759
GlyphClass: 2
Flags: W
LayerCount: 2
Fore
SplineSet
90 129 m 2,0,-1
 217 471 l 1,1,-1
 92 815 l 2,2,3
 82 846 82 846 104 846 c 2,4,-1
 150 846 l 2,5,6
 152 846 152 846 156 846 c 0,7,8
 162 846 162 846 170 834 c 0,9,10
 172 832 172 832 174 829 c 2,11,-1
 399 489 l 2,12,13
 411 473 411 473 389 436 c 2,14,-1
 176 123 l 2,15,16
 164 107 164 107 163 105.5 c 128,-1,17
 162 104 162 104 150 104 c 2,18,-1
 102 104 l 2,19,20
 84 104 84 104 90 129 c 2,0,-1
307 82 m 2,21,-1
 506 473 l 1,22,-1
 315 850 l 2,23,24
 301 881 301 881 326 881 c 2,25,-1
 371 881 l 2,26,27
 385 881 385 881 401 860 c 2,28,-1
 686 494 l 2,29,30
 704 467 704 467 676 438 c 1,31,-1
 397 82 l 2,32,33
 385 68 385 68 373 68 c 2,34,-1
 326 68 l 2,35,36
 301 68 301 68 307 82 c 2,21,-1
EndSplineSet
Validated: 1
EndChar

StartChar: onequarter
Encoding: 188 188 124
Width: 1464
GlyphClass: 2
Flags: W
LayerCount: 2
Fore
SplineSet
102 1104.5 m 128,-1,1
 88 1128 88 1128 104 1149 c 1,2,3
 251 1237 251 1237 309 1311 c 0,4,5
 315 1319 315 1319 365.5 1316 c 128,-1,6
 416 1313 416 1313 416 1298 c 2,7,-1
 416 719 l 2,8,9
 416 694 416 694 436 692 c 0,10,11
 444 692 444 692 460.5 692 c 128,-1,12
 477 692 477 692 485.5 692 c 128,-1,13
 494 692 494 692 505 688 c 128,-1,14
 516 684 516 684 521 673 c 128,-1,15
 526 662 526 662 526 643 c 0,16,17
 526 600 526 600 502 600 c 0,18,19
 336 606 336 606 176 600 c 0,20,21
 147 600 147 600 147 643 c 0,22,23
 151 686 151 686 174 686 c 2,24,-1
 236 690 l 2,25,26
 252 692 252 692 256 696 c 128,-1,27
 260 700 260 700 260 717 c 2,28,-1
 260 1135 l 1,29,30
 237 1123 237 1123 194.5 1104 c 128,-1,31
 152 1085 152 1085 143 1081 c 1,32,0
 116 1081 116 1081 102 1104.5 c 128,-1,1
194.5 -48.5 m 128,-1,34
 188 -27 188 -27 199 -14 c 2,35,-1
 1151 1333 l 1,36,-1
 1155 1343 l 1,37,38
 1163 1351 1163 1351 1178 1352 c 2,39,-1
 1184 1352 l 1,40,-1
 1268 1352 l 2,41,42
 1278 1352 1278 1352 1284 1337.5 c 128,-1,43
 1290 1323 1290 1323 1278 1305 c 2,44,-1
 324 -49 l 2,45,46
 310 -69 310 -69 287 -70 c 2,47,-1
 221 -70 l 2,48,33
 201 -70 201 -70 194.5 -48.5 c 128,-1,34
807 195 m 2,49,-1
 807 240 l 1,50,-1
 1167 700 l 1,51,52
 1204 712 1204 712 1233 707 c 0,53,54
 1264 699 1264 699 1262 670 c 2,55,-1
 1262 309 l 2,56,57
 1262 289 1262 289 1270 289 c 2,58,-1
 1352 289 l 2,59,60
 1391 289 1391 289 1391 254 c 0,61,62
 1391 199 1391 199 1386 188 c 0,63,64
 1376 172 1376 172 1362 172 c 2,65,-1
 1272 172 l 2,66,67
 1262 170 1262 170 1262 137 c 2,68,-1
 1264 -6 l 2,69,70
 1264 -18 1264 -18 1264 -22.5 c 128,-1,71
 1264 -27 1264 -27 1260.5 -33 c 128,-1,72
 1257 -39 1257 -39 1251 -40 c 128,-1,73
 1245 -41 1245 -41 1233 -41 c 2,74,-1
 1133 -41 l 2,75,76
 1113 -39 1113 -39 1106 -14 c 1,77,-1
 1108 133 l 1,78,79
 1104 172 1104 172 1094 172 c 2,80,-1
 838 172 l 2,81,82
 820 172 820 172 812.5 177 c 128,-1,83
 805 182 805 182 807 195 c 2,49,-1
973 289 m 1,84,-1
 1081 289 l 2,85,86
 1106 289 1106 289 1106 299 c 2,87,-1
 1106 467 l 1,88,-1
 973 289 l 1,84,-1
EndSplineSet
Validated: 33
EndChar

StartChar: onehalf
Encoding: 189 189 125
Width: 1464
GlyphClass: 2
Flags: W
LayerCount: 2
Fore
SplineSet
101 1110 m 128,-1,1
 88 1135 88 1135 104 1151 c 1,2,3
 245 1241 245 1241 301 1311 c 0,4,5
 307 1319 307 1319 354 1315 c 128,-1,6
 401 1311 401 1311 401 1298 c 2,7,-1
 401 731 l 2,8,9
 401 727 401 727 401 723 c 0,10,11
 401 707 401 707 418 705 c 0,12,13
 420 705 420 705 443.5 702.5 c 128,-1,14
 467 700 467 700 471 702 c 0,15,16
 500 698 500 698 503 694 c 128,-1,17
 506 690 506 690 508 655 c 0,18,19
 508 639 508 639 500 625.5 c 128,-1,20
 492 612 492 612 483 612 c 0,21,22
 325 618 325 618 172 612 c 0,23,24
 162 612 162 612 153.5 625.5 c 128,-1,25
 145 639 145 639 145 655 c 0,26,27
 145 694 145 694 170 698 c 2,28,-1
 225 705 l 2,29,30
 245 707 245 707 249.5 710 c 128,-1,31
 254 713 254 713 254 729 c 2,32,-1
 254 1139 l 1,33,34
 219 1116 219 1116 141 1087 c 1,35,0
 114 1085 114 1085 101 1110 c 128,-1,1
193 -25 m 2,36,-1
 1151 1335 l 2,37,38
 1159 1345 1159 1345 1165 1349.5 c 128,-1,39
 1171 1354 1171 1354 1179.5 1355 c 128,-1,40
 1188 1356 1188 1356 1192 1356 c 2,41,-1
 1262 1341 l 2,42,43
 1299 1333 1299 1333 1278 1305 c 2,44,-1
 324 -49 l 2,45,46
 310 -67 310 -67 305.5 -73.5 c 128,-1,47
 301 -80 301 -80 288.5 -78 c 128,-1,48
 276 -76 276 -76 274 -76 c 2,49,-1
 219 -63 l 2,50,51
 176 -53 176 -53 193 -25 c 2,36,-1
860 14 m 2,52,-1
 860 49 l 1,53,54
 915 112 915 112 1024 209 c 0,55,56
 1026 211 1026 211 1056.5 237.5 c 128,-1,57
 1087 264 1087 264 1096.5 272.5 c 128,-1,58
 1106 281 1106 281 1132.5 305.5 c 128,-1,59
 1159 330 1159 330 1169.5 345 c 128,-1,60
 1180 360 1180 360 1195 384 c 128,-1,61
 1210 408 1210 408 1216.5 428.5 c 128,-1,62
 1223 449 1223 449 1223 471 c 0,63,64
 1223 514 1223 514 1190 542.5 c 128,-1,65
 1157 571 1157 571 1108 571 c 0,66,67
 1002 571 1002 571 961 446 c 0,68,69
 955 434 955 434 913.5 436 c 128,-1,70
 872 438 872 438 872 455 c 0,71,72
 882 566 882 566 957 630 c 128,-1,73
 1032 694 1032 694 1141 694 c 0,74,75
 1245 694 1245 694 1318 636 c 128,-1,76
 1391 578 1391 578 1391 485 c 0,77,78
 1391 428 1391 428 1361 379 c 128,-1,79
 1331 330 1331 330 1298.5 302 c 128,-1,80
 1266 274 1266 274 1210 236 c 0,81,82
 1198 228 1198 228 1192 223 c 0,83,84
 1135 186 1135 186 1067 127 c 0,85,86
 1061 119 1061 119 1081 117 c 2,87,-1
 1235 117 l 2,88,89
 1294 117 1294 117 1303 123 c 0,90,91
 1311 131 1311 131 1321 178 c 0,92,93
 1323 196 1323 196 1348 197 c 2,94,-1
 1391 197 l 2,95,96
 1416 197 1416 197 1415 172 c 0,97,98
 1397 35 1397 35 1395 23 c 0,99,100
 1389 -12 1389 -12 1348 -12 c 2,101,-1
 891 -12 l 2,102,103
 873 -12 873 -12 866.5 -8 c 128,-1,104
 860 -4 860 -4 860 14 c 2,52,-1
EndSplineSet
Validated: 33
EndChar

StartChar: threequarters
Encoding: 190 190 126
Width: 1464
GlyphClass: 2
Flags: W
LayerCount: 2
Fore
SplineSet
35 692 m 0,0,1
 35 721 35 721 58.5 741.5 c 128,-1,2
 82 762 82 762 113 762 c 0,3,4
 148 762 148 762 201 721 c 128,-1,5
 254 680 254 680 289 680 c 0,6,7
 340 680 340 680 380 725 c 128,-1,8
 420 770 420 770 420 831 c 0,9,10
 420 878 420 878 393.5 909 c 128,-1,11
 367 940 367 940 332 940 c 0,12,13
 299 940 299 940 268.5 917.5 c 128,-1,14
 238 895 238 895 219 913 c 0,15,16
 172 960 172 960 211 987 c 0,17,18
 358 1081 358 1081 358 1139 c 0,19,20
 358 1164 358 1164 337.5 1181 c 128,-1,21
 317 1198 317 1198 283 1198 c 0,22,23
 203 1198 203 1198 154 1100 c 1,24,25
 140 1084 140 1084 96.5 1097 c 128,-1,26
 53 1110 53 1110 66 1139 c 0,27,28
 103 1223 103 1223 171.5 1270 c 128,-1,29
 240 1317 240 1317 324 1317 c 0,30,31
 402 1317 402 1317 459 1277 c 128,-1,32
 516 1237 516 1237 516 1171 c 0,33,34
 517 1104 517 1104 449 1047 c 1,35,36
 584 998 584 998 584 856 c 0,37,38
 584 745 584 745 482.5 665.5 c 128,-1,39
 381 586 381 586 250 586 c 0,40,41
 170 586 170 586 102.5 613.5 c 128,-1,42
 35 641 35 641 35 692 c 0,0,1
197 -18 m 1,43,-1
 197 -20 l 1,44,-1
 1151 1335 l 2,45,46
 1174 1370 1174 1370 1206 1356 c 2,47,-1
 1249 1337 l 2,48,49
 1288 1319 1288 1319 1272 1296 c 2,50,-1
 324 -49 l 2,51,52
 297 -86 297 -86 268 -78 c 2,53,-1
 221 -63 l 2,54,55
 179 -51 179 -51 197 -18 c 1,43,-1
786 205 m 1,56,-1
 786 240 l 1,57,-1
 1147 700 l 1,58,59
 1184 712 1184 712 1212 707 c 0,60,61
 1243 699 1243 699 1241 670 c 2,62,-1
 1241 309 l 2,63,64
 1241 289 1241 289 1249 289 c 2,65,-1
 1331 289 l 2,66,67
 1370 289 1370 289 1370 254 c 0,68,69
 1370 199 1370 199 1366 188 c 0,70,71
 1355 172 1355 172 1341 172 c 2,72,-1
 1251 172 l 2,73,74
 1241 170 1241 170 1241 137 c 2,75,-1
 1243 0 l 2,76,77
 1243 -12 1243 -12 1243 -16 c 128,-1,78
 1243 -20 1243 -20 1240 -26.5 c 128,-1,79
 1237 -33 1237 -33 1231 -34 c 128,-1,80
 1225 -35 1225 -35 1212 -35 c 2,81,-1
 1112 -35 l 2,82,83
 1092 -33 1092 -33 1085 -8 c 1,84,-1
 1087 133 l 1,85,86
 1083 172 1083 172 1073 172 c 2,87,-1
 825 172 l 2,88,89
 782 172 782 172 786 205 c 1,56,-1
952 289 m 1,90,-1
 1061 289 l 2,91,92
 1086 289 1086 289 1085 299 c 2,93,-1
 1085 467 l 1,94,-1
 952 289 l 1,90,-1
EndSplineSet
Validated: 33
EndChar

StartChar: questiondown
Encoding: 191 191 127
Width: 759
GlyphClass: 2
Flags: W
LayerCount: 2
Fore
SplineSet
82 -111 m 0,0,1
 82 94 82 94 227 197 c 0,2,3
 276 236 276 236 371 270 c 0,4,5
 416 286 416 286 431 302.5 c 128,-1,6
 446 319 446 319 446 346 c 0,7,8
 446 375 446 375 433 399.5 c 128,-1,9
 420 424 420 424 373 481 c 0,10,11
 361 495 361 495 363 505.5 c 128,-1,12
 365 516 365 516 371 521 c 128,-1,13
 377 526 377 526 381 528 c 0,14,15
 395 536 395 536 419.5 531 c 128,-1,16
 444 526 444 526 455 512 c 0,17,18
 559 381 559 381 559 279 c 0,19,20
 559 201 559 201 521 156 c 128,-1,21
 483 111 483 111 393 76 c 0,22,23
 264 25 264 25 219 -20.5 c 128,-1,24
 174 -66 174 -66 174 -141.5 c 128,-1,25
 174 -217 174 -217 222 -261 c 128,-1,26
 270 -305 270 -305 360 -305 c 0,27,28
 389 -305 389 -305 439 -298 c 128,-1,29
 489 -291 489 -291 514 -291 c 0,30,31
 655 -291 655 -291 655 -387 c 0,32,33
 655 -450 655 -450 600 -480 c 128,-1,34
 545 -510 545 -510 455 -510 c 0,35,36
 289 -510 289 -510 185.5 -398.5 c 128,-1,37
 82 -287 82 -287 82 -111 c 0,0,1
295 766 m 0,38,39
 295 817 295 817 332 853 c 128,-1,40
 369 889 369 889 422 889 c 128,-1,41
 475 889 475 889 512 854 c 128,-1,42
 549 819 549 819 549 766 c 128,-1,43
 549 713 549 713 512 677 c 128,-1,44
 475 641 475 641 422 641 c 128,-1,45
 369 641 369 641 332 677 c 128,-1,46
 295 713 295 713 295 766 c 0,38,39
EndSplineSet
Validated: 1
EndChar

StartChar: Agrave
Encoding: 192 192 128
Width: 1456
GlyphClass: 2
Flags: W
LayerCount: 2
Fore
SplineSet
29 68 m 0,0,1
 35 93 35 93 57 92 c 0,2,3
 131 92 131 92 153.5 106.5 c 128,-1,4
 176 121 176 121 205 188 c 2,5,-1
 238 270 l 1,6,-1
 614 1296 l 1,7,-1
 602 1346 l 2,8,9
 598 1356 598 1356 610.5 1365 c 128,-1,10
 623 1374 623 1374 643 1376 c 2,11,-1
 709 1376 l 2,12,13
 787 1376 787 1376 805 1350 c 1,14,15
 909 1078 909 1078 994 852.5 c 128,-1,16
 1079 627 1079 627 1123 511 c 128,-1,17
 1167 395 1167 395 1184 352 c 0,18,19
 1221 246 1221 246 1239 195 c 0,20,21
 1264 125 1264 125 1286.5 105.5 c 128,-1,22
 1309 86 1309 86 1372 86 c 2,23,-1
 1386 86 l 2,24,25
 1404 86 1404 86 1411.5 62.5 c 128,-1,26
 1419 39 1419 39 1412 15.5 c 128,-1,27
 1405 -8 1405 -8 1384 -8 c 0,28,29
 1155 2 1155 2 846 -6 c 0,30,31
 811 -6 811 -6 811 45 c 0,32,33
 811 92 811 92 864 92 c 0,34,35
 884 92 884 92 911 93 c 128,-1,36
 938 94 938 94 948 94 c 0,37,38
 997 96 997 96 1011.5 117.5 c 128,-1,39
 1026 139 1026 139 1010 182 c 0,40,41
 947 348 947 348 872 551 c 0,42,43
 864 569 864 569 829 569 c 2,44,-1
 524 569 l 2,45,46
 501 571 501 571 483 543 c 1,47,48
 448 443 448 443 356 195 c 0,49,50
 346 164 346 164 346 133 c 128,-1,51
 346 102 346 102 389 94 c 128,-1,52
 432 86 432 86 477 90 c 0,53,54
 495 92 495 92 518 90 c 0,55,56
 543 86 543 86 543 39 c 0,57,58
 541 23 541 23 532.5 8.5 c 128,-1,59
 524 -6 524 -6 518 -6 c 0,60,61
 180 0 180 0 80 -6 c 1,62,-1
 57 -6 l 1,63,64
 16 2 16 2 29 68 c 0,0,1
505 1782.5 m 128,-1,66
 520 1802 520 1802 543 1802 c 2,67,-1
 696 1804 l 2,68,69
 733 1804 733 1804 745 1782 c 0,70,71
 786 1673 786 1673 848 1448 c 1,72,73
 848 1417 848 1417 818 1414 c 128,-1,74
 788 1411 788 1411 776 1425 c 0,75,76
 667 1566 667 1566 506 1745 c 0,77,65
 490 1763 490 1763 505 1782.5 c 128,-1,66
549 723 m 0,78,79
 547 717 547 717 563 707 c 1,80,81
 688 711 688 711 793 707 c 0,82,83
 797 707 797 707 801 716 c 128,-1,84
 805 725 805 725 803 733 c 0,85,86
 750 872 750 872 692 1067 c 0,87,88
 682 1092 682 1092 668 1049 c 0,89,90
 645 979 645 979 549 723 c 0,78,79
EndSplineSet
Validated: 33
EndChar

StartChar: Aacute
Encoding: 193 193 129
Width: 1456
GlyphClass: 2
Flags: W
LayerCount: 2
Fore
SplineSet
29 68 m 0,0,1
 35 93 35 93 57 92 c 0,2,3
 131 92 131 92 153.5 106.5 c 128,-1,4
 176 121 176 121 205 188 c 2,5,-1
 238 270 l 1,6,-1
 614 1296 l 1,7,-1
 602 1346 l 2,8,9
 598 1356 598 1356 610.5 1365 c 128,-1,10
 623 1374 623 1374 643 1376 c 2,11,-1
 709 1376 l 2,12,13
 787 1376 787 1376 805 1350 c 1,14,15
 909 1078 909 1078 994 852.5 c 128,-1,16
 1079 627 1079 627 1123 511 c 128,-1,17
 1167 395 1167 395 1184 352 c 0,18,19
 1221 246 1221 246 1239 195 c 0,20,21
 1264 125 1264 125 1286.5 105.5 c 128,-1,22
 1309 86 1309 86 1372 86 c 2,23,-1
 1386 86 l 2,24,25
 1404 86 1404 86 1411.5 62.5 c 128,-1,26
 1419 39 1419 39 1412 15.5 c 128,-1,27
 1405 -8 1405 -8 1384 -8 c 0,28,29
 1155 2 1155 2 846 -6 c 0,30,31
 811 -6 811 -6 811 45 c 0,32,33
 811 94 811 94 864 94 c 2,34,-1
 948 94 l 2,35,36
 997 96 997 96 1011.5 117.5 c 128,-1,37
 1026 139 1026 139 1010 182 c 0,38,39
 947 348 947 348 872 551 c 0,40,41
 864 569 864 569 829 569 c 2,42,-1
 524 569 l 2,43,44
 501 571 501 571 483 543 c 1,45,46
 448 443 448 443 356 195 c 0,47,48
 346 164 346 164 346 133 c 128,-1,49
 346 102 346 102 389 94 c 128,-1,50
 432 86 432 86 477 90 c 0,51,52
 495 92 495 92 518 90 c 0,53,54
 543 86 543 86 543 39 c 0,55,56
 541 23 541 23 532.5 8.5 c 128,-1,57
 524 -6 524 -6 518 -6 c 0,58,59
 180 0 180 0 80 -6 c 1,60,-1
 57 -6 l 1,61,62
 16 2 16 2 29 68 c 0,0,1
549 723 m 0,63,64
 547 717 547 717 563 707 c 1,65,66
 688 711 688 711 793 707 c 0,67,68
 797 707 797 707 801 716 c 128,-1,69
 805 725 805 725 803 733 c 0,70,71
 750 872 750 872 692 1067 c 0,72,73
 682 1092 682 1092 668 1049 c 0,74,75
 645 979 645 979 549 723 c 0,63,64
608 1503 m 2,76,-1
 709 1835 l 2,77,78
 719 1870 719 1870 756 1870 c 0,79,80
 776 1870 776 1870 799.5 1871 c 128,-1,81
 823 1872 823 1872 836 1872 c 0,82,83
 881 1874 881 1874 900.5 1874 c 128,-1,84
 920 1874 920 1874 941.5 1871 c 128,-1,85
 963 1868 963 1868 969 1860.5 c 128,-1,86
 975 1853 975 1853 973 1839 c 2,87,-1
 967 1823 l 1,88,-1
 680 1475 l 2,89,90
 668 1459 668 1459 633 1467 c 128,-1,91
 598 1475 598 1475 608 1503 c 2,76,-1
EndSplineSet
Validated: 33
EndChar

StartChar: Acircumflex
Encoding: 194 194 130
Width: 1456
GlyphClass: 2
Flags: W
LayerCount: 2
Fore
SplineSet
29 68 m 0,0,1
 35 93 35 93 57 92 c 0,2,3
 131 92 131 92 153.5 106.5 c 128,-1,4
 176 121 176 121 205 188 c 2,5,-1
 238 270 l 1,6,-1
 614 1296 l 1,7,-1
 602 1346 l 2,8,9
 598 1356 598 1356 610.5 1365 c 128,-1,10
 623 1374 623 1374 643 1376 c 2,11,-1
 709 1376 l 2,12,13
 787 1376 787 1376 805 1350 c 1,14,15
 909 1078 909 1078 994 852.5 c 128,-1,16
 1079 627 1079 627 1123 511 c 128,-1,17
 1167 395 1167 395 1184 352 c 0,18,19
 1221 246 1221 246 1239 195 c 0,20,21
 1264 125 1264 125 1286.5 105.5 c 128,-1,22
 1309 86 1309 86 1372 86 c 2,23,-1
 1386 86 l 2,24,25
 1404 86 1404 86 1411.5 62.5 c 128,-1,26
 1419 39 1419 39 1412 15.5 c 128,-1,27
 1405 -8 1405 -8 1384 -8 c 0,28,29
 1155 2 1155 2 846 -6 c 0,30,31
 811 -6 811 -6 811 45 c 0,32,33
 811 92 811 92 864 92 c 0,34,35
 884 92 884 92 911 93 c 128,-1,36
 938 94 938 94 948 94 c 0,37,38
 997 96 997 96 1011.5 117.5 c 128,-1,39
 1026 139 1026 139 1010 182 c 0,40,41
 947 348 947 348 872 551 c 0,42,43
 864 569 864 569 829 569 c 2,44,-1
 524 569 l 2,45,46
 501 571 501 571 483 543 c 1,47,48
 448 443 448 443 356 195 c 0,49,50
 346 164 346 164 346 133 c 128,-1,51
 346 102 346 102 389 94 c 128,-1,52
 432 86 432 86 477 90 c 0,53,54
 495 92 495 92 518 90 c 0,55,56
 543 86 543 86 543 39 c 0,57,58
 541 23 541 23 532.5 8.5 c 128,-1,59
 524 -6 524 -6 518 -6 c 0,60,61
 180 0 180 0 80 -6 c 1,62,-1
 57 -6 l 1,63,64
 16 2 16 2 29 68 c 0,0,1
418 1450 m 2,65,-1
 596 1765 l 2,66,67
 604 1779 604 1779 629 1792 c 1,68,69
 643 1794 643 1794 703.5 1795 c 128,-1,70
 764 1796 764 1796 784 1794 c 0,71,72
 813 1792 813 1792 827 1767 c 2,73,-1
 1004 1460 l 2,74,75
 1024 1425 1024 1425 995 1419 c 0,76,77
 960 1411 960 1411 946 1425 c 2,78,-1
 707 1628 l 1,79,-1
 481 1425 l 2,80,81
 458 1405 458 1405 428 1421 c 0,82,83
 408 1433 408 1433 418 1450 c 2,65,-1
549 723 m 0,84,85
 547 717 547 717 563 707 c 1,86,87
 688 711 688 711 793 707 c 0,88,89
 797 707 797 707 801 716 c 128,-1,90
 805 725 805 725 803 733 c 0,91,92
 750 872 750 872 692 1067 c 0,93,94
 682 1092 682 1092 668 1049 c 0,95,96
 645 979 645 979 549 723 c 0,84,85
EndSplineSet
Validated: 33
EndChar

StartChar: Atilde
Encoding: 195 195 131
Width: 1456
GlyphClass: 2
Flags: W
LayerCount: 2
Fore
SplineSet
29 68 m 0,0,1
 35 93 35 93 57 92 c 0,2,3
 131 92 131 92 153.5 106.5 c 128,-1,4
 176 121 176 121 205 188 c 2,5,-1
 238 270 l 1,6,-1
 614 1296 l 1,7,-1
 602 1346 l 2,8,9
 598 1356 598 1356 610.5 1365 c 128,-1,10
 623 1374 623 1374 643 1376 c 2,11,-1
 709 1376 l 2,12,13
 787 1376 787 1376 805 1350 c 1,14,15
 909 1078 909 1078 994 852.5 c 128,-1,16
 1079 627 1079 627 1123 511 c 128,-1,17
 1167 395 1167 395 1184 352 c 0,18,19
 1221 246 1221 246 1239 195 c 0,20,21
 1264 125 1264 125 1286.5 105.5 c 128,-1,22
 1309 86 1309 86 1372 86 c 2,23,-1
 1386 86 l 2,24,25
 1404 86 1404 86 1411.5 62.5 c 128,-1,26
 1419 39 1419 39 1412 15.5 c 128,-1,27
 1405 -8 1405 -8 1384 -8 c 0,28,29
 1155 2 1155 2 846 -6 c 0,30,31
 811 -6 811 -6 811 45 c 0,32,33
 811 92 811 92 864 92 c 0,34,35
 884 92 884 92 911 93 c 128,-1,36
 938 94 938 94 948 94 c 0,37,38
 997 96 997 96 1011.5 117.5 c 128,-1,39
 1026 139 1026 139 1010 182 c 0,40,41
 947 348 947 348 872 551 c 0,42,43
 864 569 864 569 829 569 c 2,44,-1
 524 569 l 2,45,46
 501 571 501 571 483 543 c 1,47,48
 448 443 448 443 356 195 c 0,49,50
 346 164 346 164 346 133 c 128,-1,51
 346 102 346 102 389 94 c 128,-1,52
 432 86 432 86 477 90 c 0,53,54
 495 92 495 92 518 90 c 0,55,56
 543 86 543 86 543 39 c 0,57,58
 541 23 541 23 532.5 8.5 c 128,-1,59
 524 -6 524 -6 518 -6 c 0,60,61
 180 0 180 0 80 -6 c 1,62,-1
 57 -6 l 1,63,64
 16 2 16 2 29 68 c 0,0,1
375 1516 m 1,65,66
 381 1651 381 1651 433 1724.5 c 128,-1,67
 485 1798 485 1798 582 1798 c 0,68,69
 664 1798 664 1798 784 1716 c 0,70,71
 860 1663 860 1663 897 1663 c 0,72,73
 924 1663 924 1663 939 1686.5 c 128,-1,74
 954 1710 954 1710 965 1786 c 0,75,76
 969 1809 969 1809 1001 1808 c 0,77,78
 1011 1810 1011 1810 1023.5 1804 c 128,-1,79
 1036 1798 1036 1798 1036 1788 c 0,80,81
 1040 1773 1040 1773 1040 1759 c 0,82,83
 1040 1646 1040 1646 982 1572.5 c 128,-1,84
 924 1499 924 1499 831 1499 c 0,85,86
 747 1499 747 1499 631 1579 c 0,87,88
 549 1636 549 1636 520 1636 c 0,89,90
 495 1636 495 1636 482 1619 c 128,-1,91
 469 1602 469 1602 457 1550 c 2,92,-1
 451 1513 l 1,93,94
 441 1493 441 1493 411 1491 c 128,-1,95
 381 1489 381 1489 375 1516 c 1,65,66
549 723 m 0,96,97
 547 717 547 717 563 707 c 1,98,99
 688 711 688 711 793 707 c 0,100,101
 797 707 797 707 801 716 c 128,-1,102
 805 725 805 725 803 733 c 0,103,104
 750 872 750 872 692 1067 c 0,105,106
 682 1092 682 1092 668 1049 c 0,107,108
 645 979 645 979 549 723 c 0,96,97
EndSplineSet
Validated: 33
EndChar

